<svg width="793" height="161" viewBox="0 0 793 161" fill="none" xmlns="http://www.w3.org/2000/svg">
<path d="M147.305 114.82C143.138 114.82 139.674 113.74 136.914 111.578C134.18 109.391 132.812 106.135 132.812 101.812C132.812 98.5573 133.568 96.0052 135.078 94.1562C136.615 92.2812 138.633 90.9141 141.133 90.0547C143.633 89.1693 146.315 88.5964 149.18 88.3359C152.982 87.9714 155.69 87.5938 157.305 87.2031C158.945 86.7865 159.766 85.875 159.766 84.4688V84.2734C159.766 82.4766 159.193 81.0833 158.047 80.0938C156.901 79.1042 155.247 78.6094 153.086 78.6094C150.924 78.6094 149.154 79.0781 147.773 80.0156C146.419 80.9531 145.521 82.151 145.078 83.6094L134.062 81.8516C135.104 78.0495 137.292 75.0938 140.625 72.9844C143.984 70.849 148.151 69.7812 153.125 69.7812C156.354 69.7812 159.388 70.2891 162.227 71.3047C165.091 72.3203 167.409 73.9219 169.18 76.1094C170.951 78.2708 171.836 81.0833 171.836 84.5469V114H160.391V107.906H160.039C158.971 109.964 157.383 111.63 155.273 112.906C153.19 114.182 150.534 114.82 147.305 114.82ZM144.336 101.422C144.336 103.089 144.935 104.352 146.133 105.211C147.357 106.044 148.893 106.461 150.742 106.461C153.398 106.461 155.573 105.693 157.266 104.156C158.984 102.62 159.844 100.706 159.844 98.4141V93.7656C159.375 94.0781 158.633 94.3646 157.617 94.625C156.628 94.8854 155.573 95.1068 154.453 95.2891C153.333 95.4453 152.331 95.5885 151.445 95.7188C149.31 96.0312 147.591 96.6432 146.289 97.5547C144.987 98.4401 144.336 99.7292 144.336 101.422ZM179.963 130.328V70.3281H191.877V77.7109H192.423C192.97 76.513 193.739 75.3021 194.728 74.0781C195.744 72.8542 197.072 71.8385 198.713 71.0312C200.379 70.1979 202.423 69.7812 204.845 69.7812C208.048 69.7812 210.978 70.6146 213.634 72.2812C216.317 73.9219 218.465 76.4089 220.08 79.7422C221.694 83.0755 222.502 87.2422 222.502 92.2422C222.502 97.0859 221.72 101.188 220.158 104.547C218.595 107.88 216.473 110.406 213.791 112.125C211.108 113.844 208.101 114.703 204.767 114.703C202.423 114.703 200.431 114.312 198.791 113.531C197.176 112.75 195.848 111.773 194.806 110.602C193.791 109.404 192.996 108.206 192.423 107.008H192.072V130.328H179.963ZM191.798 92.2031C191.798 96.0573 192.593 99.1693 194.181 101.539C195.796 103.909 198.061 105.094 200.978 105.094C203.947 105.094 206.213 103.896 207.775 101.5C209.338 99.0781 210.119 95.9792 210.119 92.2031C210.119 88.401 209.338 85.3151 207.775 82.9453C206.239 80.5755 203.973 79.3906 200.978 79.3906C198.061 79.3906 195.796 80.5495 194.181 82.8672C192.593 85.1849 191.798 88.2969 191.798 92.2031ZM228.831 114V70.3281H240.941V114H228.831ZM234.886 64.7422C233.089 64.7422 231.54 64.1432 230.238 62.9453C228.961 61.7474 228.323 60.3021 228.323 58.6094C228.323 56.9167 228.961 55.4844 230.238 54.3125C231.54 53.1146 233.089 52.5156 234.886 52.5156C236.683 52.5156 238.219 53.1146 239.495 54.3125C240.797 55.4844 241.448 56.9167 241.448 58.6094C241.448 60.3021 240.797 61.7474 239.495 62.9453C238.219 64.1432 236.683 64.7422 234.886 64.7422ZM272.231 70.3281V79.4688H263.95V100.562C263.95 103.401 265.33 104.82 268.091 104.82C268.559 104.82 269.067 104.781 269.614 104.703C270.187 104.625 270.682 104.534 271.098 104.43L273.012 113.492C270.434 114.247 267.934 114.625 265.512 114.625C261.19 114.625 257.83 113.531 255.434 111.344C253.065 109.156 251.88 106.096 251.88 102.164V79.4688H245.942V70.3281H251.88V59.9375H263.95V70.3281H272.231ZM290.983 114.82C286.816 114.82 283.353 113.74 280.592 111.578C277.858 109.391 276.491 106.135 276.491 101.812C276.491 98.5573 277.246 96.0052 278.756 94.1562C280.293 92.2812 282.311 90.9141 284.811 90.0547C287.311 89.1693 289.993 88.5964 292.858 88.3359C296.66 87.9714 299.368 87.5938 300.983 87.2031C302.623 86.7865 303.444 85.875 303.444 84.4688V84.2734C303.444 82.4766 302.871 81.0833 301.725 80.0938C300.579 79.1042 298.926 78.6094 296.764 78.6094C294.603 78.6094 292.832 79.0781 291.452 80.0156C290.097 80.9531 289.199 82.151 288.756 83.6094L277.741 81.8516C278.782 78.0495 280.97 75.0938 284.303 72.9844C287.663 70.849 291.829 69.7812 296.803 69.7812C300.032 69.7812 303.066 70.2891 305.905 71.3047C308.769 72.3203 311.087 73.9219 312.858 76.1094C314.629 78.2708 315.514 81.0833 315.514 84.5469V114H304.069V107.906H303.717C302.649 109.964 301.061 111.63 298.952 112.906C296.868 114.182 294.212 114.82 290.983 114.82ZM288.014 101.422C288.014 103.089 288.613 104.352 289.811 105.211C291.035 106.044 292.571 106.461 294.42 106.461C297.077 106.461 299.251 105.693 300.944 104.156C302.663 102.62 303.522 100.706 303.522 98.4141V93.7656C303.053 94.0781 302.311 94.3646 301.295 94.625C300.306 94.8854 299.251 95.1068 298.131 95.2891C297.011 95.4453 296.009 95.5885 295.123 95.7188C292.988 96.0312 291.269 96.6432 289.967 97.5547C288.665 98.4401 288.014 99.7292 288.014 101.422ZM335.75 55.7969V114H323.641V55.7969H335.75ZM387.12 114.781C381.938 114.781 377.303 113.609 373.214 111.266C369.126 108.922 365.896 105.523 363.527 101.07C361.183 96.6172 360.011 91.2396 360.011 84.9375C360.011 78.5833 361.196 73.1797 363.566 68.7266C365.961 64.2734 369.204 60.875 373.292 58.5312C377.407 56.1875 382.016 55.0156 387.12 55.0156C391.626 55.0156 395.675 55.849 399.269 57.5156C402.889 59.1823 405.844 61.5911 408.136 64.7422C410.428 67.8932 411.834 71.7083 412.355 76.1875H399.933C399.464 72.9844 398.097 70.4714 395.831 68.6484C393.566 66.7995 390.753 65.875 387.394 65.875C382.915 65.875 379.308 67.5417 376.573 70.875C373.839 74.1823 372.472 78.8698 372.472 84.9375C372.472 91.1354 373.839 95.849 376.573 99.0781C379.334 102.307 382.928 103.922 387.355 103.922C390.61 103.922 393.37 103.062 395.636 101.344C397.928 99.625 399.36 97.2161 399.933 94.1172H412.355C411.912 97.6849 410.636 101.044 408.527 104.195C406.443 107.346 403.592 109.898 399.972 111.852C396.378 113.805 392.094 114.781 387.12 114.781ZM439.075 114.859C434.674 114.859 430.859 113.922 427.63 112.047C424.427 110.146 421.953 107.516 420.208 104.156C418.489 100.771 417.63 96.8385 417.63 92.3594C417.63 87.8542 418.489 83.9089 420.208 80.5234C421.953 77.138 424.427 74.5078 427.63 72.6328C430.859 70.7318 434.674 69.7812 439.075 69.7812C443.502 69.7812 447.317 70.7318 450.52 72.6328C453.749 74.5078 456.223 77.138 457.942 80.5234C459.687 83.9089 460.559 87.8542 460.559 92.3594C460.559 96.8385 459.687 100.771 457.942 104.156C456.223 107.516 453.749 110.146 450.52 112.047C447.317 113.922 443.502 114.859 439.075 114.859ZM429.934 92.2812C429.934 96.0833 430.703 99.2214 432.239 101.695C433.776 104.169 436.067 105.406 439.114 105.406C442.135 105.406 444.414 104.169 445.95 101.695C447.486 99.2214 448.255 96.0833 448.255 92.2812C448.255 88.4792 447.486 85.3542 445.95 82.9062C444.414 80.4583 442.135 79.2344 439.114 79.2344C436.067 79.2344 433.776 80.4583 432.239 82.9062C430.703 85.3542 429.934 88.4792 429.934 92.2812ZM482.905 114.703C479.571 114.703 476.564 113.844 473.881 112.125C471.199 110.406 469.077 107.88 467.514 104.547C465.952 101.188 465.17 97.0859 465.17 92.2422C465.17 87.2422 465.978 83.0755 467.592 79.7422C469.207 76.4089 471.355 73.9219 474.038 72.2812C476.72 70.6146 479.649 69.7812 482.827 69.7812C485.274 69.7812 487.319 70.1979 488.959 71.0312C490.6 71.8385 491.928 72.8542 492.944 74.0781C493.959 75.3021 494.728 76.513 495.248 77.7109H495.6V55.7969H507.709V114H495.795V107.008H495.248C494.702 108.206 493.907 109.404 492.866 110.602C491.824 111.773 490.483 112.75 488.842 113.531C487.228 114.312 485.248 114.703 482.905 114.703ZM495.873 92.2031C495.873 88.2969 495.079 85.1849 493.491 82.8672C491.902 80.5495 489.636 79.3906 486.694 79.3906C483.699 79.3906 481.42 80.5755 479.858 82.9453C478.321 85.3151 477.553 88.401 477.553 92.2031C477.553 95.9792 478.334 99.0781 479.897 101.5C481.459 103.896 483.725 105.094 486.694 105.094C489.61 105.094 491.863 103.909 493.452 101.539C495.066 99.1693 495.873 96.0573 495.873 92.2031ZM535.68 114.859C531.201 114.859 527.346 113.948 524.117 112.125C520.888 110.302 518.401 107.711 516.656 104.352C514.911 100.966 514.039 96.9688 514.039 92.3594C514.039 87.8802 514.898 83.9479 516.617 80.5625C518.362 77.1771 520.81 74.5339 523.961 72.6328C527.112 70.7318 530.823 69.7812 535.094 69.7812C538.948 69.7812 542.424 70.6016 545.523 72.2422C548.648 73.8828 551.122 76.3438 552.945 79.625C554.794 82.9062 555.719 87.0208 555.719 91.9688V95.25H525.953C526.083 98.5573 527.047 101.148 528.844 103.023C530.641 104.898 532.984 105.836 535.875 105.836C537.88 105.836 539.599 105.406 541.031 104.547C542.49 103.688 543.531 102.438 544.156 100.797L555.328 101.539C554.469 105.549 552.32 108.779 548.883 111.227C545.471 113.648 541.07 114.859 535.68 114.859ZM526.031 87.7891H544.117C543.831 85.0286 542.945 82.8411 541.461 81.2266C539.977 79.612 537.893 78.8047 535.211 78.8047C532.503 78.8047 530.354 79.651 528.766 81.3438C527.203 83.0104 526.292 85.1589 526.031 87.7891Z" fill="#EFF0EF"/>
<path d="M575.688 114V105.172L596.43 85.9531C599.06 83.401 601.065 81.1875 602.445 79.3125C603.826 77.4375 604.516 75.3542 604.516 73.0625C604.516 70.5104 603.669 68.4922 601.977 67.0078C600.31 65.5234 598.201 64.7812 595.648 64.7812C592.966 64.7812 590.818 65.5885 589.203 67.2031C587.615 68.7917 586.82 70.9792 586.82 73.7656H575.141C575.141 69.9375 576.013 66.6302 577.758 63.8438C579.503 61.0312 581.911 58.8568 584.984 57.3203C588.083 55.7839 591.664 55.0156 595.727 55.0156C599.893 55.0156 603.526 55.7578 606.625 57.2422C609.724 58.7005 612.133 60.7318 613.852 63.3359C615.57 65.9141 616.43 68.8958 616.43 72.2812C616.43 74.4688 615.987 76.6302 615.102 78.7656C614.242 80.875 612.719 83.2318 610.531 85.8359C608.344 88.4401 605.245 91.5651 601.234 95.2109L592.758 103.531V103.961H617.211V114H575.688ZM647.33 114.781C639.908 114.781 634.127 112.164 629.986 106.93C625.871 101.695 623.814 94.3646 623.814 84.9375C623.814 75.5104 625.884 68.1667 630.025 62.9062C634.166 57.6458 639.934 55.0156 647.33 55.0156C654.726 55.0156 660.494 57.6458 664.634 62.9062C668.775 68.1667 670.845 75.5104 670.845 84.9375C670.845 94.3646 668.775 101.695 664.634 106.93C660.52 112.164 654.752 114.781 647.33 114.781ZM636.353 84.9375C636.353 91.2396 637.291 96.0964 639.166 99.5078C641.067 102.919 643.788 104.625 647.33 104.625C650.871 104.625 653.58 102.919 655.455 99.5078C657.356 96.0964 658.306 91.2396 658.306 84.9375C658.306 78.6094 657.356 73.7266 655.455 70.2891C653.58 66.8516 650.871 65.1328 647.33 65.1328C643.814 65.1328 641.106 66.8646 639.205 70.3281C637.304 73.7656 636.353 78.6354 636.353 84.9375ZM677.956 114V105.172L698.698 85.9531C701.329 83.401 703.334 81.1875 704.714 79.3125C706.094 77.4375 706.784 75.3542 706.784 73.0625C706.784 70.5104 705.938 68.4922 704.245 67.0078C702.579 65.5234 700.469 64.7812 697.917 64.7812C695.235 64.7812 693.086 65.5885 691.472 67.2031C689.883 68.7917 689.089 70.9792 689.089 73.7656H677.409C677.409 69.9375 678.282 66.6302 680.027 63.8438C681.771 61.0312 684.18 58.8568 687.253 57.3203C690.352 55.7839 693.933 55.0156 697.995 55.0156C702.162 55.0156 705.795 55.7578 708.894 57.2422C711.993 58.7005 714.402 60.7318 716.12 63.3359C717.839 65.9141 718.698 68.8958 718.698 72.2812C718.698 74.4688 718.256 76.6302 717.37 78.7656C716.511 80.875 714.988 83.2318 712.8 85.8359C710.613 88.4401 707.514 91.5651 703.503 95.2109L695.027 103.531V103.961H719.48V114H677.956ZM748.075 114.781C744.065 114.781 740.471 114.052 737.294 112.594C734.143 111.109 731.656 109.065 729.833 106.461C728.01 103.857 727.059 100.888 726.981 97.5547H738.934C739.039 99.7943 739.976 101.617 741.747 103.023C743.518 104.404 745.627 105.094 748.075 105.094C750.94 105.094 753.283 104.156 755.106 102.281C756.955 100.38 757.88 97.9193 757.88 94.8984C757.88 91.8516 756.942 89.3646 755.067 87.4375C753.218 85.5104 750.822 84.5469 747.88 84.5469C746.135 84.5469 744.468 84.8984 742.88 85.6016C741.317 86.3047 740.093 87.2552 739.208 88.4531L728.192 86.5L730.966 55.7969H766.552V65.875H741.122L739.637 80.4453H739.95C740.992 79.013 742.541 77.8281 744.598 76.8906C746.656 75.9531 748.96 75.4844 751.512 75.4844C755.028 75.4844 758.153 76.3047 760.887 77.9453C763.648 79.5859 765.809 81.8385 767.372 84.7031C768.96 87.5677 769.755 90.862 769.755 94.5859C769.755 98.4922 768.843 101.969 767.02 105.016C765.197 108.062 762.658 110.458 759.403 112.203C756.148 113.922 752.372 114.781 748.075 114.781Z" fill="#18D296"/>
<path d="M86.7783 7C88.0983 7.66 89.4183 8.32 90.7783 9C90.2115 13.4677 88.3751 16.7486 86.0283 20.5C85.6349 21.1431 85.2415 21.7862 84.8362 22.4487C82.4834 26.2841 80.0941 30.0969 77.7119 33.9141C72.088 42.934 66.5322 51.982 61.2158 61.1875C60.7275 62.0236 60.2392 62.8597 59.7361 63.7212C54.7313 72.4733 51.023 80.3329 51.2158 90.5625C51.2268 91.3917 51.2377 92.2209 51.249 93.0752C51.5224 100.774 53.3364 105.49 58.751 111.012C65.8507 117.554 71.2618 118.553 80.7197 118.305C88.1993 117.886 93.6072 115.658 98.7158 110.125C101.425 106.837 102.786 103.984 104.778 100C110.718 100 116.658 100 122.778 100C120.76 112.112 114.107 121.512 104.259 128.887C91.2601 137.013 77.3918 140.121 62.2275 137.352C47.7022 133.281 36.4097 124.485 29.0283 111.387C22.7785 99.4535 21.5157 84.4969 24.6494 71.3438C25.8318 68.3974 27.1795 65.7408 28.7783 63C29.263 62.0719 29.7477 61.1438 30.2471 60.1875C35.843 50.3123 45.0834 42.0106 55.7783 38C57.9971 38.418 57.9971 38.418 59.7783 39C59.4118 39.6223 59.0453 40.2446 58.6677 40.8857C52.157 51.9554 45.6711 63.0405 39.4033 74.25C38.9337 75.076 38.4641 75.9019 37.9802 76.7529C37.5552 77.5202 37.1302 78.2876 36.6924 79.0781C36.3206 79.7423 35.9489 80.4065 35.5659 81.0908C34.5241 83.2721 34.5241 83.2721 34.7783 87C36.0983 87.33 37.4183 87.66 38.7783 88C39.0393 87.1323 39.3004 86.2646 39.5693 85.3706C40.7876 81.9742 42.2736 79.1642 44.1221 76.0703C44.7861 74.9536 45.4501 73.8369 46.1343 72.6863C46.8487 71.499 47.5633 70.3119 48.2783 69.125C49.0128 67.8971 49.747 66.669 50.4809 65.4407C55.8004 56.5553 61.2103 47.7318 66.7783 39C67.3329 38.1297 67.8876 37.2594 68.459 36.3628C69.3634 34.9438 69.3634 34.9438 70.2861 33.4961C70.9047 32.5252 71.5233 31.5543 72.1606 30.554C73.3662 28.6633 74.5734 26.7738 75.7827 24.8855C79.5529 18.9842 83.2076 13.0241 86.7783 7Z" fill="#18D296"/>
<path d="M86.7783 7C88.0983 7.66 89.4183 8.32 90.7783 9C90.2116 13.4673 88.3759 16.7492 86.0283 20.5C85.448 21.445 85.448 21.445 84.856 22.4092C83.9899 23.8171 83.1204 25.2229 82.248 26.627C80.6178 29.2592 79.0062 31.9026 77.3955 34.5469C76.232 36.4482 75.0679 38.3493 73.9033 40.25C73.3442 41.1672 72.7851 42.0843 72.209 43.0293C71.6776 43.891 71.1462 44.7528 70.5986 45.6406C70.127 46.4092 69.6554 47.1778 69.1694 47.9697C67.8537 49.89 66.4809 51.4211 64.7783 53C64.4483 52.01 64.1183 51.02 63.7783 50C62.2933 50.495 62.2933 50.495 60.7783 51C60.6546 51.9281 60.5308 52.8562 60.4033 53.8125C59.7783 57 59.7783 57 57.7783 60C57.1183 60 56.4583 60 55.7783 60C55.6752 60.7631 55.5721 61.5263 55.4658 62.3125C54.7103 65.2658 53.9084 65.9587 51.7783 68C51.0638 70.1033 51.0638 70.1033 50.7783 72C49.7883 72 48.7983 72 47.7783 72C49.0756 68.5694 50.5688 65.455 52.4307 62.2969C52.9544 61.4073 53.4782 60.5178 54.0178 59.6013C54.8583 58.1899 54.8583 58.1899 55.7158 56.75C56.2949 55.7736 56.8739 54.7972 57.4705 53.7913C61.9039 46.3613 66.5302 39.0778 71.2744 31.8438C74.9017 26.3065 78.3293 20.6495 81.7783 15C83.4378 12.3287 85.1069 9.66382 86.7783 7Z" fill="#18D296"/>
<path d="M97.7782 11C99.7582 11.66 101.738 12.32 103.778 13C103.156 17.4812 101.393 21.1512 99.3407 25.125C98.9894 25.8166 98.6382 26.5082 98.2763 27.2207C95.0803 33.4844 91.7873 39.6975 88.5023 45.9148C84.7813 52.9676 81.1081 60.0395 77.639 67.2202C76.8275 68.8981 76.0006 70.5684 75.1727 72.2383C71.4397 80.3005 69.9557 88.4256 72.8407 97.0625C75.409 100.956 77.3997 101.596 81.7782 103C81.7782 104.98 81.7782 106.96 81.7782 109C76.7912 109.355 72.949 109.585 68.4032 107.312C63.3391 102.851 60.4 98.8143 59.5204 92.0039C58.8694 79.8295 66.3665 68.6539 71.9657 58.3125C72.7362 56.8775 73.5062 55.4423 74.2758 54.0068C81.0953 41.3121 88.0887 28.7359 95.4657 16.3555C96.8926 13.966 96.8926 13.966 97.7782 11Z" fill="#18D296"/>
<path d="M97.7783 11C99.7583 11.66 101.738 12.32 103.778 13C103.183 17.8687 101.054 21.5933 98.7158 25.8125C98.1502 26.8518 98.1502 26.8518 97.5732 27.9121C96.6475 29.6113 95.7137 31.3061 94.7783 33C94.4483 31.68 94.1183 30.36 93.7783 29C93.1183 29 92.4583 29 91.7783 29C91.4483 29.99 91.1183 30.98 90.7783 32C89.7998 33.021 88.7985 34.0206 87.7783 35C87.1183 35.99 86.4583 36.98 85.7783 38C85.7783 34.179 85.9252 33.233 87.6416 30.1016C88.0341 29.3745 88.4266 28.6475 88.8311 27.8984C89.2468 27.1482 89.6625 26.398 90.0908 25.625C90.9 24.1383 91.7086 22.6514 92.5166 21.1641C92.9028 20.458 93.2891 19.7519 93.687 19.0244C95.1127 16.3798 96.4554 13.6972 97.7783 11Z" fill="#18D296"/>
<path d="M101.778 13C102.438 13 103.098 13 103.778 13C103.183 17.8687 101.054 21.5933 98.7159 25.8125C98.3388 26.5054 97.9618 27.1982 97.5733 27.9121C96.6475 29.6113 95.7137 31.3061 94.7784 33C93.9901 30.7046 93.6428 29.4199 94.3992 27.0771C94.7396 26.4278 95.08 25.7784 95.4307 25.1094C95.7949 24.4004 96.159 23.6914 96.5342 22.9609C96.9242 22.2313 97.3141 21.5017 97.7159 20.75C98.1019 20.0049 98.488 19.2598 98.8858 18.4922C99.8393 16.6559 100.807 14.8272 101.778 13Z" fill="#18D296"/>
<path d="M82.7783 16C83.7683 16 84.7583 16 85.7783 16C86.7783 19 86.7783 19 85.5635 21.4805C84.995 22.3738 84.4265 23.2671 83.8408 24.1875C83.2749 25.0886 82.709 25.9896 82.126 26.918C81.6813 27.605 81.2365 28.2921 80.7783 29C79.4583 28.67 78.1383 28.34 76.7783 28C80.3376 19.3559 80.3376 19.3559 82.7783 16Z" fill="#18D296"/>
<path d="M82.7783 16C83.7683 16 84.7583 16 85.7783 16C86.1083 16.99 86.4383 17.98 86.7783 19C84.8408 22.1875 84.8408 22.1875 82.7783 25C82.4483 23.68 82.1183 22.36 81.7783 21C82.4383 21 83.0983 21 83.7783 21C83.4483 19.35 83.1183 17.7 82.7783 16Z" fill="#18D296"/>
<path d="M71.7783 31C73.0983 31.33 74.4183 31.66 75.7783 32C75.4483 34.31 75.1183 36.62 74.7783 39C73.7883 39.33 72.7983 39.66 71.7783 40C71.4483 40.66 71.1183 41.32 70.7783 42C69.7883 42 68.7983 42 67.7783 42C68.0671 41.2987 68.3558 40.5975 68.6533 39.875C69.7997 36.9455 70.8046 33.9908 71.7783 31Z" fill="#18D296"/>
<path d="M70.7783 33C71.1083 33.99 71.4383 34.98 71.7783 36C69.8408 39.1875 69.8408 39.1875 67.7783 42C68.7683 42 69.7583 42 70.7783 42C71.1083 41.01 71.4383 40.02 71.7783 39C72.1083 39.99 72.4383 40.98 72.7783 42C71.3447 44.6992 71.3447 44.6992 69.3408 47.6875C68.3528 49.1783 68.3528 49.1783 67.3447 50.6992C66.8278 51.4585 66.3109 52.2177 65.7783 53C65.1183 52.01 64.4583 51.02 63.7783 50C62.7883 50.33 61.7983 50.66 60.7783 51C60.6546 51.9281 60.5308 52.8562 60.4033 53.8125C59.7783 57 59.7783 57 57.7783 60C57.1183 60 56.4583 60 55.7783 60C55.6752 60.7631 55.5721 61.5263 55.4658 62.3125C54.7103 65.2658 53.9084 65.9587 51.7783 68C51.0638 70.1033 51.0638 70.1033 50.7783 72C49.7883 72 48.7983 72 47.7783 72C49.0973 68.5018 50.6374 65.3396 52.5361 62.1211C53.076 61.2047 53.6159 60.2884 54.1721 59.3442C55.0291 57.9054 55.0291 57.9054 55.9033 56.4375C56.4843 55.4577 57.0652 54.4778 57.6638 53.4683C61.8245 46.4936 66.1272 39.6605 70.7783 33Z" fill="#18D296"/>
<path d="M90.7784 36C91.4384 36 92.0984 36 92.7784 36C91.4678 40.2343 89.8348 44.0741 87.7784 48C86.895 45.5332 86.6472 44.3614 87.5557 41.8594C87.9386 41.1633 88.3214 40.4672 88.7159 39.75C89.0962 39.0436 89.4764 38.3372 89.8682 37.6094C90.1686 37.0783 90.4689 36.5472 90.7784 36Z" fill="#18D296"/>
<path d="M59.7783 39.001C57.7983 41.971 57.7983 41.971 55.7783 45.001C55.4483 44.341 55.1183 43.681 54.7783 43.001C55.1083 42.341 55.4383 41.681 55.7783 41.001C53.7983 41.331 51.8183 41.661 49.7783 42.001C52.9597 38.5166 55.2107 37.5834 59.7783 39.001Z" fill="#18D296"/>
<path d="M98.7783 40C110.728 47.0535 117.631 56.2728 122.778 69C123.273 71.97 123.273 71.97 123.778 75C117.838 75 111.898 75 105.778 75C104.953 73.3088 104.128 71.6175 103.278 69.875C99.9509 63.7271 95.9886 60.1052 89.7783 57C91.1983 53.2407 92.9048 49.77 94.8408 46.25C95.6317 44.8037 95.6317 44.8037 96.4385 43.3281C97.7783 41 97.7783 41 98.7783 40Z" fill="#18D296"/>
<path d="M98.7783 40C100.098 41.32 101.418 42.64 102.778 44C101.458 43.67 100.138 43.34 98.7783 43C98.5966 43.6265 98.4148 44.253 98.2275 44.8984C97.9762 45.7157 97.7248 46.533 97.4658 47.375C97.2222 48.1871 96.9786 48.9992 96.7275 49.8359C95.7783 52 95.7783 52 92.7783 54C92.4483 54.99 92.1183 55.98 91.7783 57C91.1183 57 90.4583 57 89.7783 57C91.1983 53.2407 92.9048 49.77 94.8408 46.25C95.6317 44.8037 95.6317 44.8037 96.4385 43.3281C97.7783 41 97.7783 41 98.7783 40Z" fill="#18D296"/>
<path d="M47.7783 42C48.4383 42.33 49.0983 42.66 49.7783 43C47.6369 46.2122 46.0138 47.0587 42.7783 49C41.7883 50.485 41.7883 50.485 40.7783 52C39.4583 51.67 38.1383 51.34 36.7783 51C40.4083 48.03 44.0383 45.06 47.7783 42Z" fill="#18D296"/>
<path d="M64.7783 49C65.5827 55.2137 62.8195 59.2214 59.7783 64.375C59.3014 65.2064 58.8244 66.0379 58.333 66.8945C57.1594 68.9366 55.9744 70.9711 54.7783 73C54.2158 71.0625 54.2158 71.0625 53.7783 69C54.1083 68.67 54.4383 68.34 54.7783 68C55.0091 66.6525 55.1899 65.2962 55.3408 63.9375C55.4852 62.6381 55.6296 61.3388 55.7783 60C56.4383 60 57.0983 60 57.7783 60C57.9601 59.3735 58.1418 58.747 58.3291 58.1016C58.5805 57.2843 58.8318 56.467 59.0908 55.625C59.3345 54.8129 59.5781 54.0008 59.8291 53.1641C60.816 50.9141 61.9453 49 64.7783 49Z" fill="#18D296"/>
<path d="M76.7783 50C78.1221 54.0312 77.2314 56.0561 75.7783 60C73.6533 62.4375 73.6533 62.4375 71.7783 64C71.1183 63.67 70.4583 63.34 69.7783 63C73.2433 56.565 73.2433 56.565 76.7783 50Z" fill="#18D296"/>
<path d="M111.778 53C115.426 54.4372 116.752 56.0771 118.591 59.5C119.03 60.2941 119.47 61.0881 119.923 61.9062C120.346 62.9427 120.346 62.9427 120.778 64C120.448 64.66 120.118 65.32 119.778 66C118.817 64.5853 117.859 63.1682 116.903 61.75C116.103 60.5666 116.103 60.5666 115.286 59.3594C113.96 57.2844 112.829 55.2239 111.778 53Z" fill="#18D296"/>
<path d="M93.7783 58C99.0063 59.3839 101.728 62.7596 104.778 67C106.337 69.7027 106.778 70.8065 106.778 74C110.738 74 114.698 74 118.778 74C118.778 74.33 118.778 74.66 118.778 75C114.488 75 110.198 75 105.778 75C104.912 73.2881 104.046 71.5762 103.153 69.8125C100.554 65.0037 98.1891 62.1506 93.7783 59C93.7783 58.67 93.7783 58.34 93.7783 58Z" fill="#18D296"/>
<path d="M53.7783 60C54.4383 60 55.0983 60 55.7783 60C55.2617 63.8233 54.5192 65.3733 51.7783 68C51.0638 70.1033 51.0638 70.1033 50.7783 72C49.7883 72 48.7983 72 47.7783 72C49.3447 67.6924 51.4617 63.9383 53.7783 60Z" fill="#18D296"/>
<path d="M29.7783 61C30.9148 64.4093 30.6458 65.0034 29.3408 68.1875C29.0534 68.9029 28.7659 69.6184 28.4697 70.3555C28.2416 70.8982 28.0134 71.4409 27.7783 72C27.1183 71.67 26.4583 71.34 25.7783 71C26.8877 67.5133 28.0417 64.2252 29.7783 61Z" fill="#18D296"/>
<path d="M54.7783 64C55.1083 65.32 55.4383 66.64 55.7783 68C54.7883 68.33 53.7983 68.66 52.7783 69C52.7783 69.66 52.7783 70.32 52.7783 71C51.7883 70.67 50.7983 70.34 49.7783 70C52.5283 65.125 52.5283 65.125 54.7783 64Z" fill="#18D296"/>
<path d="M31.7783 84C32.1908 84.4744 32.6033 84.9487 33.0283 85.4375C34.9605 87.1627 36.2602 87.5658 38.7783 88C39.4383 86.68 40.0983 85.36 40.7783 84C39.9033 88.875 39.9033 88.875 38.7783 90C36.7787 90.0408 34.7779 90.0425 32.7783 90C32.4483 88.02 32.1183 86.04 31.7783 84Z" fill="#18D296"/>
<path d="M104.778 100C110.718 100 116.658 100 122.778 100C121.778 106 121.778 106 119.778 108C120.108 105.69 120.438 103.38 120.778 101C116.158 101 111.538 101 106.778 101C106.118 102.65 105.458 104.3 104.778 106C104.448 106.66 104.118 107.32 103.778 108C102.788 107.67 101.798 107.34 100.778 107C102.098 104.69 103.418 102.38 104.778 100Z" fill="#18D296"/>
<path d="M76.7783 103C78.4283 103 80.0783 103 81.7783 103C81.7783 104.98 81.7783 106.96 81.7783 109C78.4783 109 75.1783 109 71.7783 109C71.7783 108.34 71.7783 107.68 71.7783 107C74.0883 107 76.3983 107 78.7783 107C78.1183 105.68 77.4583 104.36 76.7783 103Z" fill="#18D296"/>
<path d="M56.7783 110C57.2514 110.398 57.7245 110.797 58.2119 111.207C65.8899 117.358 73.0835 119.231 82.7783 120C82.7783 120.33 82.7783 120.66 82.7783 121C73.641 121.297 66.1818 121.026 58.7783 115C57.4033 112.25 57.4033 112.25 56.7783 110Z" fill="#18D296"/>
<path d="M30.7783 113C34.4947 114.482 36.091 116.475 38.4033 119.688C42.4935 125.005 47.1073 128.49 52.7783 132C46.566 132 41.1596 126.568 36.9033 122.375C30.7783 115.937 30.7783 115.937 30.7783 113Z" fill="#18D296"/>
<path d="M87.7783 118C87.7783 118.66 87.7783 119.32 87.7783 120C82.9853 121.392 78.627 120.687 73.7783 120C73.7783 119.67 73.7783 119.34 73.7783 119C75.549 118.832 77.3199 118.665 79.0908 118.5C80.077 118.407 81.0631 118.314 82.0791 118.219C84.7783 118 84.7783 118 87.7783 118Z" fill="#18D296"/>
<path d="M103.778 126C104.438 126.33 105.098 126.66 105.778 127C95.9648 136.137 82.859 138.634 69.9229 138.336C63.8888 138.006 58.4033 136.158 52.7783 134C56.4744 132.839 58.8149 133.47 62.5347 134.489C75.4267 137.426 88.5651 135.311 99.8994 128.777C101.712 127.643 101.712 127.643 103.778 126Z" fill="#18D296"/>
<path d="M52.7783 133C54.2162 133.142 55.6536 133.289 57.0908 133.438C57.8913 133.519 58.6918 133.6 59.5166 133.684C61.7783 134 61.7783 134 64.7783 135C64.7783 135.66 64.7783 136.32 64.7783 137C60.5836 136.401 56.7683 135.425 52.7783 134C52.7783 133.67 52.7783 133.34 52.7783 133Z" fill="#18D296"/>
</svg>
