<svg width="546" height="153" viewBox="0 0 546 153" fill="none" xmlns="http://www.w3.org/2000/svg">
<g clip-path="url(#clip0_1175_572)">
<path d="M74 10C75.32 10.66 76.64 11.32 78 12C77.4332 16.4677 75.5968 19.7486 73.25 23.5C72.8566 24.1431 72.4632 24.7862 72.0579 25.4487C69.7051 29.2841 67.3158 33.0969 64.9336 36.9141C59.3097 45.934 53.7538 54.982 48.4375 64.1875C47.9492 65.0236 47.4609 65.8597 46.9578 66.7212C41.9529 75.4733 38.2447 83.3329 38.4375 93.5625C38.4484 94.3917 38.4594 95.2209 38.4707 96.0752C38.744 103.774 40.5581 108.49 45.9726 114.012C53.0724 120.554 58.4835 121.553 67.9414 121.305C75.4209 120.886 80.8289 118.658 85.9375 113.125C88.6465 109.837 90.0079 106.984 92 103C97.94 103 103.88 103 110 103C107.981 115.112 101.328 124.512 91.4805 131.887C78.4817 140.013 64.6134 143.121 49.4492 140.352C34.9239 136.281 23.6314 127.485 16.25 114.387C10.0002 102.453 8.73737 87.4969 11.8711 74.3438C13.0535 71.3974 14.4012 68.7408 16 66C16.4847 65.0719 16.9694 64.1438 17.4687 63.1875C23.0647 53.3123 32.3051 45.0106 43 41C45.2187 41.418 45.2187 41.418 47 42C46.6335 42.6223 46.267 43.2446 45.8894 43.8857C39.3786 54.9554 32.8928 66.0405 26.625 77.25C26.1554 78.076 25.6857 78.9019 25.2019 79.7529C24.7769 80.5202 24.3519 81.2876 23.9141 82.0781C23.5423 82.7423 23.1706 83.4065 22.7876 84.0908C21.7458 86.2721 21.7458 86.2721 22 90C23.32 90.33 24.64 90.66 26 91C26.261 90.1323 26.5221 89.2646 26.791 88.3706C28.0092 84.9742 29.4953 82.1642 31.3437 79.0703C32.0078 77.9536 32.6718 76.8369 33.3559 75.6863C34.0703 74.499 34.785 73.3119 35.5 72.125C36.2345 70.8971 36.9687 69.669 37.7026 68.4407C43.0221 59.5553 48.432 50.7318 54 42C54.5546 41.1297 55.1092 40.2594 55.6807 39.3628C56.5851 37.9438 56.5851 37.9438 57.5078 36.4961C58.1264 35.5252 58.745 34.5543 59.3823 33.554C60.5879 31.6633 61.7951 29.7738 63.0044 27.8855C66.7746 21.9842 70.4293 16.0241 74 10Z" fill="#18D296"/>
<path d="M403.313 66.1245C408.667 69.8604 412.142 74.7537 414 80.9995C414.413 84.3024 414.42 87.5496 414.375 90.8745C414.387 91.7214 414.398 92.5683 414.41 93.4409C414.377 100.756 413.204 108.322 408.125 113.937C407.653 114.482 407.181 115.028 406.695 115.589C402.251 119.286 397.342 119.505 391.785 119.363C387.258 118.772 384.196 117.261 381 113.999C374.642 104.328 373.476 93.3928 375.531 82.0737C377.344 75.5833 379.988 69.5694 386 65.9995C391.682 64.2559 397.702 64.2189 403.313 66.1245Z" fill="#18D296"/>
<path d="M165 77.0006C168.3 77.0006 171.6 77.0006 175 77.0006C175.33 78.6506 175.66 80.3006 176 82.0006C176.743 81.1756 177.485 80.3506 178.25 79.5006C182.209 76.2013 186.164 76.2914 191.152 76.5201C195.625 77.2747 197.096 78.5012 200 82.0006C204.299 88.593 203.737 96.381 203 104.001C201.161 110.838 197.87 115.087 192 119.001C189.477 119.337 189.477 119.337 186.625 119.376C185.221 119.418 185.221 119.418 183.789 119.462C181 119.001 181 119.001 176 115.001C175.67 121.931 175.34 128.861 175 136.001C171.7 136.001 168.4 136.001 165 136.001C165 116.531 165 97.0606 165 77.0006Z" fill="#EFF0EF"/>
<path d="M141.5 76.6875C142.234 76.6714 142.967 76.6553 143.723 76.6387C148.55 76.6344 151.798 77.3933 156 80C160.232 84.5237 160.123 88.9559 160.098 94.9531C160.096 95.6134 160.095 96.2736 160.093 96.9538C160.088 99.0526 160.075 101.151 160.063 103.25C160.058 104.677 160.053 106.104 160.049 107.531C160.038 111.021 160.021 114.51 160 118C157.03 118 154.06 118 151 118C151 116.35 151 114.7 151 113C150.34 113 149.68 113 149 113C148.67 113.99 148.34 114.98 148 116C143.214 119.676 138.883 119.551 133.047 119.426C130 119 130 119 126.75 116.688C123.702 112.007 123.152 107.46 124 102C125.941 98.4473 128.643 96.238 132 94C135.8 92.9706 139.389 92.8944 143.313 92.9375C144.916 92.9511 144.916 92.9511 146.551 92.9649C147.359 92.9765 148.167 92.9881 149 93C148.401 90.6483 147.731 88.3141 147 86C144.536 84.7682 142.811 84.8327 140.063 84.8125C138.75 84.7912 138.75 84.7912 137.41 84.7695C134.738 84.8334 134.738 84.8334 132 87C131.01 87 130.02 87 129 87C127.743 84.094 127 82.204 127 79C131.972 77.0254 136.237 76.6644 141.5 76.6875Z" fill="#F0F1F0"/>
<path d="M283.687 78.6882C287.123 82.1239 288.862 84.5841 289.341 89.5059C289.317 91.4775 289.317 91.4775 289.293 93.489C289.289 94.1922 289.284 94.8954 289.28 95.6199C289.263 97.8514 289.226 100.082 289.187 102.313C289.172 103.832 289.159 105.351 289.146 106.87C289.114 110.58 289.062 114.291 289 118.001C286.03 118.001 283.06 118.001 280 118.001C280 116.351 280 114.701 280 113.001C279.34 113.001 278.68 113.001 278 113.001C277.752 113.619 277.505 114.238 277.25 114.876C275.714 117.487 274.811 117.923 272 119.001C268.941 119.337 268.941 119.337 265.562 119.376C263.894 119.418 263.894 119.418 262.191 119.462C258.335 118.905 256.724 117.739 254 115.001C252.544 110.633 252.389 106.562 253 102.001C255.621 97.495 258.537 95.1002 263.531 93.4578C268.639 92.5121 273.83 92.788 279 93.0007C277.731 88.1763 277.731 88.1763 274 85.0007C268.388 84.3439 263.235 84.7963 258 87.0007C256.743 84.0947 256 82.2047 256 79.0007C264.093 76.9122 276.13 74.0334 283.687 78.6882Z" fill="#F1F1F0"/>
<path d="M462 66C471.9 66 481.8 66 492 66C492 68.31 492 70.62 492 73C484.41 73 476.82 73 469 73C469.33 76.96 469.66 80.92 470 85C470.869 84.9652 471.738 84.9304 472.633 84.8945C484.488 84.6161 484.488 84.6161 489 88C492.928 91.9383 495.106 95.5146 495.438 101.125C495.372 106.889 492.815 110.82 489 115C482.168 119.372 474.941 119.748 467 119C463.505 117.96 460.265 116.618 457 115C457.33 113.35 457.66 111.7 458 110C460.527 109.064 461.613 108.829 464.125 109.938C468.857 111.686 474.499 112.021 479.23 110.09C481.589 108.637 482.144 107.639 483 105C483.538 100.77 483.443 98.7185 481.188 95.0625C476.545 92.0588 472.383 92.4587 467 93C466.103 93.214 465.206 93.428 464.281 93.6484C463.152 93.8225 463.152 93.8225 462 94C460 92 460 92 459.734 89.9258C459.783 81.7979 460.821 74.0335 462 66Z" fill="#18D296"/>
<path d="M84.9999 14C86.9799 14.66 88.9599 15.32 90.9999 16C90.378 20.4812 88.6145 24.1512 86.5624 28.125C86.2111 28.8166 85.8598 29.5082 85.4979 30.2207C82.3019 36.4844 79.009 42.6975 75.724 48.9148C72.003 55.9676 68.3298 63.0395 64.8607 70.2202C64.0492 71.8981 63.2223 73.5684 62.3944 75.2383C58.6613 83.3005 57.1774 91.4256 60.0624 100.062C62.6307 103.956 64.6214 104.596 68.9999 106C68.9999 107.98 68.9999 109.96 68.9999 112C64.0128 112.355 60.1707 112.585 55.6249 110.312C50.5607 105.851 47.6217 101.814 46.7421 95.0039C46.091 82.8295 53.5881 71.6539 59.1874 61.3125C59.9578 59.8775 60.7279 58.4423 61.4974 57.0068C68.317 44.3121 75.3103 31.7359 82.6874 19.3555C84.1143 16.966 84.1143 16.966 84.9999 14Z" fill="#18D296"/>
<path d="M363.625 66.6872C366.874 68.668 368.718 70.3148 370 73.9997C370.935 80.8489 370.058 86.3577 366 91.9997C361.708 96.9277 356.768 101.176 351.762 105.359C349.631 107.247 349.631 107.247 347 111C354.59 111 362.18 111 370 111C370 113.31 370 115.62 370 118C358.45 118 346.9 118 335 118C335 111 335 111 336.25 109.003C336.827 108.481 337.405 107.959 338 107.422C338.637 106.824 339.273 106.226 339.929 105.61C340.613 104.996 341.296 104.382 342 103.75C343.381 102.435 344.758 101.114 346.129 99.7888C347.129 98.8244 347.129 98.8244 348.149 97.8406C353.245 92.773 358.374 87.4492 358.625 79.9372C358.396 76.004 358.396 76.004 356 73.9997C350.066 73.1911 346.032 73.744 341 76.9997C338.812 76.4372 338.812 76.4372 337 74.9997C336.299 73.6841 335.628 72.3519 335 70.9997C336.268 70.1833 337.54 69.3718 338.812 68.5622C339.52 68.1098 340.228 67.6573 340.957 67.1912C347.377 63.4471 356.947 63.6031 363.625 66.6872Z" fill="#18D296"/>
<path d="M446.188 66.2503C449.087 68.0546 450.301 69.0832 452 72.0003C452.434 75.2425 452.434 75.2425 452.438 78.8753C452.457 80.0689 452.476 81.2626 452.496 82.4925C451.373 90.4305 444.804 95.41 439.312 100.75C437.765 102.264 436.219 103.779 434.676 105.297C433.994 105.961 433.313 106.624 432.611 107.308C430.917 108.922 430.917 108.922 430 111C437.59 111 445.18 111 453 111C453 113.31 453 115.62 453 118C441.45 118 429.9 118 418 118C418 115.69 418 113.38 418 111C419.485 110.505 419.485 110.505 421 110C421.705 108.687 422.368 107.35 423 106C424.449 104.28 424.449 104.28 426.117 102.574C426.724 101.942 427.331 101.31 427.957 100.658C429.226 99.3546 430.497 98.0525 431.77 96.7522C436.021 92.3167 440.246 87.8671 441.461 81.637C441.407 77.3563 441.407 77.3563 439 74.0003C436.47 73.6422 436.47 73.6422 433.625 73.6878C432.669 73.671 431.712 73.6543 430.727 73.637C427.64 74.0482 426.288 74.9453 424 77.0003C420.521 75.6087 419.519 74.3678 418 71.0003C426.385 64.509 435.98 62.3791 446.188 66.2503Z" fill="#18D296"/>
<path d="M239 67.9997C239 71.2997 239 74.5997 239 77.9997C241.97 77.9997 244.94 77.9997 248 77.9997C248 80.3097 248 82.6197 248 84.9997C245.03 84.9997 242.06 84.9997 239 84.9997C239.138 89.1458 239.287 93.2915 239.438 97.4372C239.477 98.6212 239.516 99.8052 239.557 101.025C239.599 102.15 239.64 103.274 239.684 104.433C239.72 105.475 239.757 106.518 239.795 107.591C239.735 109.95 239.735 109.95 241 111C242.525 110.91 244.047 110.754 245.562 110.562C246.389 110.46 247.215 110.358 248.066 110.254C248.704 110.17 249.343 110.086 250 110C251.354 112.708 251.065 115.009 251 118C247.709 119.097 245.089 119.237 241.625 119.312C239.943 119.368 239.943 119.368 238.227 119.425C234.299 118.907 232.765 117.789 230 115C227.838 111.621 227.766 108.888 227.805 104.922C227.811 103.761 227.818 102.601 227.824 101.406C227.841 100.199 227.858 98.9928 227.875 97.7497C227.884 96.5276 227.893 95.3056 227.902 94.0465C227.926 91.0307 227.959 88.0153 228 84.9997C225.69 84.9997 223.38 84.9997 221 84.9997C221 82.6897 221 80.3797 221 77.9997C223.64 77.9997 226.28 77.9997 229 77.9997C228.938 76.7209 228.876 75.4422 228.812 74.1247C228.707 71.945 228.707 71.945 229 69.9997C232.644 67.5702 234.712 67.8379 239 67.9997Z" fill="#ECEDEC"/>
<path d="M295 60C298.3 60 301.6 60 305 60C305.33 76.5 305.66 93 306 110C307.98 110.33 309.96 110.66 312 111C312.33 113.31 312.66 115.62 313 118C308.968 120.688 305.736 120.674 301 120C296.876 117.631 295.466 115.429 294 111C293.753 108.507 293.753 108.507 293.757 105.858C293.754 104.861 293.751 103.864 293.748 102.836C293.759 101.239 293.759 101.239 293.77 99.6094C293.77 98.509 293.77 97.4087 293.771 96.275C293.774 93.9551 293.782 91.6353 293.794 89.3154C293.813 85.7493 293.815 82.1834 293.814 78.6172C293.819 76.3646 293.825 74.112 293.832 71.8594C293.833 70.7865 293.834 69.7137 293.835 68.6083C293.842 67.6235 293.848 66.6387 293.855 65.624C293.859 64.7531 293.862 63.8821 293.866 62.9848C294 61 294 61 295 60Z" fill="#E8E9E8"/>
<path d="M392 71C395.327 71.1815 397.983 71.3334 400.813 73.1875C404.291 78.4971 404.352 84.1305 404.313 90.25C404.308 91.5115 404.308 91.5115 404.304 92.7986C404.191 99.5404 404.013 106.987 399 112C391.935 112.561 391.935 112.561 389.125 110.875C385.37 104.617 385.634 98.0703 385.625 91C385.601 89.9327 385.576 88.8653 385.551 87.7656C385.527 81.5073 385.797 77.7494 390 73C390.66 72.34 391.32 71.68 392 71Z" fill="#050505"/>
<path d="M86 43C97.9495 50.0535 104.852 59.2728 110 72C110.495 74.97 110.495 74.97 111 78C105.06 78 99.12 78 93 78C92.175 76.3088 91.35 74.6175 90.5 72.875C87.1725 66.7271 83.2103 63.1052 77 60C78.42 56.2407 80.1265 52.77 82.0625 49.25C82.8533 47.8037 82.8533 47.8037 83.6602 46.3281C85 44 85 44 86 43Z" fill="#18D296"/>
<path d="M189 85.0008C192.279 87.8803 192.826 89.542 193.336 93.825C193.535 99.9382 193.112 104.698 190 110.001C186.262 112.492 184.427 112.459 180 112.001C177.305 110.505 177.305 110.505 175 108.001C174.542 104.965 174.387 102.576 174.5 99.5633C174.497 98.8124 174.495 98.0615 174.492 97.2879C174.572 92.7421 175.097 89.6937 178 86.0008C181.503 84.2492 185.186 84.3301 189 85.0008Z" fill="#050505"/>
<path d="M208 78C211.3 78 214.6 78 218 78C218 91.2 218 104.4 218 118C214.7 118 211.4 118 208 118C208 104.8 208 91.6 208 78Z" fill="#F3F3F3"/>
<path d="M74 10C75.32 10.66 76.64 11.32 78 12C77.4333 16.4673 75.5976 19.7492 73.25 23.5C72.6697 24.445 72.6697 24.445 72.0776 25.4092C71.2116 26.8171 70.3421 28.2229 69.4697 29.627C67.8394 32.2592 66.2279 34.9026 64.6172 37.5469C63.4537 39.4482 62.2896 41.3493 61.125 43.25C60.5659 44.1672 60.0067 45.0843 59.4307 46.0293C58.8992 46.891 58.3678 47.7528 57.8203 48.6406C57.3487 49.4092 56.877 50.1778 56.3911 50.9697C55.0754 52.89 53.7026 54.4211 52 56C51.67 55.01 51.34 54.02 51 53C49.515 53.495 49.515 53.495 48 54C47.8762 54.9281 47.7525 55.8562 47.625 56.8125C47 60 47 60 45 63C44.34 63 43.68 63 43 63C42.8969 63.7631 42.7938 64.5263 42.6875 65.3125C41.932 68.2658 41.1301 68.9587 39 71C38.2855 73.1033 38.2855 73.1033 38 75C37.01 75 36.02 75 35 75C36.2973 71.5694 37.7905 68.455 39.6523 65.2969C40.1761 64.4073 40.6999 63.5178 41.2395 62.6013C42.08 61.1899 42.08 61.1899 42.9375 59.75C43.5165 58.7736 44.0956 57.7972 44.6921 56.7913C49.1256 49.3613 53.7519 42.0778 58.4961 34.8438C62.1233 29.3065 65.551 23.6495 69 18C70.6594 15.3287 72.3286 12.6638 74 10Z" fill="#18D296"/>
<path d="M150 98.0001C150.362 101.077 150.487 103.933 150 107C146.899 110.706 145.103 111.85 140.312 112.5C137 112 137 112 135.062 110.875C133.45 108.03 133.476 106.209 134 103C138.75 97.9784 143.402 97.8467 150 98.0001Z" fill="#050505"/>
<path d="M273.25 98.7507C274.328 98.7868 275.405 98.8228 276.516 98.86C277.745 98.9296 277.745 98.9296 279 99.0007C279.325 103.141 279.43 105.341 277.125 108.876C274.335 111.666 273.556 111.96 269.562 112.251C266 112.001 266 112.001 264.062 110.876C262.47 108.066 262.547 106.173 263 103.001C266.073 98.9161 268.254 98.5335 273.25 98.7507Z" fill="#050505"/>
<path d="M85 14C86.98 14.66 88.96 15.32 91 16C90.4044 20.8687 88.2752 24.5933 85.9375 28.8125C85.3719 29.8518 85.3719 29.8518 84.7949 30.9121C83.8692 32.6113 82.9354 34.3061 82 36C81.67 34.68 81.34 33.36 81 32C80.34 32 79.68 32 79 32C78.67 32.99 78.34 33.98 78 35C77.0215 36.021 76.0202 37.0206 75 38C74.34 38.99 73.68 39.98 73 41C73 37.179 73.1469 36.233 74.8633 33.1016C75.2558 32.3745 75.6483 31.6475 76.0527 30.8984C76.4685 30.1482 76.8842 29.398 77.3125 28.625C78.1217 27.1383 78.9303 25.6514 79.7383 24.1641C80.1245 23.458 80.5108 22.7519 80.9087 22.0244C82.3343 19.3798 83.6771 16.6972 85 14Z" fill="#18D296"/>
<path d="M459 109C461.793 109.441 464.313 110.104 467 111C468.644 111.093 470.291 111.13 471.938 111.125C472.792 111.128 473.647 111.13 474.527 111.133C476.827 111.009 478.796 110.644 481 110C481 110.66 481 111.32 481 112C478.099 113.934 477.103 114.301 473.812 114.625C472.554 114.749 471.296 114.873 470 115C470 115.33 470 115.66 470 116C476.406 116.209 481.93 116.158 488 114C488 114.66 488 115.32 488 116C479.084 119.783 470.37 120.625 461.25 117C459.824 116.354 458.403 115.695 457 115C457.875 110.125 457.875 110.125 459 109Z" fill="#18D296"/>
<path d="M58 36C58.33 36.99 58.66 37.98 59 39C57.0625 42.1875 57.0625 42.1875 55 45C55.99 45 56.98 45 58 45C58.33 44.01 58.66 43.02 59 42C59.33 42.99 59.66 43.98 60 45C58.5664 47.6992 58.5664 47.6992 56.5625 50.6875C55.5744 52.1783 55.5744 52.1783 54.5664 53.6992C54.0495 54.4585 53.5326 55.2177 53 56C52.34 55.01 51.68 54.02 51 53C50.01 53.33 49.02 53.66 48 54C47.8762 54.9281 47.7525 55.8562 47.625 56.8125C47 60 47 60 45 63C44.34 63 43.68 63 43 63C42.8969 63.7631 42.7938 64.5263 42.6875 65.3125C41.932 68.2658 41.1301 68.9587 39 71C38.2855 73.1033 38.2855 73.1033 38 75C37.01 75 36.02 75 35 75C36.319 71.5018 37.859 68.3396 39.7578 65.1211C40.2977 64.2047 40.8376 63.2884 41.3938 62.3442C42.2507 60.9054 42.2507 60.9054 43.125 59.4375C43.706 58.4577 44.2869 57.4778 44.8855 56.4683C49.0462 49.4936 53.3489 42.6605 58 36Z" fill="#18D296"/>
<path d="M411 103C411.66 103 412.32 103 413 103C412.328 108.71 409.655 112.506 405.438 116.312C400.392 119.805 394.929 119.519 389 119C385.812 117.5 385.812 117.5 384 116C386.573 115.142 387.88 114.971 390.562 115.625C391.367 115.749 392.171 115.873 393 116C394.023 115.024 395.019 114.019 396 113C402.092 110.674 402.092 110.674 405.438 111.875C405.953 112.246 406.469 112.618 407 113C407.124 112.196 407.248 111.391 407.375 110.562C407.684 109.294 407.684 109.294 408 108C408.66 107.67 409.32 107.34 410 107C410.652 104.975 410.652 104.975 411 103Z" fill="#18D296"/>
<path d="M216 61.0001C217.938 62.0626 217.938 62.0626 219 64.0001C218.875 67.5626 218.875 67.5626 218 71.0001C214.779 73.1477 213.74 73.5612 210 73.0001C207.714 70.8722 207.077 69.526 206.625 66.4376C207 64.0001 207 64.0001 208.125 62.1876C210.872 60.4481 212.818 60.6024 216 61.0001Z" fill="#EAEAE8"/>
<path d="M419 110C419.66 110.33 420.32 110.66 421 111C420.67 112.65 420.34 114.3 420 116C430.23 116 440.46 116 451 116C451 114.68 451 113.36 451 112C444.07 112 437.14 112 430 112C430 111.67 430 111.34 430 111C437.59 111 445.18 111 453 111C453 113.31 453 115.62 453 118C441.45 118 429.9 118 418 118C418 111 418 111 419 110Z" fill="#18D296" fill-opacity="0.6"/>
<path d="M347 111C354.59 111 362.18 111 370 111C370 113.31 370 115.62 370 118C358.45 118 346.9 118 335 118C335 117.34 335 116.68 335 116C345.89 116 356.78 116 368 116C368 114.68 368 113.36 368 112C361.07 112 354.14 112 347 112C347 111.67 347 111.34 347 111Z" fill="#18D296"/>
<path d="M91 129C91.66 129.33 92.32 129.66 93 130C83.1865 139.137 70.0807 141.634 57.1445 141.336C51.1105 141.006 45.6249 139.158 40 137C43.6961 135.839 46.0366 136.47 49.7563 137.489C62.6484 140.426 75.7868 138.311 87.1211 131.777C88.934 130.643 88.934 130.643 91 129Z" fill="#18D296"/>
<path d="M462 66C471.9 66 481.8 66 492 66C492 68.31 492 70.62 492 73C484.41 73 476.82 73 469 73C469 72.67 469 72.34 469 72C475.93 72 482.86 72 490 72C490 70.68 490 69.36 490 68C481.09 68 472.18 68 463 68C462.67 68.99 462.34 69.98 462 71C462 69.35 462 67.7 462 66Z" fill="#18D296"/>
<path d="M470.133 67.8867C471.049 67.892 471.966 67.8972 472.91 67.9026C473.9 67.9058 474.889 67.909 475.908 67.9124C476.949 67.9207 477.99 67.9291 479.062 67.9377C480.63 67.9445 480.63 67.9445 482.229 67.9514C484.819 67.9632 487.41 67.9797 490 68.0002C490 69.3202 490 70.6402 490 72.0002C483.07 72.0002 476.14 72.0002 469 72.0002C469 71.3402 469 70.6802 469 70.0002C468.34 69.6702 467.68 69.3402 467 69.0002C468 68.0002 468 68.0002 470.133 67.8867Z" fill="#18D296"/>
<path d="M444.449 65.6911C446.375 66.4997 446.375 66.4997 449 67.9997C448.67 68.6597 448.34 69.3197 448 69.9997C447.031 69.5047 446.061 69.0097 445.062 68.4997C440.151 66.4162 435.085 65.9635 429.977 67.6794C428.303 68.4207 426.65 69.2076 425 69.9997C424.01 69.9997 423.02 69.9997 422 69.9997C422 70.9897 422 71.9797 422 72.9997C424.763 72.477 427.326 71.891 430 70.9997C431.394 70.933 432.792 70.9143 434.188 70.9372C436.075 70.9681 436.075 70.9681 438 70.9997C438 71.3297 438 71.6597 438 71.9997C436.987 72.164 436.987 72.164 435.953 72.3317C434.615 72.5695 434.615 72.5695 433.25 72.8122C431.927 73.0384 431.927 73.0384 430.578 73.2692C427.809 74.0538 426.174 75.1456 424 76.9997C420.521 75.6081 419.519 74.3672 418 70.9997C426.103 64.7267 434.412 62.8576 444.449 65.6911Z" fill="#18D296"/>
<path d="M359 64.9995C359.99 65.6595 360.98 66.3195 362 66.9995C361.203 66.9763 360.407 66.9531 359.586 66.9292C351.564 66.6617 351.564 66.6617 344 68.9995C343.01 70.4845 343.01 70.4845 342 71.9995C342.66 72.3295 343.32 72.6595 344 72.9995C344 73.6595 344 74.3195 344 74.9995C342.35 75.6595 340.7 76.3195 339 76.9995C337.68 75.6795 336.36 74.3595 335 72.9995C336.206 69.3818 336.976 69.0703 340.25 67.312C346.346 64.3915 352.347 64.113 359 64.9995Z" fill="#18D296"/>
<path d="M461 78C461.33 78 461.66 78 462 78C462.33 82.29 462.66 86.58 463 91C464.32 90.67 465.64 90.34 467 90C472.877 89.4957 478.08 89.3415 483 93C483.875 95.6875 483.875 95.6875 484 98C483.237 97.175 482.474 96.35 481.688 95.5C477.916 92.3211 474.445 92.551 469.684 92.7266C466.974 92.9427 466.974 92.9427 464.285 93.6484C463.531 93.7645 462.777 93.8805 462 94C460 92 460 92 459.77 89.5039C459.784 88.5332 459.798 87.5626 459.812 86.5625C459.819 85.5944 459.825 84.6263 459.832 83.6289C460 81 460 81 461 78Z" fill="#18D296"/>
<path d="M52 52C52.8044 58.2137 50.0412 62.2214 47 67.375C46.523 68.2064 46.0461 69.0379 45.5547 69.8945C44.3811 71.9366 43.1961 73.9711 42 76C41.4375 74.0625 41.4375 74.0625 41 72C41.33 71.67 41.66 71.34 42 71C42.2308 69.6525 42.4115 68.2962 42.5625 66.9375C42.7069 65.6381 42.8512 64.3388 43 63C43.66 63 44.32 63 45 63C45.1818 62.3735 45.3635 61.747 45.5508 61.1016C45.8021 60.2843 46.0535 59.467 46.3125 58.625C46.5561 57.8129 46.7998 57.0008 47.0508 56.1641C48.0377 53.9141 49.167 52 52 52Z" fill="#18D296"/>
<path d="M470 85C484.239 84.4295 484.239 84.4295 489 88C493.019 92.0304 495.124 95.5698 495.312 101.312C495.289 106.07 493.98 108.368 491 112C490.67 111.34 490.34 110.68 490 110C490.66 109.01 491.32 108.02 492 107C492.59 102.049 492.645 97.4652 490.625 92.875C489.126 90.9033 489.126 90.9033 487 90C487 89.34 487 88.68 487 88C481.033 86.674 475.074 86.9115 469 87C469.33 86.34 469.66 85.68 470 85Z" fill="#18D296"/>
<path d="M405 66.9996C404.34 67.6596 403.68 68.3196 403 68.9996C402.67 68.6696 402.34 68.3396 402 67.9996C399.65 67.7643 397.294 67.5857 394.938 67.4371C393.647 67.3533 392.357 67.2695 391.027 67.1832C389.529 67.0923 389.529 67.0923 388 66.9996C387.745 67.5925 387.49 68.1855 387.227 68.7965C385.882 71.2118 384.508 72.5117 382.375 74.2496C381.743 74.7704 381.112 75.2911 380.461 75.8277C379.979 76.2144 379.497 76.6011 379 76.9996C379.3 73.4994 379.957 72.0505 382.25 69.3121C388.599 63.9735 397.53 63.0157 405 66.9996Z" fill="#18D296"/>
<path d="M376 84C376.33 84 376.66 84 377 84C377.037 85.2671 377.075 86.5343 377.113 87.8398C377.179 89.5391 377.245 91.2383 377.312 92.9375C377.335 93.7683 377.358 94.5991 377.381 95.4551C377.624 101.124 378.16 106.973 381 112C383.019 113.273 383.019 113.273 385 114C384.34 114.66 383.68 115.32 383 116C376.553 108.663 374.855 101.268 374.875 91.75C374.872 90.5073 374.87 89.2647 374.867 87.9844C375 85 375 85 376 84Z" fill="#18D296"/>
<path d="M70 19C70.99 19 71.98 19 73 19C74 22 74 22 72.7852 24.4805C72.2167 25.3738 71.6482 26.2671 71.0625 27.1875C70.4966 28.0886 69.9307 28.9896 69.3477 29.918C68.9029 30.605 68.4582 31.2921 68 32C66.68 31.67 65.36 31.34 64 31C67.5593 22.3559 67.5593 22.3559 70 19Z" fill="#18D296"/>
<path d="M18 116C21.7163 117.482 23.3127 119.475 25.625 122.688C29.7151 128.005 34.329 131.49 40 135C33.7877 135 28.3812 129.568 24.125 125.375C18 118.937 18 118.937 18 116Z" fill="#18D296"/>
<path d="M81 61C86.228 62.3839 88.9494 65.7596 92 70C93.5584 72.7027 94 73.8065 94 77C97.96 77 101.92 77 106 77C106 77.33 106 77.66 106 78C101.71 78 97.42 78 93 78C92.1338 76.2881 91.2675 74.5762 90.375 72.8125C87.7757 68.0037 85.4108 65.1506 81 62C81 61.67 81 61.34 81 61Z" fill="#18D296"/>
<path d="M92 103C97.94 103 103.88 103 110 103C109 109 109 109 107 111C107.33 108.69 107.66 106.38 108 104C103.38 104 98.76 104 94 104C93.34 105.65 92.68 107.3 92 109C91.67 109.66 91.34 110.32 91 111C90.01 110.67 89.02 110.34 88 110C89.32 107.69 90.64 105.38 92 103Z" fill="#18D296"/>
<path d="M86 43C87.32 44.32 88.64 45.64 90 47C88.68 46.67 87.36 46.34 86 46C85.8182 46.6265 85.6365 47.253 85.4492 47.8984C85.1979 48.7157 84.9465 49.533 84.6875 50.375C84.4439 51.1871 84.2002 51.9992 83.9492 52.8359C83 55 83 55 80 57C79.67 57.99 79.34 58.98 79 60C78.34 60 77.68 60 77 60C78.42 56.2407 80.1265 52.77 82.0625 49.25C82.8533 47.8037 82.8533 47.8037 83.6602 46.3281C85 44 85 44 86 43Z" fill="#18D296"/>
<path d="M44 113C44.4731 113.398 44.9462 113.797 45.4336 114.207C53.1116 120.358 60.3051 122.231 70 123C70 123.33 70 123.66 70 124C60.8627 124.297 53.4034 124.026 46 118C44.625 115.25 44.625 115.25 44 113Z" fill="#18D296"/>
<path d="M59 34C60.32 34.33 61.64 34.66 63 35C62.67 37.31 62.34 39.62 62 42C61.01 42.33 60.02 42.66 59 43C58.67 43.66 58.34 44.32 58 45C57.01 45 56.02 45 55 45C55.2887 44.2987 55.5775 43.5975 55.875 42.875C57.0213 39.9455 58.0263 36.9908 59 34Z" fill="#18D296"/>
<path d="M89 16C89.66 16 90.32 16 91 16C90.4045 20.8687 88.2753 24.5933 85.9375 28.8125C85.5605 29.5054 85.1834 30.1982 84.795 30.9121C83.8692 32.6113 82.9354 34.3061 82 36C81.2118 33.7046 80.8645 32.4199 81.6209 30.0771C81.9613 29.4278 82.3017 28.7784 82.6524 28.1094C83.0165 27.4004 83.3807 26.6914 83.7559 25.9609C84.1458 25.2313 84.5358 24.5017 84.9375 23.75C85.3236 23.0049 85.7097 22.2598 86.1075 21.4922C87.0609 19.6559 88.0291 17.8272 89 16Z" fill="#18D296"/>
<path d="M404 114C404.99 114.33 405.98 114.66 407 115C401.339 119.49 396.037 119.616 389 119C385.812 117.5 385.812 117.5 384 116C387.75 114.875 387.75 114.875 390 116C390 116.66 390 117.32 390 118C396.93 117.01 396.93 117.01 404 116C404 115.34 404 114.68 404 114Z" fill="#18D296"/>
<path d="M64 106C65.65 106 67.3 106 69 106C69 107.98 69 109.96 69 112C65.7 112 62.4 112 59 112C59 111.34 59 110.68 59 110C61.31 110 63.62 110 66 110C65.34 108.68 64.68 107.36 64 106Z" fill="#18D296"/>
<path d="M64 53C65.3437 57.0312 64.453 59.0561 63 63C60.875 65.4375 60.875 65.4375 59 67C58.34 66.67 57.68 66.34 57 66C60.465 59.565 60.465 59.565 64 53Z" fill="#18D296"/>
<path d="M438 71.0002C438 71.3302 438 71.6602 438 72.0002C437.325 72.1098 436.649 72.2193 435.953 72.3322C435.061 72.4908 434.169 72.6493 433.25 72.8127C432.368 72.9635 431.487 73.1143 430.578 73.2697C427.809 74.0543 426.174 75.1462 424 77.0002C422.68 76.3402 421.36 75.6802 420 75.0002C420.33 74.0102 420.66 73.0202 421 72.0002C421.557 72.2064 422.114 72.4127 422.688 72.6252C425.041 73.2154 425.041 73.2154 427.25 72.0627C430.987 70.6189 434.007 70.8649 438 71.0002Z" fill="#18D296"/>
<path d="M405 68C409.519 71.0535 411.305 73.8272 413 79C413.188 82.4375 413.188 82.4375 413 85C412.67 85 412.34 85 412 85C411.795 84.3013 411.59 83.6027 411.379 82.8828C411.109 81.9727 410.84 81.0627 410.562 80.125C410.296 79.2201 410.029 78.3152 409.754 77.3828C409.074 75.0172 409.074 75.0172 408 73C407.01 72.67 406.02 72.34 405 72C405 70.68 405 69.36 405 68Z" fill="#18D296"/>
<path d="M35 45C35.66 45.33 36.32 45.66 37 46C34.8586 49.2122 33.2355 50.0587 30 52C29.01 53.485 29.01 53.485 28 55C26.68 54.67 25.36 54.34 24 54C27.63 51.03 31.26 48.06 35 45Z" fill="#18D296"/>
<path d="M19 87C19.4125 87.4744 19.825 87.9487 20.25 88.4375C22.1822 90.1627 23.4819 90.5658 26 91C26.66 89.68 27.32 88.36 28 87C27.125 91.875 27.125 91.875 26 93C24.0004 93.0408 21.9995 93.0425 20 93C19.67 91.02 19.34 89.04 19 87Z" fill="#18D296"/>
<path d="M41 63C41.66 63 42.32 63 43 63C42.4833 66.8233 41.7409 68.3733 39 71C38.2855 73.1033 38.2855 73.1033 38 75C37.01 75 36.02 75 35 75C36.5664 70.6924 38.6834 66.9383 41 63Z" fill="#18D296"/>
<path d="M411 103C411.66 103 412.32 103 413 103C412.469 107.51 410.691 110.384 408 114C407.67 114 407.34 114 407 114C406.812 111.625 406.812 111.625 407 109C407.99 108.34 408.98 107.68 410 107C410.724 104.941 410.724 104.941 411 103Z" fill="#18D296"/>
<path d="M99 56C102.648 57.4372 103.973 59.0771 105.812 62.5C106.252 63.2941 106.692 64.0881 107.145 64.9062C107.568 65.9427 107.568 65.9427 108 67C107.67 67.66 107.34 68.32 107 69C106.039 67.5853 105.081 66.1682 104.125 64.75C103.324 63.5666 103.324 63.5666 102.508 62.3594C101.182 60.2844 100.051 58.2239 99 56Z" fill="#18D296"/>
<path d="M47 42.001C45.02 44.971 45.02 44.971 43 48.001C42.67 47.341 42.34 46.681 42 46.001C42.33 45.341 42.66 44.681 43 44.001C41.02 44.331 39.04 44.661 37 45.001C40.1814 41.5166 42.4324 40.5834 47 42.001Z" fill="#18D296"/>
<path d="M481 110C481 110.66 481 111.32 481 112C477.911 114.059 477.291 114.239 473.812 114.125C471.925 114.063 471.925 114.063 470 114C470 113.34 470 112.68 470 112C471.458 111.664 472.916 111.331 474.375 111C475.593 110.722 475.593 110.722 476.836 110.438C479 110 479 110 481 110Z" fill="#18D296"/>
<path d="M339 107C339.688 108.688 339.688 108.688 340 111C338.688 113.75 338.688 113.75 337 116C336.34 116 335.68 116 335 116C334.75 113.75 334.75 113.75 335 111C337 108.688 337 108.688 339 107Z" fill="#18D296"/>
<path d="M78.0001 39C78.6601 39 79.3201 39 80.0001 39C78.6895 43.2343 77.0565 47.0741 75.0001 51C74.1167 48.5332 73.8688 47.3614 74.7774 44.8594C75.1603 44.1633 75.5431 43.4672 75.9376 42.75C76.3178 42.0436 76.6981 41.3372 77.0899 40.6094C77.3903 40.0783 77.6906 39.5472 78.0001 39Z" fill="#18D296"/>
<path d="M42 67C42.33 68.32 42.66 69.64 43 71C42.01 71.33 41.02 71.66 40 72C40 72.66 40 73.32 40 74C39.01 73.67 38.02 73.34 37 73C39.75 68.125 39.75 68.125 42 67Z" fill="#18D296"/>
<path d="M70 19C70.99 19 71.98 19 73 19C73.33 19.99 73.66 20.98 74 22C72.0625 25.1875 72.0625 25.1875 70 28C69.67 26.68 69.34 25.36 69 24C69.66 24 70.32 24 71 24C70.67 22.35 70.34 20.7 70 19Z" fill="#18D296"/>
<path d="M74 10C75.32 10.66 76.64 11.32 78 12C77.67 12.66 77.34 13.32 77 14C76.01 13.67 75.02 13.34 74 13C73.8969 13.6394 73.7938 14.2788 73.6875 14.9375C73.4606 15.6181 73.2338 16.2987 73 17C72.01 17.33 71.02 17.66 70 18C71.1245 15.0281 72.2229 12.6656 74 10Z" fill="#18D296"/>
<path d="M40 136C41.4379 136.142 42.8753 136.289 44.3125 136.438C45.113 136.519 45.9135 136.6 46.7383 136.684C49 137 49 137 52 138C52 138.66 52 139.32 52 140C47.8053 139.401 43.99 138.425 40 137C40 136.67 40 136.34 40 136Z" fill="#18D296"/>
<path d="M75 121C75 121.66 75 122.32 75 123C70.207 124.392 65.8486 123.687 61 123C61 122.67 61 122.34 61 122C62.7707 121.832 64.5415 121.665 66.3125 121.5C67.2986 121.407 68.2848 121.314 69.3008 121.219C72 121 72 121 75 121Z" fill="#18D296"/>
<path d="M17 64C18.1364 67.4093 17.8675 68.0034 16.5625 71.1875C16.275 71.9029 15.9876 72.6184 15.6914 73.3555C15.4632 73.8982 15.2351 74.4409 15 75C14.34 74.67 13.68 74.34 13 74C14.1094 70.5133 15.2634 67.2252 17 64Z" fill="#18D296"/>
</g>
<defs>
<clipPath id="clip0_1175_572">
<rect width="546" height="153" fill="white"/>
</clipPath>
</defs>
</svg>
