<svg width="500" height="453" viewBox="0 0 500 453" fill="none" xmlns="http://www.w3.org/2000/svg">
<path d="M397.899 265.494C400.21 272.221 397.269 278.107 397.269 278.107C397.269 278.107 391.176 275.164 388.866 268.437C386.555 261.711 388.655 253.723 388.655 253.723C388.655 253.723 395.378 258.768 397.899 265.494Z" fill="white"/>
<path d="M410.504 283.782C408.613 291.77 402.731 295.764 402.731 295.764C402.731 295.764 399.37 289.668 401.26 281.68C403.151 273.692 409.664 267.176 409.664 267.176C409.664 267.176 412.395 275.794 410.504 283.782Z" fill="white"/>
<path d="M411.764 309.847C407.983 317.205 401.26 319.937 401.26 319.937C401.26 319.937 399.37 313.211 403.151 305.853C406.933 298.496 414.706 293.451 414.706 293.451C414.706 293.451 415.336 302.49 411.764 309.847Z" fill="white"/>
<path d="M406.513 335.073C401.05 341.379 393.907 342.43 393.907 342.43C393.907 342.43 393.907 335.493 399.37 329.187C404.832 322.88 413.655 319.938 413.655 319.938C413.655 319.938 411.975 328.976 406.513 335.073Z" fill="white"/>
<path d="M395.378 359.878C388.025 364.923 380.252 364.292 380.252 364.292C380.252 364.292 382.143 357.145 389.496 352.1C396.849 347.055 406.933 346.004 406.933 346.004C406.933 346.004 402.731 354.833 395.378 359.878Z" fill="white"/>
<path d="M378.571 381.319C370.168 384.682 362.815 382.16 362.815 382.16C362.815 382.16 366.386 375.433 374.58 372.07C382.983 368.706 393.067 370.178 393.067 370.178C393.067 370.178 386.975 377.956 378.571 381.319Z" fill="white"/>
<path d="M356.512 397.506C347.479 398.137 341.176 393.512 341.176 393.512C341.176 393.512 346.638 388.047 355.672 387.626C364.706 386.995 373.949 391.41 373.949 391.41C373.949 391.41 365.546 396.875 356.512 397.506Z" fill="white"/>
<path d="M331.512 408.436C322.479 407.175 317.437 401.499 317.437 401.499C317.437 401.499 323.949 397.295 332.983 398.556C342.017 399.818 350 405.914 350 405.914C350 405.914 340.546 409.697 331.512 408.436Z" fill="white"/>
<path d="M303.991 413.691C295.588 410.328 292.227 403.601 292.227 403.601C292.227 403.601 299.79 401.079 307.983 404.442C316.386 407.806 322.479 415.583 322.479 415.583C322.479 415.583 312.395 417.055 303.991 413.691Z" fill="white"/>
<path d="M394.118 283.572C398.739 289.458 397.689 295.974 397.689 295.974C397.689 295.974 390.966 294.713 386.344 288.827C381.723 282.942 381.302 274.533 381.302 274.533C381.302 274.533 389.706 277.686 394.118 283.572Z" fill="white"/>
<path d="M395.588 305.854C398.529 312.581 396.008 318.887 396.008 318.887C396.008 318.887 389.706 316.155 386.765 309.428C383.824 302.701 385.504 294.293 385.504 294.293C385.504 294.293 392.647 298.918 395.588 305.854Z" fill="white"/>
<path d="M391.176 327.927C392.437 335.074 388.655 340.749 388.655 340.749C388.655 340.749 383.193 336.756 381.933 329.608C380.672 322.461 384.034 314.684 384.034 314.684C384.034 314.684 389.916 320.78 391.176 327.927Z" fill="white"/>
<path d="M381.513 348.527C381.092 356.305 376.26 361.139 376.26 361.139C376.26 361.139 371.849 355.884 372.059 348.106C372.479 340.329 377.521 333.182 377.521 333.182C377.521 333.182 381.933 340.959 381.513 348.527Z" fill="white"/>
<path d="M367.227 366.395C364.916 373.752 358.823 377.325 358.823 377.325C358.823 377.325 355.882 371.229 358.193 363.872C360.504 356.515 367.227 350.629 367.227 350.629C367.227 350.629 369.538 358.827 367.227 366.395Z" fill="white"/>
<path d="M349.37 380.057C345.588 386.994 338.865 389.307 338.865 389.307C338.865 389.307 337.185 382.79 340.966 375.853C344.748 368.916 352.521 364.502 352.521 364.502C352.521 364.502 353.151 373.121 349.37 380.057Z" fill="white"/>
<path d="M328.781 389.307C323.529 395.193 316.597 396.244 316.597 396.244C316.597 396.244 316.387 389.517 321.639 383.632C326.891 377.746 335.504 374.803 335.504 374.803C335.504 374.803 334.034 383.421 328.781 389.307Z" fill="white"/>
<path d="M305.882 394.352C299.58 399.187 292.437 398.556 292.437 398.556C292.437 398.556 293.697 391.83 300.21 387.205C306.512 382.37 315.756 381.529 315.756 381.529C315.756 381.529 312.395 389.727 305.882 394.352Z" fill="white"/>
<path d="M106.723 265.494C104.412 272.221 107.353 278.107 107.353 278.107C107.353 278.107 113.445 275.164 115.756 268.437C118.067 261.711 115.966 253.723 115.966 253.723C115.966 253.723 109.244 258.768 106.723 265.494Z" fill="white"/>
<path d="M94.1177 283.782C96.0085 291.77 101.891 295.764 101.891 295.764C101.891 295.764 105.252 289.668 103.361 281.68C101.471 273.692 94.958 267.176 94.958 267.176C94.958 267.176 92.227 275.794 94.1177 283.782Z" fill="white"/>
<path d="M92.8571 309.847C96.6386 317.205 103.361 319.937 103.361 319.937C103.361 319.937 105.252 313.211 101.471 305.853C97.689 298.496 89.9159 293.451 89.9159 293.451C89.9159 293.451 89.2857 302.49 92.8571 309.847Z" fill="white"/>
<path d="M98.1092 335.073C103.571 341.379 110.714 342.43 110.714 342.43C110.714 342.43 110.714 335.493 105.252 329.187C99.7898 322.88 90.9663 319.938 90.9663 319.938C90.9663 319.938 92.647 328.976 98.1092 335.073Z" fill="white"/>
<path d="M109.244 359.878C116.597 364.923 124.37 364.292 124.37 364.292C124.37 364.292 122.479 357.145 115.126 352.1C107.773 347.055 97.689 346.004 97.689 346.004C97.689 346.004 101.891 354.833 109.244 359.878Z" fill="white"/>
<path d="M126.05 381.319C134.454 384.682 141.807 382.16 141.807 382.16C141.807 382.16 138.235 375.433 130.042 372.07C121.849 368.706 111.555 370.178 111.555 370.178C111.555 370.178 117.647 377.956 126.05 381.319Z" fill="white"/>
<path d="M148.109 397.506C157.143 398.137 163.445 393.512 163.445 393.512C163.445 393.512 157.983 388.047 148.949 387.626C139.916 386.995 130.672 391.41 130.672 391.41C130.672 391.41 139.075 396.875 148.109 397.506Z" fill="white"/>
<path d="M173.109 408.436C182.143 407.175 187.185 401.499 187.185 401.499C187.185 401.499 180.672 397.295 171.639 398.556C162.605 399.818 154.622 405.914 154.622 405.914C154.622 405.914 164.076 409.697 173.109 408.436Z" fill="white"/>
<path d="M200.63 413.691C209.034 410.328 212.395 403.601 212.395 403.601C212.395 403.601 204.832 401.079 196.639 404.442C188.235 407.806 182.143 415.583 182.143 415.583C182.143 415.583 192.227 417.055 200.63 413.691Z" fill="white"/>
<path d="M110.504 283.572C105.882 289.458 106.933 295.974 106.933 295.974C106.933 295.974 113.655 294.713 118.277 288.827C122.899 282.942 123.319 274.533 123.319 274.533C123.319 274.533 114.916 277.686 110.504 283.572Z" fill="white"/>
<path d="M109.034 305.854C106.093 312.581 108.614 318.887 108.614 318.887C108.614 318.887 114.916 316.155 117.857 309.428C120.798 302.701 119.118 294.293 119.118 294.293C119.118 294.293 111.975 298.918 109.034 305.854Z" fill="white"/>
<path d="M113.445 327.927C112.185 335.074 115.966 340.749 115.966 340.749C115.966 340.749 121.428 336.756 122.689 329.608C123.949 322.461 120.588 314.684 120.588 314.684C120.588 314.684 114.706 320.78 113.445 327.927Z" fill="white"/>
<path d="M123.109 348.527C123.529 356.305 128.361 361.139 128.361 361.139C128.361 361.139 132.773 355.884 132.563 348.106C132.143 340.329 127.101 333.182 127.101 333.182C127.101 333.182 122.689 340.959 123.109 348.527Z" fill="white"/>
<path d="M137.395 366.395C139.706 373.752 145.798 377.325 145.798 377.325C145.798 377.325 148.74 371.229 146.429 363.872C144.118 356.515 137.395 350.629 137.395 350.629C137.395 350.629 135.084 358.827 137.395 366.395Z" fill="white"/>
<path d="M155.252 380.057C159.034 386.994 165.756 389.307 165.756 389.307C165.756 389.307 167.437 382.79 163.656 375.853C159.874 368.916 152.101 364.502 152.101 364.502C152.101 364.502 151.471 373.121 155.252 380.057Z" fill="white"/>
<path d="M175.84 389.307C181.092 395.193 188.025 396.244 188.025 396.244C188.025 396.244 188.235 389.517 182.983 383.632C177.731 377.746 169.118 374.803 169.118 374.803C169.118 374.803 170.588 383.421 175.84 389.307Z" fill="white"/>
<path d="M198.739 394.352C205.042 399.187 212.185 398.556 212.185 398.556C212.185 398.556 210.924 391.83 204.412 387.205C198.109 382.37 188.865 381.529 188.865 381.529C188.865 381.529 192.227 389.727 198.739 394.352Z" fill="white"/>
<path d="M252.311 357.564L256.302 370.808L269.538 374.802L256.302 378.796L252.311 392.039L248.319 378.796L235.084 374.802L248.319 370.808L252.311 357.564Z" fill="white"/>
<path d="M219.538 357.145L221.849 364.502L229.202 366.814L221.849 368.916L219.538 376.274L217.437 368.916L210.084 366.814L217.437 364.502L219.538 357.145Z" fill="white"/>
<path d="M285.084 357.145L287.185 364.502L294.538 366.814L287.185 368.916L285.084 376.274L282.773 368.916L275.42 366.814L282.773 364.502L285.084 357.145Z" fill="white"/>
<path d="M252.311 349.156C256.093 342.219 261.135 335.913 266.597 330.447C269.328 327.715 272.479 324.982 275.63 322.67C277.101 321.408 278.782 320.357 280.462 319.096C281.303 318.466 282.143 318.045 282.983 317.415C283.824 316.784 284.664 316.363 285.504 315.943C292.437 311.949 300 308.796 307.773 306.694C315.546 304.592 323.529 303.541 331.723 303.541L329.622 307.745L316.177 290.508C311.765 284.622 307.143 278.946 302.941 273.06C298.53 267.175 294.118 261.289 289.916 255.403C285.714 249.517 281.303 243.631 277.311 237.535C282.353 242.79 287.185 248.256 292.017 253.931C296.849 259.397 301.681 264.862 306.303 270.538C311.135 276.003 315.546 281.679 320.378 287.355L334.244 304.382L337.815 308.796H332.143C324.58 308.796 316.807 309.637 309.454 311.529C305.672 312.369 302.101 313.421 298.53 314.892C294.958 316.153 291.387 317.625 288.025 319.517C281.093 323.09 274.79 327.294 268.908 332.339C262.395 337.174 257.143 343.06 252.311 349.156Z" fill="white"/>
<path d="M252.311 349.157C258.193 342.43 265.126 336.334 272.689 331.289C276.471 328.766 280.462 326.454 284.454 324.352C288.445 322.25 292.647 320.568 297.059 318.887C305.672 315.733 314.496 313.631 323.74 312.58C332.773 311.529 342.017 311.529 351.261 312.58L348.95 316.784L332.773 296.394C327.521 289.457 322.059 282.731 316.807 275.794C311.555 268.857 306.303 261.92 301.051 254.983C296.009 248.046 290.756 240.899 285.714 233.752C291.597 240.268 297.269 246.785 302.941 253.301C308.614 259.818 314.286 266.545 319.748 273.271C325.42 279.998 330.882 286.725 336.345 293.451L352.731 313.631L356.933 318.676L350.42 317.835C341.807 316.784 332.983 316.574 324.16 317.625C319.748 318.046 315.336 318.676 311.135 319.517C310.084 319.727 309.034 319.938 307.983 320.148C306.933 320.358 305.882 320.568 304.832 320.989C302.731 321.619 300.63 322.25 298.53 322.88C290.126 325.613 281.933 329.187 274.37 333.601C266.387 338.016 259.034 343.271 252.311 349.157Z" fill="white"/>
<path d="M252.311 349.155C247.479 342.849 242.227 337.173 236.345 332.128C230.462 327.083 223.95 322.879 217.227 319.306C213.866 317.414 210.294 316.153 206.723 314.681C203.151 313.42 199.58 312.159 195.798 311.318C188.445 309.636 180.672 308.585 173.109 308.585H167.437L171.008 304.171L184.874 287.144C189.496 281.468 194.118 275.792 198.95 270.327C203.571 264.651 208.403 259.186 213.235 253.721C218.067 248.255 222.899 242.79 227.941 237.324C223.74 243.42 219.538 249.306 215.336 255.192C210.924 261.078 206.723 266.964 202.311 272.85C197.899 278.735 193.487 284.411 189.076 290.297L175.63 307.534L173.529 303.33C181.513 303.33 189.706 304.381 197.479 306.483C205.252 308.585 212.815 311.528 219.748 315.732C220.588 316.153 221.429 316.783 222.269 317.204C223.109 317.834 223.95 318.255 224.79 318.885C226.471 319.936 228.151 321.198 229.622 322.459C232.773 324.981 235.714 327.504 238.656 330.237C243.698 336.122 248.529 342.429 252.311 349.155Z" fill="white"/>
<path d="M252.311 349.156C245.588 343.27 238.445 337.805 230.672 333.39C223.109 328.976 214.916 325.402 206.512 322.67C204.412 322.039 202.311 321.408 200.21 320.778C199.16 320.567 198.109 320.147 197.059 319.937C196.008 319.727 194.958 319.516 193.907 319.306C189.706 318.465 185.294 317.835 180.882 317.414C172.059 316.574 163.235 316.574 154.622 317.625L148.109 318.465L152.311 313.42L168.697 293.24C174.16 286.514 179.622 279.787 185.294 273.06C190.756 266.334 196.428 259.817 202.101 253.09C207.773 246.574 213.445 239.847 219.328 233.541C214.286 240.688 209.244 247.625 203.991 254.772C198.739 261.709 193.697 268.646 188.235 275.583C182.983 282.52 177.731 289.246 172.269 296.183L156.092 316.574L153.781 312.369C162.815 311.318 172.059 311.318 181.302 312.369C190.336 313.42 199.37 315.522 207.983 318.676C212.185 320.357 216.386 322.039 220.588 324.141C224.58 326.243 228.571 328.555 232.353 331.078C239.496 336.543 246.428 342.429 252.311 349.156Z" fill="white"/>
<path d="M252.311 343.059C255.882 337.383 260.084 331.918 264.916 326.873C269.748 322.038 275 317.624 280.672 313.84C292.017 306.273 305.252 301.017 318.908 298.915C319.958 298.705 321.008 299.546 321.219 300.597C321.429 301.648 320.588 302.699 319.538 302.909C306.303 304.381 293.277 308.585 281.723 315.522C276.051 318.885 270.588 323.089 265.546 327.714C260.714 332.338 256.093 337.383 252.311 343.059Z" fill="white"/>
<path d="M252.311 330.448C255.462 325.193 259.244 320.358 263.445 315.943C267.647 311.319 272.269 307.325 277.101 303.751C286.975 296.394 298.53 291.139 310.504 287.986C311.555 287.775 312.605 288.406 312.815 289.457C313.025 290.508 312.395 291.559 311.345 291.769C311.345 291.769 311.345 291.769 311.135 291.769C299.37 294.082 288.025 298.496 277.941 305.223C272.899 308.586 268.067 312.37 263.866 316.574C259.664 320.778 255.882 325.613 252.311 330.448Z" fill="white"/>
<path d="M252.311 318.045C255.042 313.42 258.403 309.006 261.975 305.012C265.546 300.807 269.538 297.024 273.74 293.66C277.941 290.297 282.563 287.144 287.395 284.411C292.227 281.678 297.269 279.366 302.521 277.684C303.572 277.264 304.622 277.895 305.042 278.946C305.462 279.997 304.832 281.048 303.782 281.468C303.782 281.468 303.782 281.468 303.572 281.468C298.53 282.94 293.487 284.832 288.656 287.144C283.824 289.456 279.202 292.189 274.79 295.342C270.378 298.495 266.387 302.069 262.605 305.852C258.824 309.426 255.462 313.63 252.311 318.045Z" fill="white"/>
<path d="M252.311 305.643C254.832 301.649 257.563 297.655 260.714 293.871C263.866 290.088 267.227 286.724 270.798 283.571C274.37 280.418 278.361 277.475 282.353 274.742C284.454 273.481 286.555 272.22 288.656 270.959L295.168 267.806C296.219 267.385 297.269 267.806 297.899 268.646C298.319 269.697 297.899 270.748 297.059 271.379C297.059 271.379 297.059 271.379 296.849 271.379H296.639L290.126 274.112C288.025 275.163 285.924 276.214 283.824 277.265C279.622 279.577 275.84 282.1 272.059 285.043C268.277 287.986 264.706 291.139 261.555 294.502C258.193 298.076 255.042 301.649 252.311 305.643Z" fill="white"/>
<path d="M252.311 293.03C256.513 285.882 261.765 279.366 267.857 273.48C270.798 270.537 273.95 267.805 277.311 265.282C280.672 262.76 284.244 260.447 288.025 258.345C289.076 257.714 290.126 258.135 290.756 259.186C291.387 260.237 290.966 261.288 289.916 261.919C289.916 261.919 289.916 261.919 289.706 261.919C286.135 263.6 282.353 265.492 278.992 267.594C275.63 269.696 272.269 272.219 269.118 274.741C262.815 280.207 257.143 286.303 252.311 293.03Z" fill="white"/>
<path d="M252.311 280.627C255.882 274.531 260.084 268.856 264.916 263.811C267.437 261.288 269.958 258.766 272.689 256.453C275.42 254.141 278.361 252.039 281.303 249.937C282.143 249.306 283.403 249.517 284.034 250.357C284.664 251.198 284.454 252.459 283.614 253.09C283.614 253.09 283.614 253.09 283.403 253.09C280.462 254.772 277.521 256.664 274.58 258.556C271.849 260.447 269.118 262.76 266.387 265.072C261.135 269.697 256.513 274.952 252.311 280.627Z" fill="white"/>
<path d="M252.311 268.226C255.252 263.181 258.614 258.346 262.395 253.932C266.177 249.518 270.378 245.313 275 241.53C275.84 240.899 277.101 240.899 277.731 241.74C278.361 242.581 278.361 243.842 277.521 244.473C277.521 244.473 277.311 244.473 277.311 244.683C272.479 247.836 268.067 251.199 263.866 255.193C259.664 259.187 255.672 263.391 252.311 268.226Z" fill="white"/>
<path d="M185.714 298.917C199.37 301.019 212.605 306.064 223.949 313.842C229.622 317.626 234.874 322.04 239.706 326.875C244.538 331.71 248.739 337.175 252.311 343.061C248.529 337.385 243.907 332.34 239.076 327.716C234.244 323.091 228.781 319.097 222.899 315.523C211.344 308.587 198.319 304.382 185.084 302.911C184.034 302.701 183.193 301.86 183.403 300.809C183.613 299.548 184.664 298.707 185.714 298.917Z" fill="white"/>
<path d="M194.118 287.986C206.092 290.929 217.647 296.394 227.521 303.751C232.563 307.325 237.185 311.529 241.176 315.943C245.378 320.358 248.949 325.403 252.311 330.448C248.739 325.403 244.958 320.778 240.546 316.574C236.134 312.37 231.512 308.586 226.47 305.223C216.386 298.496 205.042 294.082 193.277 291.769C192.227 291.559 191.597 290.508 191.807 289.457C192.017 288.406 193.067 287.775 194.118 287.986Z" fill="white"/>
<path d="M202.101 277.475C207.353 279.367 212.395 281.469 217.227 284.202C222.059 286.934 226.681 289.877 230.882 293.451C235.084 296.814 239.076 300.808 242.647 304.802C246.218 309.006 249.58 313.21 252.311 317.835C249.16 313.421 245.798 309.216 242.017 305.433C238.235 301.649 234.034 298.075 229.832 294.922C225.42 291.769 220.798 289.036 215.966 286.724C211.134 284.412 206.092 282.52 201.05 281.048C200 280.838 199.37 279.577 199.58 278.526C199.79 277.895 200.84 277.265 202.101 277.475Z" fill="white"/>
<path d="M209.664 267.804L216.177 270.957C218.277 272.219 220.378 273.27 222.479 274.741C226.471 277.474 230.462 280.206 234.034 283.57C237.605 286.723 240.966 290.296 244.118 293.87C247.269 297.654 250 301.438 252.521 305.642C249.79 301.648 246.639 298.074 243.487 294.711C240.126 291.348 236.765 288.194 232.983 285.251C229.202 282.309 225.21 279.786 221.219 277.474C219.118 276.423 217.017 275.372 214.916 274.321L208.403 271.588H208.193C207.143 271.167 206.723 269.906 207.143 269.065C207.353 267.804 208.403 267.384 209.664 267.804Z" fill="white"/>
<path d="M216.597 258.555C220.378 260.657 223.74 262.97 227.311 265.492C230.672 268.015 233.824 270.747 236.765 273.69C242.857 279.576 247.899 286.093 252.311 293.24C247.479 286.513 241.807 280.417 235.504 275.162C232.353 272.639 228.992 270.117 225.63 268.015C222.269 265.913 218.487 264.021 214.916 262.339C213.866 261.919 213.445 260.657 213.866 259.606C214.286 258.345 215.546 257.925 216.597 258.555Z" fill="white"/>
<path d="M223.319 249.728C226.261 251.83 229.202 253.932 231.933 256.244C234.664 258.557 237.185 261.079 239.706 263.602C244.538 268.857 248.74 274.533 252.311 280.418C248.109 274.743 243.487 269.488 238.235 264.863C235.714 262.551 232.983 260.449 230.042 258.347C227.311 256.455 224.37 254.563 221.219 252.881C220.168 252.25 219.958 251.199 220.378 250.148C221.008 249.518 222.269 249.097 223.319 249.728Z" fill="white"/>
<path d="M229.832 241.529C234.454 245.312 238.656 249.306 242.437 253.931C246.219 258.345 249.58 263.18 252.521 268.225C249.16 263.6 245.168 259.186 240.966 255.402C236.765 251.408 232.353 248.045 227.521 244.892C226.681 244.261 226.261 243 226.891 242.159C227.521 241.108 228.572 240.898 229.832 241.529C229.622 241.529 229.622 241.529 229.832 241.529Z" fill="white"/>
<path d="M252.311 349.155C259.454 343.269 267.437 338.224 276.051 334.231C284.454 330.237 293.487 327.083 302.521 324.771C311.765 322.669 321.009 321.408 330.462 321.198C339.916 320.987 349.16 321.828 358.403 323.72C349.16 323.93 339.916 324.351 330.882 325.192C326.261 325.822 321.849 326.243 317.437 327.083C313.025 327.924 308.403 328.765 303.992 329.816C295.168 331.918 286.345 334.651 277.941 337.804C269.118 341.378 260.714 345.161 252.311 349.155Z" fill="white"/>
<path d="M252.311 349.155C243.908 344.951 235.504 341.167 227.101 338.014C218.487 334.861 209.874 332.128 201.05 330.026C196.639 328.975 192.227 328.134 187.605 327.293C183.193 326.452 178.571 325.822 174.16 325.401C165.126 324.35 155.882 323.93 146.639 323.93C155.672 321.828 165.126 321.197 174.58 321.407C184.034 321.618 193.277 322.879 202.521 324.981C211.555 327.293 220.588 330.236 228.992 334.44C237.185 338.434 245.168 343.269 252.311 349.155Z" fill="white"/>
<path d="M126.47 140.84L128.781 140.21C128.991 140.21 129.202 139.999 129.412 139.789C129.622 139.579 129.622 139.369 129.622 139.159V120.03C129.622 119.819 129.622 119.609 129.412 119.399C129.202 119.189 128.991 119.189 128.781 118.979L126.47 118.348V117.297H137.815V118.348L135.504 118.979C135.294 118.979 135.084 119.189 134.874 119.399C134.664 119.609 134.664 119.819 134.664 120.03V139.159C134.664 139.369 134.664 139.579 134.874 139.789C135.084 139.999 135.294 139.999 135.504 140.21L137.815 140.84V141.891H126.47V140.84Z" fill="white"/>
<path d="M145.798 129.278L144.117 126.966V139.158C144.117 139.368 144.117 139.578 144.328 139.578C144.538 139.578 144.538 139.788 144.958 139.999L146.849 140.629V141.68H139.286V140.839L141.176 140.209C141.386 140.209 141.596 139.999 141.596 139.788C141.807 139.578 141.807 139.368 141.807 139.368V124.864C141.807 124.653 141.807 124.443 141.596 124.233C141.386 124.023 141.386 124.023 141.176 124.023L139.075 123.392V122.341H146.218L154.622 133.903L156.092 135.794V124.653C156.092 124.443 156.092 124.233 155.882 124.023C155.672 123.813 155.672 124.023 155.462 123.813L153.571 123.182V122.131H161.134V123.182L159.244 123.813C159.033 123.813 158.823 124.023 158.613 124.233C158.403 124.443 158.403 124.443 158.403 124.653V138.527L157.983 141.89H155.042L145.798 129.278Z" fill="white"/>
<path d="M166.176 140.84L168.487 140.21C168.697 140.21 168.908 139.999 168.908 139.999C169.118 139.789 169.118 139.579 169.118 139.369V124.023H165.126C164.916 124.023 164.706 124.023 164.706 124.234C164.706 124.234 164.496 124.444 164.496 124.654L163.235 127.807H162.185V122.342H181.092V127.807H180.042L178.571 124.444C178.571 124.234 178.361 124.234 178.361 124.023C178.361 123.813 178.151 124.023 177.941 124.023H173.95V139.579C173.95 139.789 173.95 139.999 174.16 140.21C174.37 140.42 174.58 140.42 174.58 140.42L176.681 141.05V142.101H165.966V140.84H166.176Z" fill="white"/>
<path d="M182.353 140.839L184.244 140.209C184.454 140.209 184.664 139.999 184.664 139.999C184.874 139.788 184.874 139.578 184.874 139.368V124.653C184.874 124.443 184.874 124.233 184.664 124.023C184.454 123.813 184.454 123.813 184.244 123.813L182.353 123.182V122.131H199.16V127.386H197.899L196.639 124.443C196.639 124.233 196.428 124.233 196.428 124.023C196.428 123.813 196.428 124.023 196.218 124.023H189.916V130.749H193.907C194.117 130.749 194.328 130.749 194.328 130.539C194.328 130.539 194.538 130.329 194.538 130.119L195.588 127.806H196.639V135.164H195.378L194.328 132.852C194.328 132.641 194.117 132.641 194.117 132.431C194.117 132.431 193.907 132.221 193.697 132.221H189.706V139.788H197.479C197.689 139.788 197.899 139.788 197.899 139.578C197.899 139.578 198.109 139.368 198.109 139.158L199.37 135.794H200.63V141.47H182.563L182.353 140.839Z" fill="white"/>
<path d="M202.311 140.839L204.202 140.209C204.412 140.209 204.622 139.999 204.622 139.999C204.832 139.788 204.832 139.578 204.832 139.368V124.653C204.832 124.443 204.832 124.233 204.622 124.023C204.412 123.813 204.412 123.813 204.202 123.813L202.311 123.182V122.131H211.975C213.655 122.131 214.916 122.341 215.966 122.551C217.017 122.761 217.857 123.182 218.487 123.602C219.118 124.023 219.538 124.653 219.748 125.074C219.958 125.704 220.168 126.335 220.168 126.755C220.168 127.596 219.958 128.227 219.748 128.858C219.538 129.488 219.118 129.909 218.697 130.329C218.277 130.749 217.857 131.17 217.227 131.38C216.596 131.59 216.386 131.8 215.966 132.011L220.798 138.948C220.798 139.158 221.008 139.158 221.008 139.368C221.008 139.578 221.218 139.578 221.428 139.788C221.639 139.999 221.639 139.999 221.849 139.999C222.059 139.999 222.059 140.209 222.269 140.209L224.16 140.839V141.89H218.907C218.487 141.89 218.067 141.89 217.857 141.89C217.647 141.89 217.227 141.68 217.017 141.68C216.807 141.47 216.597 141.26 216.386 141.05C216.176 140.839 215.966 140.629 215.756 140.209L211.344 133.692L209.874 133.272V139.578C209.874 139.788 209.874 139.999 210.084 140.209C210.294 140.419 210.294 140.419 210.504 140.419L212.815 141.05V142.101H202.521L202.311 140.839ZM211.554 131.8C212.185 131.8 212.605 131.59 213.025 131.38C213.445 131.17 213.865 130.96 214.075 130.539C214.286 130.119 214.496 129.698 214.706 129.278C214.916 128.858 214.916 128.227 214.916 127.806C214.916 126.545 214.706 125.494 214.075 124.864C213.445 124.233 212.605 124.023 211.554 124.023H209.874V131.8C209.874 131.8 210.084 131.8 210.294 131.8C210.504 131.8 210.714 131.8 210.714 131.8C210.924 131.8 211.134 131.8 211.344 131.8C211.344 131.8 211.344 131.8 211.554 131.8Z" fill="white"/>
<path d="M230.042 129.278L228.361 126.966V139.158C228.361 139.368 228.361 139.578 228.571 139.578C228.782 139.578 228.782 139.788 229.202 139.999L231.092 140.839V141.89H223.529V140.839L225.42 140.209C225.63 140.209 225.84 139.999 225.84 139.788C226.05 139.578 226.05 139.368 226.05 139.368V124.864C226.05 124.653 226.05 124.443 225.84 124.233C225.63 124.023 225.63 124.023 225.42 124.023L223.319 123.392V122.341H230.462L238.866 133.903L240.336 135.794V124.653C240.336 124.443 240.336 124.233 240.126 124.023C239.916 123.813 239.916 123.813 239.706 123.813L237.815 123.182V122.131H245.378V123.182L243.487 123.813C243.277 123.813 243.067 124.023 242.857 124.233C242.647 124.443 242.647 124.443 242.647 124.653V138.527L242.227 141.89H239.496L230.042 129.278Z" fill="white"/>
<path d="M244.748 140.84L246.218 140.209C246.638 139.999 246.849 139.789 247.059 139.368L252.941 125.074L254.832 121.711H257.143L264.286 139.158C264.286 139.368 264.496 139.579 264.706 139.579C264.916 139.789 265.126 139.789 265.126 139.999L266.596 140.63V141.681H256.933V140.84L259.454 140.209L257.353 135.375H250.84L248.739 140.209L251.26 140.84V141.891H244.538V140.84H244.748ZM256.722 133.483L254.832 129.068L253.991 127.176L251.47 133.483H256.722Z" fill="white"/>
<path d="M268.907 140.84L271.218 140.21C271.429 140.21 271.639 139.999 271.639 139.999C271.849 139.789 271.849 139.579 271.849 139.369V124.023H267.857C267.647 124.023 267.437 124.023 267.437 124.234C267.437 124.234 267.227 124.444 267.227 124.654L265.966 127.807H264.706V122.342H283.613V127.807H282.563L281.302 124.654C281.302 124.444 281.092 124.444 281.092 124.234C281.092 124.023 280.882 124.023 280.672 124.023H276.681V139.579C276.681 139.789 276.681 139.999 276.891 140.21C277.101 140.42 277.311 140.42 277.311 140.42L279.412 141.05V142.101H268.907V140.84Z" fill="white"/>
<path d="M285.084 140.839L286.975 140.209C287.185 140.209 287.395 139.999 287.395 139.999C287.605 139.788 287.605 139.578 287.605 139.368V124.653C287.605 124.443 287.605 124.233 287.395 124.023C287.185 123.813 287.185 123.813 286.975 123.813L285.084 123.182V122.131H295.168V123.182L293.277 123.813C293.067 123.813 292.857 124.023 292.857 124.233C292.647 124.443 292.647 124.653 292.647 124.864V139.578C292.647 139.788 292.647 139.999 292.857 140.209C293.067 140.419 293.067 140.419 293.487 140.419L295.378 141.05V142.101H285.294V140.839H285.084Z" fill="white"/>
<path d="M306.933 142.313C305.252 142.313 303.781 142.102 302.521 141.472C301.26 140.841 300.21 140.211 299.37 139.37C298.529 138.529 297.899 137.268 297.479 136.006C297.059 134.745 296.849 133.274 296.849 131.802C296.849 130.331 297.059 129.069 297.479 127.808C297.899 126.547 298.529 125.496 299.37 124.445C300.21 123.604 301.26 122.763 302.521 122.343C303.781 121.922 305.252 121.502 306.723 121.502C308.403 121.502 309.874 121.712 311.134 122.343C312.395 122.973 313.445 123.604 314.286 124.655C315.126 125.706 315.756 126.757 316.176 128.018C316.597 129.28 316.807 130.541 316.807 132.012C316.807 133.274 316.597 134.535 316.176 135.796C315.756 137.057 315.126 138.108 314.496 139.159C313.655 140.211 312.605 140.841 311.344 141.472C310.084 142.102 308.613 142.313 306.933 142.313ZM307.143 140.631C307.983 140.631 308.613 140.421 309.244 140C309.874 139.58 310.294 138.949 310.714 138.319C311.134 137.688 311.344 136.637 311.555 135.796C311.765 134.745 311.765 133.694 311.765 132.643C311.765 131.382 311.765 130.121 311.555 129.069C311.344 128.018 311.134 126.967 310.714 126.127C310.294 125.286 309.874 124.655 309.244 124.235C308.613 123.814 307.773 123.604 306.933 123.604C306.092 123.604 305.252 123.814 304.832 124.235C304.202 124.655 303.781 125.286 303.361 126.127C302.941 126.967 302.731 127.808 302.521 128.649C302.311 129.7 302.311 130.751 302.311 131.802C302.311 133.063 302.311 134.325 302.521 135.376C302.731 136.427 302.941 137.478 303.361 138.319C303.781 139.159 304.202 139.79 304.832 140.211C305.462 140.421 306.092 140.631 307.143 140.631Z" fill="white"/>
<path d="M325.21 129.278L323.529 126.966V139.158C323.529 139.368 323.529 139.578 323.739 139.578C323.949 139.578 323.949 139.788 324.37 139.999L326.26 140.629V141.68H318.697V140.839L320.588 140.209C320.798 140.209 321.008 139.999 321.008 139.788C321.218 139.578 321.218 139.368 321.218 139.368V124.864C321.218 124.653 321.218 124.443 321.008 124.233C320.798 124.023 320.798 124.023 320.588 124.023L318.487 123.392V122.341H325.63L334.034 133.903L335.504 135.794V124.653C335.504 124.443 335.504 124.233 335.294 124.023C335.084 123.813 335.084 123.813 334.874 123.813L332.983 123.182V122.131H340.546V123.182L338.655 123.813C338.445 123.813 338.235 124.023 338.025 124.233C337.815 124.443 337.815 124.443 337.815 124.653V138.527L337.395 141.89H334.454L325.21 129.278Z" fill="white"/>
<path d="M339.706 140.84L341.176 140.209C341.597 139.999 341.807 139.789 342.017 139.368L347.899 125.074L349.79 121.711H352.101L359.244 139.158C359.244 139.368 359.454 139.579 359.664 139.579C359.874 139.789 360.084 139.789 360.084 139.999L361.555 140.63V141.681H351.891V140.84L354.412 140.209L352.311 135.375H345.798L343.697 140.209L346.639 140.84V141.891H339.916V140.84H339.706ZM351.891 133.483L350 129.068L349.16 127.176L346.639 133.483H351.891Z" fill="white"/>
<path d="M361.555 140.839L363.445 140.209C363.655 140.209 363.865 139.999 363.865 139.999C364.076 139.788 364.076 139.578 364.076 139.368V124.653C364.076 124.443 364.076 124.233 363.865 124.023C363.655 123.813 363.655 123.813 363.445 123.813L361.555 123.182V122.131H371.849V123.182L369.958 123.813C369.748 123.813 369.538 124.023 369.328 124.233C369.118 124.443 369.118 124.653 369.118 124.864V140.419H375.63C375.84 140.419 376.05 140.419 376.05 140.209C376.05 139.999 376.26 139.788 376.26 139.788L377.521 136.005H378.571V142.311H361.344L361.555 140.839Z" fill="white"/>
<path d="M168.067 176.577L170.378 175.946C170.588 175.946 170.798 175.736 171.008 175.526C171.218 175.315 171.218 175.105 171.218 174.895V155.766C171.218 155.556 171.218 155.346 171.008 155.135C170.798 154.925 170.588 154.925 170.378 154.715L168.067 154.084V153.033H187.815V159.339H186.555L185.084 155.556C185.084 155.345 184.874 155.135 184.874 155.135C184.874 154.925 184.664 154.925 184.454 154.925H176.26V163.754H181.513C181.723 163.754 181.933 163.754 181.933 163.544C182.143 163.333 182.143 163.333 182.143 163.123L183.403 160.18H184.454V169.219H183.403L182.143 166.276C182.143 166.066 181.933 165.856 181.933 165.856C181.933 165.646 181.723 165.646 181.513 165.646H176.26V175.526H185.924C186.134 175.526 186.344 175.526 186.344 175.315C186.555 175.105 186.555 175.105 186.555 174.895L188.025 170.481H189.286V177.417H168.067V176.577Z" fill="white"/>
<path d="M201.26 178.047C200 178.047 198.739 177.837 197.689 177.627C196.638 177.206 195.798 176.786 195.168 176.366C194.538 175.735 193.907 175.104 193.697 174.474C193.277 173.843 193.277 173.002 193.277 172.161V160.39C193.277 160.179 193.277 159.969 193.067 159.759C192.857 159.549 192.647 159.549 192.647 159.549L190.756 158.918V157.867H200.84V158.918L198.949 159.549C198.739 159.549 198.529 159.759 198.529 159.969C198.529 160.179 198.319 160.39 198.319 160.6V170.9C198.319 171.321 198.319 171.531 198.319 171.951C198.319 172.372 198.529 172.582 198.529 173.002C198.739 173.423 198.739 173.633 198.949 174.053C199.159 174.474 199.37 174.684 199.79 174.894C200.21 175.104 200.42 175.315 201.05 175.525C201.47 175.735 202.101 175.735 202.731 175.735C203.361 175.735 203.991 175.735 204.412 175.525C204.832 175.315 205.252 175.104 205.672 174.894C206.092 174.684 206.302 174.263 206.512 174.053C206.722 173.633 206.933 173.423 207.143 173.002C207.353 172.582 207.353 172.372 207.353 171.951C207.353 171.531 207.353 171.321 207.353 170.9V160.6C207.353 160.39 207.353 160.179 207.143 159.969C206.933 159.759 206.933 159.759 206.722 159.759L204.832 159.128V158.077H212.185V159.128L210.294 159.759C210.084 159.759 209.874 159.969 209.874 160.179C209.664 160.39 209.664 160.6 209.664 160.6V171.531C209.664 172.372 209.454 173.002 209.244 173.843C209.033 174.684 208.613 175.104 208.193 175.525C207.773 175.945 207.353 176.366 206.722 176.786C206.092 177.206 205.672 177.417 205.042 177.627C204.412 177.837 203.781 178.047 203.151 178.047C202.521 178.047 201.891 178.047 201.26 178.047Z" fill="white"/>
<path d="M213.445 176.576L215.336 175.945C215.546 175.945 215.756 175.735 215.756 175.735C215.966 175.525 215.966 175.315 215.966 175.104V160.39C215.966 160.179 215.966 159.969 215.756 159.759C215.546 159.549 215.546 159.549 215.336 159.549L213.445 158.918V157.867H223.109C224.79 157.867 226.05 158.077 227.101 158.288C228.151 158.498 228.992 158.918 229.622 159.339C230.252 159.759 230.672 160.39 230.882 160.81C231.092 161.441 231.302 162.071 231.302 162.492C231.302 163.333 231.092 163.963 230.882 164.594C230.672 165.224 230.252 165.645 229.832 166.065C229.412 166.486 228.992 166.906 228.361 167.116C227.731 167.327 227.521 167.537 227.101 167.747L231.933 174.684C231.933 174.894 232.143 174.894 232.143 175.104C232.143 175.315 232.353 175.315 232.563 175.525C232.773 175.735 232.773 175.735 232.983 175.735C233.193 175.735 233.193 175.945 233.403 175.945L235.294 176.576V177.627H230.042C229.622 177.627 229.202 177.627 228.992 177.627C228.781 177.627 228.361 177.417 228.151 177.417C227.941 177.206 227.731 176.996 227.521 176.786C227.311 176.576 227.101 176.366 226.891 175.945L222.479 169.429L221.008 169.008V175.315C221.008 175.525 221.008 175.735 221.218 175.945C221.429 176.155 221.428 176.155 221.639 176.155L223.95 176.786V177.837H213.655L213.445 176.576ZM222.689 167.537C223.319 167.537 223.739 167.327 224.16 167.116C224.58 166.906 225 166.696 225.21 166.276C225.42 165.855 225.63 165.435 225.84 165.014C226.05 164.594 226.05 163.963 226.05 163.543C226.05 162.282 225.84 161.231 225.21 160.6C224.58 159.969 223.739 159.759 222.689 159.759H221.008V167.537C221.008 167.537 221.218 167.537 221.428 167.537C221.639 167.537 221.849 167.537 221.849 167.537C222.059 167.537 222.269 167.537 222.479 167.537C222.479 167.537 222.479 167.537 222.689 167.537Z" fill="white"/>
<path d="M244.538 178.047C242.857 178.047 241.386 177.837 240.126 177.206C238.865 176.576 237.815 175.945 236.975 175.104C236.134 174.263 235.504 173.002 235.084 171.741C234.664 170.479 234.454 169.008 234.454 167.537C234.454 166.065 234.664 164.804 235.084 163.543C235.504 162.281 236.134 161.23 236.975 160.179C237.815 159.338 238.865 158.498 240.126 158.077C241.386 157.657 242.857 157.236 244.328 157.236C246.008 157.236 247.479 157.447 248.739 158.077C250 158.708 251.05 159.338 251.891 160.389C252.731 161.441 253.361 162.492 253.781 163.753C254.202 165.014 254.412 166.275 254.412 167.747C254.412 169.008 254.202 170.269 253.781 171.531C253.361 172.792 252.731 173.843 252.101 174.894C251.26 175.945 250.21 176.576 248.949 177.206C247.899 177.837 246.218 178.047 244.538 178.047ZM244.748 176.365C245.588 176.365 246.218 176.155 246.849 175.735C247.479 175.314 247.899 174.684 248.319 174.053C248.739 173.422 248.949 172.371 249.159 171.531C249.37 170.479 249.37 169.428 249.37 168.377C249.37 167.116 249.37 165.855 249.159 164.804C248.949 163.753 248.739 162.702 248.319 161.861C247.899 161.02 247.479 160.389 246.849 159.969C246.218 159.549 245.378 159.338 244.538 159.338C243.697 159.338 242.857 159.549 242.437 159.969C241.807 160.389 241.386 161.02 240.966 161.861C240.546 162.702 240.336 163.543 240.126 164.383C239.916 165.434 239.916 166.486 239.916 167.537C239.916 168.798 239.916 170.059 240.126 171.11C240.336 172.161 240.546 173.212 240.966 174.053C241.386 174.894 241.807 175.524 242.437 175.945C243.067 176.155 243.907 176.365 244.748 176.365Z" fill="white"/>
<path d="M256.512 176.576L258.403 175.945C258.613 175.945 258.823 175.735 258.823 175.735C259.033 175.525 259.033 175.315 259.033 175.104V160.39C259.033 160.179 259.033 159.969 258.823 159.759C258.613 159.549 258.613 159.549 258.403 159.549L256.512 158.918V157.867H265.756C266.807 157.867 267.857 157.867 268.907 158.077C269.958 158.288 270.798 158.498 271.428 159.128C272.269 159.549 272.689 160.179 273.109 160.81C273.529 161.441 273.739 162.282 273.739 163.333C273.739 164.384 273.529 165.224 273.319 166.065C272.899 166.906 272.479 167.537 271.849 168.167C271.218 168.798 270.588 169.218 269.748 169.429C268.907 169.639 268.067 169.849 267.017 169.849C266.807 169.849 266.596 169.849 266.176 169.849C265.756 169.849 265.546 169.639 265.336 169.639C265.126 169.639 264.706 169.429 264.496 169.429C264.286 169.429 263.865 169.218 263.655 169.008V175.315C263.655 175.525 263.655 175.735 263.865 175.945C264.076 176.155 264.075 176.155 264.286 176.155L266.386 176.786V177.837H256.092V176.576H256.512ZM265.756 167.957C266.386 167.957 266.807 167.747 267.227 167.537C267.647 167.327 267.857 166.906 268.067 166.486C268.277 166.065 268.487 165.645 268.487 165.224C268.487 164.804 268.697 164.384 268.697 164.173C268.697 163.543 268.697 163.122 268.487 162.492C268.277 162.071 268.277 161.441 267.857 161.02C267.647 160.6 267.227 160.39 266.807 159.969C266.386 159.549 265.756 159.549 265.126 159.549H263.865V167.747C264.076 167.747 264.075 167.747 264.286 167.747C264.496 167.747 264.706 167.747 264.706 167.747C264.916 167.747 265.126 167.747 265.126 167.747C265.336 167.957 265.546 167.957 265.756 167.957Z" fill="white"/>
<path d="M275.42 176.576L277.311 175.945C277.521 175.945 277.731 175.735 277.731 175.735C277.941 175.525 277.941 175.315 277.941 175.104V160.39C277.941 160.179 277.941 159.969 277.731 159.759C277.521 159.549 277.521 159.549 277.311 159.549L275.42 158.918V157.867H292.227V163.122H290.966L289.706 160.179C289.706 159.969 289.496 159.969 289.496 159.759C289.496 159.549 289.286 159.549 289.076 159.549H282.773V166.276H286.765C286.975 166.276 287.185 166.276 287.185 166.065C287.185 166.065 287.395 165.855 287.395 165.645L288.445 163.333H289.496V170.69H288.445L287.395 168.378C287.395 168.167 287.185 168.167 287.185 167.957C287.185 167.957 286.975 167.747 286.765 167.747H282.773V175.315H290.546C290.756 175.315 290.966 175.315 290.966 175.104C290.966 175.104 291.176 174.894 291.176 174.684L292.437 171.321H293.697V176.996H275.63L275.42 176.576Z" fill="white"/>
<path d="M293.277 176.576L294.748 175.946C295.168 175.735 295.378 175.525 295.588 175.105L301.47 160.811L303.361 157.447H305.672L312.815 174.895C312.815 175.105 313.025 175.315 313.235 175.315C313.445 175.525 313.655 175.525 313.655 175.735L315.126 176.576V177.627H305.462V176.576L307.983 175.946L305.882 171.111H299.37L297.269 175.946L299.79 176.576V177.627H293.067V176.576H293.277ZM305.252 169.219L303.361 164.805L302.521 162.913L300 169.219H305.252Z" fill="white"/>
<path d="M321.428 165.014L319.748 162.702V174.894C319.748 175.104 319.748 175.315 319.958 175.315C320.168 175.315 320.168 175.525 320.588 175.735L322.479 176.366V177.417H314.916V176.576L316.807 175.945C317.017 175.945 317.227 175.735 317.227 175.525C317.437 175.315 317.437 175.104 317.437 175.104V160.6C317.437 160.39 317.437 160.179 317.227 159.969C317.017 159.759 317.017 159.759 316.807 159.759L314.706 159.128V158.077H321.849L330.252 169.639L331.723 171.531V160.39C331.723 160.179 331.723 159.969 331.513 159.759C331.302 159.549 331.302 159.549 331.092 159.549L329.202 158.918V157.867H336.765V158.918L334.874 159.549C334.664 159.549 334.454 159.759 334.244 159.969C334.034 160.179 334.034 160.179 334.034 160.39V174.263L333.613 177.627H330.672L321.428 165.014Z" fill="white"/>
<path d="M169.958 213.994C168.277 213.994 167.017 213.784 165.756 213.363C164.496 212.943 163.445 212.522 162.605 211.682C161.765 211.051 161.134 210.21 160.714 209.369C160.294 208.528 160.084 207.688 160.084 206.637V191.502C160.084 191.291 160.084 191.081 159.874 190.871C159.664 190.661 159.454 190.661 159.244 190.45L156.933 189.82V188.769H168.277V189.82L165.966 190.45C165.756 190.45 165.546 190.661 165.336 190.871C165.126 191.081 165.126 191.291 165.126 191.502V204.955C165.126 205.375 165.126 205.796 165.126 206.216C165.126 206.637 165.336 207.057 165.546 207.688C165.756 208.318 165.966 208.528 166.176 208.949C166.386 209.369 166.807 209.79 167.227 210C167.647 210.21 168.277 210.631 168.697 210.841C169.328 211.051 169.958 211.051 170.798 211.051C171.639 211.051 172.269 211.051 172.899 210.841C173.529 210.631 174.16 210.42 174.58 210C175 209.579 175.42 209.369 175.63 208.949C175.84 208.528 176.26 208.108 176.47 207.688C176.681 207.267 176.891 206.847 176.891 206.216C176.891 205.796 177.101 205.375 177.101 204.955V191.502C177.101 191.291 177.101 191.081 176.891 190.871C176.681 190.661 176.47 190.661 176.26 190.45L173.949 189.61V188.559H182.353V189.61L180.042 190.45C179.832 190.45 179.622 190.661 179.412 190.871C179.202 191.081 179.202 191.291 179.202 191.502V206.006C179.202 207.057 178.991 207.898 178.781 208.528C178.571 209.369 178.151 210 177.521 210.631C176.891 211.261 176.47 211.682 175.84 212.102C175.21 212.522 174.58 212.943 173.739 213.153C173.109 213.363 172.269 213.573 171.638 213.784C171.008 213.994 170.588 213.994 169.958 213.994Z" fill="white"/>
<path d="M189.916 200.751L188.235 198.438V210.63C188.235 210.841 188.235 211.051 188.445 211.051C188.655 211.051 188.655 211.261 189.075 211.471L190.966 212.102V213.153H183.403V212.312L185.294 211.681C185.504 211.681 185.714 211.471 185.714 211.261C185.924 211.051 185.924 210.841 185.924 210.841V196.336C185.924 196.126 185.924 195.916 185.714 195.706C185.504 195.495 185.504 195.495 185.294 195.495L183.193 194.865V193.814H190.336L198.739 205.375L200.21 207.267V196.126C200.21 195.916 200.21 195.706 200 195.495C199.79 195.285 199.58 195.495 199.37 195.285L197.479 194.655V193.604H205.042V194.655L203.151 195.285C202.941 195.285 202.731 195.495 202.521 195.706C202.311 195.916 202.311 195.916 202.311 196.126V210L201.891 213.363H198.949L189.916 200.751Z" fill="white"/>
<path d="M206.512 212.312L208.403 211.681C208.613 211.681 208.823 211.471 208.823 211.471C209.033 211.261 209.033 211.051 209.033 210.841V196.126C209.033 195.916 209.033 195.706 208.823 195.495C208.613 195.285 208.613 195.285 208.403 195.285L206.512 194.655V193.604H216.596V194.655L214.706 195.285C214.496 195.285 214.286 195.495 214.286 195.706C214.075 195.916 214.075 196.126 214.075 196.336V211.051C214.075 211.261 214.075 211.471 214.286 211.681C214.496 211.892 214.496 211.892 214.916 211.892L216.807 212.522V213.573H206.723V212.312H206.512Z" fill="white"/>
<path d="M218.907 196.126C218.907 195.916 218.697 195.706 218.487 195.706C218.277 195.495 218.067 195.495 217.857 195.285L216.386 194.655V193.604H226.26V194.655L223.739 195.285L228.151 206.216L228.992 208.318L234.034 195.495L231.513 194.655V193.604H238.445V194.655L236.975 195.285C236.765 195.285 236.555 195.495 236.555 195.706C236.344 195.916 236.344 195.916 236.134 196.126L230.462 210.21L228.781 213.363H226.26L218.907 196.126Z" fill="white"/>
<path d="M238.445 212.312L240.336 211.681C240.546 211.681 240.756 211.471 240.756 211.471C240.966 211.261 240.966 211.051 240.966 210.841V196.126C240.966 195.916 240.966 195.706 240.756 195.495C240.546 195.285 240.546 195.285 240.336 195.285L238.445 194.655V193.604H255.252V198.859H254.202L252.941 195.916C252.941 195.706 252.731 195.706 252.731 195.495C252.731 195.285 252.521 195.285 252.311 195.285H246.008V202.012H250C250.21 202.012 250.42 202.012 250.42 201.802C250.42 201.802 250.63 201.591 250.63 201.381L251.681 199.069H252.731V206.426H251.681L250.63 204.114C250.63 203.904 250.42 203.904 250.42 203.694C250.42 203.694 250.21 203.483 250 203.483H246.008V211.051H253.781C253.992 211.051 254.202 211.051 254.202 210.841C254.202 210.841 254.412 210.63 254.412 210.42L255.672 207.057H256.933V212.733H238.865V212.312H238.445Z" fill="white"/>
<path d="M258.403 212.312L260.294 211.681C260.504 211.681 260.714 211.471 260.714 211.471C260.924 211.261 260.924 211.051 260.924 210.841V196.126C260.924 195.916 260.924 195.706 260.714 195.495C260.504 195.285 260.504 195.285 260.294 195.285L258.403 194.655V193.604H268.067C269.748 193.604 271.008 193.814 272.059 194.024C273.109 194.234 273.95 194.655 274.58 195.075C275.21 195.495 275.63 196.126 275.84 196.546C276.05 197.177 276.26 197.808 276.26 198.228C276.26 199.069 276.05 199.7 275.84 200.33C275.63 200.961 275.21 201.381 274.79 201.802C274.37 202.222 273.95 202.642 273.319 202.853C272.689 203.063 272.479 203.273 272.059 203.483L276.891 210.42C276.891 210.63 277.101 210.63 277.101 210.841C277.101 211.051 277.311 211.051 277.521 211.261C277.731 211.471 277.731 211.471 277.941 211.471C278.151 211.471 278.151 211.681 278.361 211.681L280.252 212.312V213.363H275C274.58 213.363 274.16 213.363 273.95 213.363C273.739 213.363 273.319 213.153 273.109 213.153C272.899 212.943 272.689 212.733 272.479 212.522C272.269 212.312 272.059 212.102 271.849 211.681L267.437 205.165L265.966 204.745V211.051C265.966 211.261 265.966 211.471 266.176 211.681C266.387 211.892 266.387 211.892 266.597 211.892L268.908 212.522V213.573H258.403V212.312ZM267.647 203.273C268.277 203.273 268.697 203.063 269.118 202.853C269.538 202.642 269.958 202.432 270.168 202.012C270.378 201.591 270.588 201.171 270.798 200.751C271.008 200.33 271.008 199.7 271.008 199.279C271.008 198.018 270.798 196.967 270.168 196.336C269.538 195.706 268.697 195.495 267.647 195.495H265.966V203.273C265.966 203.273 266.176 203.273 266.387 203.273C266.597 203.273 266.807 203.273 266.807 203.273C267.017 203.273 267.227 203.273 267.647 203.273Z" fill="white"/>
<path d="M287.185 213.783C286.555 213.783 285.924 213.783 285.294 213.783C284.664 213.783 284.034 213.573 283.403 213.573C282.773 213.362 282.353 213.362 281.723 213.152C281.092 212.942 280.672 212.942 280.042 212.732L279.622 207.056H280.672L281.933 209.999C281.933 210.209 282.143 210.209 282.143 210.419C282.353 210.63 282.353 210.63 282.563 210.84C282.773 211.05 283.193 211.26 283.613 211.471C284.034 211.681 284.454 211.891 284.874 211.891C285.294 211.891 285.714 212.101 286.134 212.311C286.555 212.311 286.975 212.522 287.185 212.522C287.815 212.522 288.235 212.522 288.655 212.311C289.076 212.101 289.496 211.891 289.706 211.471C289.916 211.05 290.336 210.84 290.336 210.419C290.546 209.999 290.546 209.579 290.546 209.158C290.546 208.738 290.546 208.528 290.336 208.317C290.126 208.107 290.126 207.897 289.916 207.477C289.706 207.266 289.496 207.056 289.076 206.846C288.655 206.636 288.445 206.426 287.815 206.215C287.395 206.005 286.975 206.005 286.765 205.795C286.555 205.585 286.134 205.585 285.714 205.374C285.294 205.374 285.084 205.164 284.664 205.164C284.244 204.954 284.034 204.954 283.613 204.744C282.983 204.534 282.353 204.113 281.723 203.693C281.302 203.272 280.882 202.852 280.462 202.432C280.042 202.011 279.832 201.381 279.832 200.96C279.622 200.329 279.622 199.909 279.622 199.278C279.622 198.438 279.832 197.597 280.252 196.966C280.672 196.335 281.092 195.705 281.933 195.074C282.563 194.654 283.403 194.233 284.454 193.813C285.294 193.603 286.345 193.393 287.395 193.393C288.025 193.393 288.655 193.393 289.286 193.393C289.916 193.393 290.546 193.603 291.176 193.603C291.807 193.603 292.227 193.813 292.857 193.813C293.277 194.023 293.908 194.023 294.328 194.233V199.489H293.277L292.017 196.756C292.017 196.546 291.807 196.546 291.807 196.336C291.807 196.125 291.597 196.125 291.387 196.125C291.176 195.915 290.756 195.915 290.546 195.705C290.126 195.495 289.916 195.495 289.496 195.284C289.076 195.074 288.866 195.074 288.445 195.074C288.025 195.074 287.815 195.074 287.605 195.074C287.185 195.074 286.765 195.074 286.345 195.284C285.924 195.495 285.714 195.705 285.294 195.915C285.084 196.125 284.874 196.546 284.664 196.756C284.454 196.966 284.454 197.387 284.454 197.807C284.454 198.227 284.454 198.438 284.664 198.858C284.664 199.068 284.874 199.489 285.084 199.699C285.294 199.909 285.714 200.119 285.924 200.329C286.345 200.54 286.765 200.75 287.185 200.96C287.605 201.17 287.815 201.17 288.235 201.381C288.655 201.591 288.866 201.591 289.286 201.591C289.706 201.591 289.916 201.801 290.336 202.011C290.756 202.221 290.966 202.221 291.387 202.432C291.807 202.642 292.437 202.852 292.857 203.272C293.277 203.693 293.697 203.903 294.118 204.534C294.538 204.954 294.748 205.585 294.958 206.005C295.168 206.426 295.378 207.266 295.378 207.897C295.378 208.738 295.168 209.368 294.958 210.209C294.538 211.05 294.118 211.681 293.487 212.101C292.857 212.732 291.807 213.152 290.756 213.573C290.126 213.573 288.655 213.783 287.185 213.783Z" fill="white"/>
<path d="M297.689 212.312L299.58 211.681C299.79 211.681 300 211.471 300 211.471C300.21 211.261 300.21 211.051 300.21 210.841V196.126C300.21 195.916 300.21 195.706 300 195.495C299.79 195.285 299.79 195.285 299.58 195.285L297.689 194.655V193.604H307.773V194.655L305.882 195.285C305.672 195.285 305.462 195.495 305.462 195.706C305.252 195.916 305.252 196.126 305.252 196.336V211.051C305.252 211.261 305.252 211.471 305.462 211.681C305.672 211.892 305.672 211.892 306.092 211.892L307.983 212.522V213.573H297.899V212.312H297.689Z" fill="white"/>
<path d="M313.235 212.311L315.546 211.68C315.756 211.68 315.966 211.47 315.966 211.47C316.176 211.26 316.176 211.05 316.176 210.839V195.494H312.185C311.975 195.494 311.765 195.494 311.765 195.704C311.765 195.704 311.555 195.915 311.555 196.125L310.294 199.278H309.244V193.812H328.151V199.278H327.101L325.84 196.125C325.84 195.915 325.63 195.915 325.63 195.704C325.63 195.494 325.42 195.494 325.21 195.494H321.218V211.05C321.218 211.26 321.218 211.47 321.429 211.68C321.639 211.89 321.849 211.89 321.849 211.89L323.95 212.521V213.572H313.235V212.311Z" fill="white"/>
<path d="M332.773 212.311L334.874 211.681C335.084 211.681 335.294 211.471 335.294 211.471C335.504 211.26 335.504 211.05 335.504 210.84V205.164L330.042 195.915C329.832 195.705 329.832 195.495 329.622 195.495C329.412 195.284 329.202 195.284 328.992 195.074L327.521 194.444V193.393H337.395V194.444L334.874 195.074L338.445 200.96L339.496 202.642L344.118 195.284L341.807 194.444V193.393H348.529V194.444L347.059 195.074C346.849 195.074 346.639 195.284 346.639 195.495C346.429 195.705 346.429 195.705 346.218 195.915L340.546 204.744V210.419C340.546 210.63 340.546 210.84 340.756 211.05C340.966 211.26 340.966 211.26 341.176 211.26L343.487 211.891V212.942H332.773V212.311Z" fill="white"/>
<path d="M108.824 405.281L106.303 403.81C106.092 403.599 105.672 403.599 105.462 403.599C105.252 403.599 104.832 403.599 104.622 403.81L87.6051 418.945C87.395 419.155 87.1849 419.365 87.1849 419.785C87.1849 420.206 87.1849 420.416 87.395 420.626L88.6555 423.149L87.6051 423.99L80.2522 415.791L88.8656 400.236L91.1765 396.242L70.3782 404.44L63.2354 396.242L64.2858 395.401L66.5967 396.873C66.8068 397.083 67.2269 397.083 67.437 397.083C67.6471 397.083 68.0673 396.873 68.2774 396.662L85.2942 381.527C85.5043 381.317 85.7144 381.107 85.7144 380.687C85.7144 380.476 85.7143 380.056 85.5043 379.846L84.2438 377.323L85.2942 376.482L94.3278 386.572L93.2774 387.413L90.9665 385.942C90.7564 385.732 90.3362 385.732 90.1261 385.732C89.916 385.732 89.4959 385.942 89.2858 386.152L72.8992 400.656L76.6807 398.975L92.8572 392.668L98.1093 390.987L99.5799 392.668L88.6555 412.428L86.5547 416.212L102.941 401.707C103.151 401.497 103.361 401.287 103.361 400.867C103.361 400.656 103.361 400.236 103.151 400.026L102.101 397.293L103.151 396.452L109.874 404.02L108.824 405.281Z" fill="white"/>
<path d="M84.4539 376.484L82.353 374.592C82.143 374.382 81.9329 374.172 81.5127 374.172C81.0925 374.172 80.8825 374.172 80.6724 374.382L61.7648 387.204C61.5547 387.415 61.3446 387.625 61.3446 387.835C61.3446 388.045 61.3446 388.466 61.3446 388.676L62.185 391.409L61.1346 392.25L53.5715 381.108L54.622 380.268L56.7228 382.159C56.9329 382.37 57.143 382.37 57.5631 382.58C57.7732 382.58 58.1934 382.58 58.4035 382.37L77.311 369.547C77.5211 369.337 77.7312 369.127 77.7312 368.916C77.7312 368.706 77.7312 368.286 77.7312 368.075L76.8909 365.343L77.9413 364.502L85.5043 375.643L84.4539 376.484Z" fill="white"/>
<path d="M77.1009 365.553L75.8404 366.184L74.1598 364.502C73.9497 364.292 73.5295 363.872 73.1093 363.872C72.6892 363.662 72.0589 363.451 71.6387 363.451L56.5127 361.139C56.3026 361.98 56.0925 362.611 55.6724 363.241C55.2522 363.872 54.832 364.502 54.4119 365.133C53.9917 365.764 53.5715 366.184 53.1514 366.815C52.7312 367.235 52.311 367.866 52.1009 368.286C51.8909 368.707 51.6808 369.127 51.4707 369.547C51.2606 369.968 51.4707 370.388 51.6808 370.809C51.6808 371.019 51.8908 371.019 51.8908 371.229C52.1009 371.439 52.1009 371.65 52.311 371.86C52.5211 372.07 52.7312 372.28 52.7312 372.701C52.9413 372.911 53.1514 373.121 53.1514 373.541L53.3614 374.172L49.3698 377.325C49.1598 376.905 48.7396 376.484 48.3194 376.064C47.8993 375.643 47.6892 375.013 47.269 374.382C46.8488 373.541 46.6387 372.701 46.6387 371.86C46.6387 371.019 46.8488 370.178 47.269 369.337C47.6892 368.707 47.8993 368.286 48.3194 367.656C48.7396 367.235 49.1598 366.604 49.5799 366.184C50.0001 365.764 50.4203 365.343 50.8404 364.713C51.2606 364.082 51.6808 363.662 52.1009 363.241C52.5211 362.611 52.9413 361.98 53.3614 361.349C53.7816 360.719 54.2018 359.878 54.4119 358.827C54.4119 358.617 54.6219 358.196 54.6219 357.986C54.6219 357.776 54.6219 357.355 54.6219 357.145C54.6219 356.935 54.4119 356.514 54.4119 356.304C54.4119 356.094 54.2018 355.674 54.2018 355.463L53.7816 354.833L44.3278 359.668C44.1177 359.878 43.9077 360.088 43.6976 360.298C43.4875 360.508 43.4875 360.929 43.6976 361.139L44.1177 363.872L42.8572 364.502L36.7648 352.31L38.0253 351.68L39.9161 353.782C40.1261 353.992 40.3362 354.202 40.5463 354.202C40.7564 354.202 41.1766 354.202 41.3866 354.202L50.8404 349.367L50.4203 348.737C50.2102 348.527 50.2102 348.316 50.0001 348.106C49.79 347.896 49.5799 347.686 49.3698 347.475C49.1598 347.265 48.9497 347.055 48.7396 346.845C48.5295 346.635 48.3194 346.635 47.8993 346.424C46.8488 346.214 46.0085 346.004 45.1682 345.794C44.3278 345.584 43.4875 345.584 42.8572 345.584C42.227 345.584 41.3867 345.584 40.7564 345.794C40.1261 345.794 39.4959 346.004 38.8656 346.004C38.2354 346.004 37.6051 346.214 36.9749 346.214C36.3446 346.214 35.7144 346.214 35.0841 346.004C34.664 346.004 34.2438 345.794 33.8236 345.584C33.4035 345.373 32.9833 345.163 32.7732 344.953C32.353 344.743 32.143 344.322 31.9329 344.112C31.7228 343.692 31.5127 343.482 31.3026 343.061C31.0925 342.43 30.6724 341.8 30.6724 341.379C30.4623 340.749 30.2522 340.328 30.2522 339.698L35.0841 338.437L35.2942 339.067C35.2942 339.277 35.5043 339.698 35.5043 339.908C35.5043 340.118 35.7144 340.539 35.7144 340.749C35.7144 340.959 35.9245 341.379 35.9245 341.59C35.9245 341.8 36.1345 342.01 36.1345 342.22C36.3446 342.641 36.5547 342.851 36.9749 343.061C37.395 343.271 37.8152 343.271 38.2354 343.482C38.6556 343.482 39.2858 343.482 39.9161 343.482C40.5463 343.482 41.1766 343.482 41.8068 343.482C42.4371 343.482 43.2774 343.482 43.9077 343.692C44.5379 343.692 45.3782 343.902 46.2186 344.322L53.9917 330.869C54.2018 330.449 54.4119 330.028 54.6219 329.398C54.832 328.977 54.832 328.557 54.6219 328.136L54.2018 325.824L55.4623 325.193L58.4035 330.659C58.6135 331.079 58.8236 331.5 59.0337 331.92C59.0337 332.34 59.0337 332.551 59.0337 332.971C59.0337 333.181 58.8236 333.602 58.6135 334.022C58.4035 334.443 58.1934 334.653 57.9833 335.283L51.2606 347.055L51.8908 349.367L61.1345 344.743C61.3446 344.533 61.5547 344.322 61.7648 344.112C61.7648 343.902 61.9749 343.482 61.7648 343.271L61.3446 340.539L62.6051 339.908L68.6976 352.1L67.4371 352.731L65.5463 350.629C65.3362 350.418 65.1261 350.208 64.706 350.208C64.4959 350.208 64.0757 350.208 63.8656 350.418L54.6219 355.043L55.8824 356.725L69.3278 358.617C69.9581 358.617 70.3782 358.827 70.7984 358.827C71.2186 358.827 71.4287 359.037 71.8488 359.037C72.0589 359.247 72.4791 359.457 72.6892 359.668C72.8992 359.878 73.1093 360.298 73.3194 360.929L77.1009 365.553Z" fill="white"/>
<path d="M56.5127 326.034L55.0422 323.722C54.8321 323.512 54.622 323.301 54.4119 323.091C54.2018 322.881 53.7817 322.881 53.5716 323.091L31.7228 329.397C31.3027 329.397 31.0926 329.608 31.0926 329.818C30.8825 330.028 30.8825 330.238 30.8825 330.659V333.391L29.4119 333.812L25.6304 320.779L26.8909 320.358L28.3615 322.671C28.5716 322.881 28.7817 323.091 28.9917 323.301C29.2018 323.511 29.622 323.511 29.8321 323.301L39.0758 320.569L35.7144 309.007L26.4707 311.74C26.0506 311.74 25.8405 311.95 25.8405 312.16C25.6304 312.37 25.6304 312.581 25.6304 313.001V315.734L24.3699 316.154L20.5884 303.121L21.8489 302.701L23.3195 305.013C23.5296 305.223 23.7396 305.434 23.9497 305.644C24.1598 305.854 24.58 305.854 24.7901 305.644L46.6388 299.337C47.059 299.337 47.269 299.127 47.269 298.917C47.4791 298.707 47.4791 298.497 47.4791 298.076V295.133L48.7396 294.713L52.5211 307.746L51.2606 308.166L49.7901 305.854C49.58 305.644 49.3699 305.434 49.1598 305.223C48.9497 305.013 48.5296 305.013 48.3195 305.223L38.0254 308.166L41.3867 319.938L51.6808 316.995C52.101 316.995 52.3111 316.785 52.3111 316.575C52.5212 316.364 52.5211 315.944 52.5211 315.734V313.001L53.7817 312.581L57.5632 325.614L56.5127 326.034Z" fill="white"/>
<path d="M48.1094 297.024L47.059 295.133C46.6388 294.502 46.2186 294.292 45.5884 294.082L22.8993 288.616L17.6472 286.724L17.2271 284.202L42.227 270.118C42.4371 269.908 42.6472 269.697 42.8573 269.487C43.0674 269.277 43.2775 268.856 43.2775 268.646L43.6976 266.544L44.9581 266.334L46.8489 279.157L45.5884 279.367L44.1178 275.793L36.5548 280.208L37.8153 289.667L46.2186 291.559L46.6388 287.775L47.8993 287.565L49.1598 296.814L48.1094 297.024ZM34.4539 281.259L27.7313 285.043L25.0002 286.514L35.5044 288.826L34.4539 281.259Z" fill="white"/>
<path d="M44.1177 268.015L43.2774 265.283C43.2774 265.072 43.0673 264.652 42.8572 264.652C42.6471 264.442 42.437 264.442 42.0169 264.442L19.1177 264.862C18.6975 264.862 18.4874 264.862 18.2774 265.072C18.0673 265.283 17.8572 265.493 17.8572 265.913L17.2269 268.646H15.9664L15.7563 255.823C15.7563 254.352 15.9664 252.88 16.1765 251.409C16.3866 249.937 16.8068 248.886 17.437 247.835C18.0673 246.784 18.9076 245.943 19.958 245.313C21.0084 244.682 22.269 244.472 23.5295 244.262C25 244.262 26.4706 244.472 27.5211 244.892C28.7816 245.313 29.832 246.154 30.6723 246.994C31.5126 247.835 32.1429 248.886 32.5631 250.148C32.9832 251.409 33.1933 252.67 33.1933 253.931C33.1933 254.352 33.1933 254.562 32.9832 254.982C32.9832 255.403 32.7732 255.823 32.5631 256.244C32.353 256.664 32.353 257.084 32.1429 257.505C31.9328 257.925 31.7227 258.136 31.5127 258.556L41.3866 258.346C41.8068 258.346 42.0168 258.135 42.2269 257.925C42.437 257.715 42.6471 257.505 42.6471 257.295L43.4874 254.142H44.7479L44.958 268.015H44.1177ZM30.8824 255.403C30.8824 254.772 30.6723 254.142 30.4622 253.721C30.2521 253.301 29.832 252.88 29.6219 252.46C29.4118 252.039 28.7816 251.829 28.3614 251.619C27.9412 251.409 27.5211 251.199 26.8908 251.199C26.4706 250.988 26.0505 250.988 25.6303 250.988C25.2101 250.988 24.79 250.988 24.5799 250.988C23.7395 250.988 22.8992 251.199 22.0589 251.199C21.2185 251.409 20.5883 251.619 19.958 252.039C19.3278 252.46 18.9076 253.09 18.4874 253.721C18.0673 254.352 18.0673 255.403 18.0673 256.454V258.556L30.6723 258.346C30.6723 258.136 30.6723 257.925 30.8824 257.715C30.8824 257.505 30.8824 257.295 30.8824 256.874C30.8824 256.664 30.8824 256.244 30.8824 256.033C30.8824 255.823 30.8824 255.613 30.8824 255.403Z" fill="white"/>
<path d="M47.4791 229.127C47.269 231.439 46.6388 233.331 45.5884 235.013C44.5379 236.694 43.4875 238.166 41.8069 239.217C40.3363 240.268 38.6556 241.109 36.5548 241.319C34.4539 241.529 32.5632 241.739 30.2522 241.529C28.1514 241.319 26.2606 240.688 24.3699 239.848C22.4791 239.007 21.0085 237.956 19.748 236.484C18.4875 235.013 17.6472 233.541 17.0169 231.649C16.3867 229.758 16.1766 227.655 16.5968 225.553C16.8069 223.031 17.4371 220.929 18.4875 219.247C19.5379 217.565 20.7984 216.094 22.269 215.253C23.7396 214.202 25.6304 213.571 27.5211 213.151C29.4119 212.731 31.5127 212.731 33.6136 212.941C34.8741 213.151 36.1346 213.361 37.185 213.782C38.4455 214.202 39.4959 214.622 40.5463 215.253C41.5968 215.884 42.6472 216.725 43.4875 217.565C44.3279 218.406 45.1682 219.457 45.7984 220.719C46.4287 221.77 46.8489 223.241 47.059 224.502C47.4791 225.974 47.4791 227.445 47.4791 229.127ZM45.1682 228.496C45.3783 227.235 45.1682 226.184 44.5379 225.133C43.9077 224.082 43.2774 223.241 42.227 222.4C41.1766 221.559 39.9161 221.139 38.4455 220.508C36.9749 220.088 35.2942 219.667 33.6136 219.457C31.5127 219.247 29.8321 219.247 27.9413 219.247C26.2606 219.457 24.79 219.667 23.5295 220.298C22.269 220.929 21.2186 221.559 20.3783 222.4C19.5379 223.241 19.1178 224.502 18.9077 225.974C18.6976 227.235 18.9077 228.496 19.5379 229.547C20.1682 230.598 21.0085 231.439 22.059 232.07C23.1094 232.7 24.3699 233.331 25.8405 233.751C27.3111 234.172 28.7816 234.592 30.4623 234.803C32.3531 235.013 34.2438 235.013 35.9245 235.013C37.6052 235.013 39.0758 234.592 40.5463 234.172C41.8069 233.751 42.8573 232.911 43.6976 232.07C44.5379 231.019 44.9581 229.968 45.1682 228.496Z" fill="white"/>
<path d="M46.0086 213.781L46.4287 212.309C45.7985 211.258 44.9581 210.418 43.9077 209.367C42.8573 208.315 42.017 207.475 40.9665 206.634C39.9161 205.793 38.6556 204.952 37.6052 204.111C36.3447 203.27 35.0842 202.64 33.8237 202.009C32.5632 201.379 31.3027 200.748 29.8321 200.117C28.5716 199.697 27.101 199.066 25.8405 198.856C25.4203 198.856 25.2102 198.646 25.0001 198.646C24.7901 198.646 24.58 198.646 24.3699 198.646C24.1598 198.646 24.1598 198.856 23.9497 198.856C23.9497 198.856 23.7396 199.066 23.7396 199.277L22.269 202.009L21.0085 201.799L27.3111 177.625L28.5716 178.045V180.988C28.5716 181.199 28.5716 181.619 28.7817 181.829C28.9917 182.039 29.2018 182.25 29.4119 182.25L52.5212 188.346L53.5716 184.352L63.2354 186.874L63.0254 188.766L55.8825 189.186C55.6724 189.186 55.4623 189.186 55.2523 189.397C55.0422 189.397 55.0422 189.607 54.8321 189.817L49.58 209.367C49.58 209.577 49.58 209.787 49.58 209.997C49.58 210.207 49.7901 210.207 50.0002 210.418L56.0926 214.412L55.6724 216.303L46.0086 213.781ZM51.2607 194.231L27.3111 187.925L25.2102 195.703C27.7312 196.544 30.2522 197.385 32.5632 198.436C34.8741 199.487 36.9749 200.748 38.8657 201.799C40.7564 203.06 42.4371 204.322 43.9077 205.583C45.3783 206.844 46.6388 208.105 47.4791 209.367L51.2607 194.231Z" fill="white"/>
<path d="M55.042 183.932L55.4622 181.199C55.4622 180.989 55.4622 180.568 55.2521 180.358C55.042 180.148 54.8319 179.938 54.6218 179.727L33.6134 170.478C33.4033 170.268 32.9832 170.268 32.7731 170.478C32.563 170.478 32.3529 170.688 32.1428 170.899L30.2521 173.001L29.2017 172.58L34.6638 160.178L35.9243 160.598L35.5042 163.331C35.5042 163.541 35.5042 163.962 35.7143 164.172C35.9243 164.382 36.1344 164.592 36.3445 164.803L45.168 168.586L50 157.445L41.1764 153.662C40.9664 153.451 40.5462 153.451 40.3361 153.662C40.126 153.872 39.9159 153.872 39.7059 154.082L37.8151 156.184L36.5546 155.764L42.0168 143.361L43.2773 143.782L42.8571 146.514C42.8571 146.725 42.8571 147.145 43.0672 147.355C43.2773 147.566 43.4874 147.776 43.6975 147.986L64.7059 157.025C64.9159 157.235 65.3361 157.235 65.5462 157.025C65.7563 157.025 65.9664 156.815 66.1764 156.604L68.0672 154.502L69.3277 154.923L63.8655 167.325L62.605 166.905L63.0252 164.172C63.0252 163.962 63.0252 163.541 62.8151 163.331C62.605 163.121 62.3949 162.911 62.1848 162.701L52.3109 158.286L47.479 169.427L57.3529 173.842C57.563 174.052 57.9832 174.052 58.1932 173.842C58.4033 173.842 58.6134 173.631 58.8235 173.421L60.7143 171.319L61.9748 171.74L56.5126 184.142L55.042 183.932Z" fill="white"/>
<path d="M68.0673 154.082L68.9076 151.349C68.9076 151.139 68.9076 150.719 68.9076 150.508C68.9076 150.298 68.6975 150.088 68.4874 149.878L49.1597 137.686C48.9496 137.476 48.5294 137.476 48.3194 137.476C48.1093 137.476 47.6891 137.686 47.479 137.896L45.3782 139.788L44.1177 138.947L51.4706 127.596L52.521 128.226L51.6807 130.959C51.6807 131.169 51.6807 131.59 51.6807 131.8C51.6807 132.01 51.8908 132.22 52.311 132.431L66.3866 141.47L68.0673 142.731L68.9076 143.151L57.9832 121.079L56.3026 120.028L61.5547 111.83L62.6051 112.461L61.7647 115.193C61.7647 115.404 61.7647 115.824 61.7647 116.034C61.7647 116.244 61.9748 116.455 62.395 116.665L81.7227 128.857C81.9328 129.067 82.353 129.067 82.5631 129.067C82.7731 129.067 83.1933 128.857 83.4034 128.647L85.5042 126.755L86.5546 127.386L79.2017 138.737L78.1513 138.106L78.9916 135.373C78.9916 135.163 78.9916 134.743 78.9916 134.533C78.9916 134.322 78.7815 134.112 78.3614 133.902L64.0757 124.863L62.395 123.812L61.7647 123.392L72.6891 145.463L74.3698 146.515L69.1177 154.713L68.0673 154.082Z" fill="white"/>
<path d="M72.689 92.2802C71.8487 93.3312 71.0083 93.9619 70.168 94.3823C69.3277 94.8027 68.4873 95.2231 67.8571 95.4333C67.2268 95.6435 66.3865 95.6435 65.9663 95.6435C65.3361 95.6435 64.9159 95.4333 64.7058 95.0129L63.0251 93.5415L65.9663 90.1781L66.8067 90.8087L68.6974 92.4904C68.9075 92.4904 69.1176 92.4904 69.3277 92.2802C69.5378 92.07 69.7478 92.07 70.168 91.8598C70.3781 91.6496 70.5882 91.4394 70.7982 91.2292C71.0083 91.0189 71.2184 90.8087 71.4285 90.5985C71.6386 90.3883 71.8487 90.1781 71.8487 89.9679C72.0588 89.7577 72.2688 89.5475 72.2688 89.1271C72.2688 88.7067 72.4789 88.4964 72.4789 88.2862C72.4789 88.076 72.4789 87.8658 72.4789 87.6556L70.7982 86.3944L69.9579 85.7637L72.8991 82.4004L74.5798 83.8718C74.7899 84.0821 75.21 84.5025 75.21 85.1331C75.4201 85.7637 75.4201 86.3944 75.4201 87.025C75.4201 87.8658 74.9999 88.4964 74.5798 89.5475C74.1596 90.3883 73.5293 91.4394 72.689 92.2802ZM85.7142 126.544L86.9747 124.022C87.1848 123.812 87.1848 123.391 87.1848 123.181C87.1848 122.971 86.9747 122.55 86.7646 122.34L69.7478 107.205C69.5377 106.995 69.3277 106.785 68.9075 106.785C68.6974 106.785 68.2773 106.785 68.0672 106.995L65.7562 108.466L64.7058 107.625L73.7394 97.5354L74.7898 98.3763L73.5293 100.899C73.3193 101.109 73.3193 101.529 73.3193 101.74C73.3193 101.95 73.5293 102.37 73.7394 102.58L86.1344 113.722L87.605 115.193L88.2352 115.613L80.8823 92.07L79.4117 90.8087L85.9243 83.4514L86.9747 84.2923L85.7142 86.8148C85.5041 87.025 85.5041 87.4454 85.5041 87.6556C85.5041 87.8658 85.7142 88.2862 85.9243 88.4964L102.941 103.631C103.151 103.842 103.361 104.052 103.781 104.052C103.992 104.052 104.412 104.052 104.622 103.842L106.933 102.37L107.983 103.211L98.9495 113.301L97.8991 112.46L99.1596 109.938C99.3697 109.728 99.3697 109.307 99.3697 109.097C99.3697 108.887 99.1596 108.466 98.9495 108.256L86.3445 97.115L84.8739 95.6435L84.2436 95.0129L91.5966 118.556L93.0672 120.028L86.5546 127.385L85.7142 126.544Z" fill="white"/>
<path d="M128.361 87.447C126.681 88.7083 124.79 89.7593 123.109 90.1798C121.219 90.6002 119.538 90.8104 117.647 90.6002C115.756 90.39 114.076 89.5491 112.395 88.4981C110.714 87.447 109.034 85.9756 107.773 84.0837C106.303 82.1918 105.462 80.2999 104.832 78.4081C104.202 76.5162 103.992 74.6243 104.202 72.7324C104.412 70.8406 105.042 69.1589 105.883 67.4772C106.723 65.7955 107.983 64.3241 109.664 63.0628C110.294 62.6424 110.925 62.222 111.765 61.8016C112.605 61.3812 113.235 60.9607 114.076 60.5403C114.916 60.1199 115.756 59.6995 116.387 59.4893C117.227 59.0689 117.857 58.8586 118.277 58.6484L122.689 64.3241L121.639 65.1649L118.067 63.0628C117.857 62.8526 117.647 62.8526 117.437 62.8526C117.227 62.8526 117.017 62.8526 116.807 62.8526C115.756 63.0628 114.706 63.273 113.866 63.6935C113.025 64.1139 111.975 64.5343 111.135 65.1649C110.294 65.7955 109.664 66.6364 109.244 67.4772C108.824 68.318 108.614 69.3691 108.614 70.6303C108.614 71.6814 108.824 72.9426 109.244 74.4141C109.664 75.6754 110.504 77.1468 111.555 78.6183L119.748 72.312L121.429 74.4141L113.235 80.7204C114.496 82.1918 115.756 83.2429 117.017 84.0837C118.277 84.9245 119.538 85.345 120.798 85.7654C122.059 85.9756 123.319 85.9756 124.58 85.5552C125.84 85.1348 127.101 84.5041 128.151 83.6633C128.992 83.0327 129.622 82.402 130.042 81.7714C130.462 81.1408 130.883 80.5102 131.303 79.6693C131.513 79.0387 131.723 78.4081 131.933 77.7774C132.143 77.1468 132.143 76.5162 132.353 76.0958L132.983 75.4651L134.454 77.357C134.244 78.1979 134.034 79.0387 133.824 79.8795C133.614 80.7204 133.193 81.7714 132.563 82.6122C132.143 83.6633 131.513 84.5041 130.883 85.345C129.832 86.1858 129.202 86.8164 128.361 87.447Z" fill="white"/>
<path d="M135.924 79.2479L137.815 77.1458C138.025 76.9356 138.235 76.7253 138.235 76.3049C138.235 76.0947 138.235 75.6743 138.025 75.4641L126.471 55.7045C126.261 55.4943 126.05 55.284 125.84 55.0738C125.63 54.8636 125.21 54.8636 125 55.0738L122.269 55.7045L121.639 54.8636L132.563 48.5574C134.454 47.5063 136.134 46.6655 137.605 46.2451C139.076 45.8247 140.336 45.6144 141.387 45.8247C142.437 45.8247 143.277 46.2451 143.908 46.6655C144.538 47.0859 145.168 47.7165 145.588 48.5574C146.008 49.3982 146.429 50.239 146.429 51.0799C146.639 51.9207 146.429 52.7615 146.429 53.6024C146.218 54.4432 145.798 55.284 145.378 56.1249C144.958 56.9657 144.328 57.8066 143.487 58.4372C144.748 57.8066 145.798 57.3861 146.849 57.1759C147.899 56.9657 148.95 56.9657 150 56.9657C151.05 56.9657 151.891 57.3861 152.731 58.0168C153.571 58.4372 154.202 59.278 154.622 60.1189C155.252 61.1699 155.462 62.0107 155.672 62.8516C155.882 63.6924 155.882 64.7434 155.672 65.5843C155.462 66.4251 155.042 67.2659 154.622 68.1068C154.202 68.9476 153.571 69.5782 152.941 70.2089C152.311 70.8395 151.471 71.4701 150.63 72.1008C149.79 72.7314 148.95 73.362 148.109 73.7824L136.765 80.5091L135.924 79.2479ZM138.235 60.5393C139.286 59.9086 139.916 59.4882 140.546 58.8576C141.176 58.227 141.387 57.5963 141.597 56.9657C141.807 56.3351 141.807 55.7045 141.597 55.0738C141.387 54.4432 141.176 53.8126 140.756 52.9717C139.706 51.0799 138.655 50.0288 137.395 49.8186C136.134 49.3982 134.664 49.8186 133.193 50.6595L131.513 51.7105L136.975 61.1699L138.235 60.5393ZM147.059 71.4701C148.74 70.6293 149.58 69.368 150 68.317C150.42 67.0557 150 65.5843 149.16 63.9026C148.529 62.8516 147.899 62.2209 147.269 61.5903C146.639 60.9597 146.008 60.7495 145.168 60.5393C144.538 60.3291 143.697 60.3291 142.857 60.7495C142.017 60.9597 141.176 61.3801 140.126 62.0107L137.815 63.272L143.697 73.362L147.059 71.4701Z" fill="white"/>
<path d="M159.244 65.5843L161.345 63.6924C161.555 63.4822 161.765 63.272 161.765 63.0618C161.765 62.8516 161.765 62.4312 161.765 62.221L152.731 41.2001C152.521 40.9899 152.311 40.7797 152.101 40.5695C151.891 40.3593 151.471 40.3593 151.261 40.3593L148.53 40.7797L148.109 39.5184L159.874 34.4734C161.345 33.8428 162.605 33.4224 164.076 33.2122C165.546 33.002 166.807 33.002 167.857 33.002C169.118 33.2122 170.168 33.6326 171.009 34.2632C172.059 34.8938 172.689 35.9449 173.319 37.2061C173.95 38.6776 174.16 39.9388 174.16 41.2001C174.16 42.4614 173.95 43.7226 173.53 44.7737C173.109 45.8247 172.269 46.8757 171.429 47.7166C170.588 48.5574 169.328 49.3982 168.067 49.8187C167.857 50.0289 167.437 50.0289 167.017 50.0289C166.597 50.0289 166.177 50.2391 165.756 50.2391C165.336 50.2391 164.916 50.2391 164.496 50.2391C164.076 50.2391 163.656 50.2391 163.446 50.2391L167.437 59.4883C167.647 59.6985 167.857 59.9087 168.067 60.1189C168.277 60.3291 168.698 60.3291 168.908 60.3291L172.059 59.9087L172.479 61.1699L159.664 66.6354L159.244 65.5843ZM165.967 48.5574C166.597 48.3472 167.017 47.9268 167.437 47.5064C167.857 47.0859 168.067 46.6655 168.277 46.2451C168.488 45.8247 168.488 45.1941 168.488 44.7737C168.488 44.3532 168.488 43.7226 168.488 43.3022C168.488 42.8818 168.277 42.4614 168.277 42.0409C168.067 41.6205 168.067 41.4103 167.857 40.9899C167.437 40.1491 167.017 39.5184 166.597 38.6776C166.177 38.047 165.546 37.4163 164.916 36.9959C164.286 36.5755 163.656 36.3653 162.815 36.3653C161.975 36.3653 161.135 36.5755 160.084 36.9959L158.193 37.8368L163.235 49.3982C163.446 49.3982 163.656 49.3982 163.866 49.188C164.076 49.188 164.286 48.9778 164.706 48.9778C164.916 48.9778 165.126 48.7676 165.546 48.7676C165.336 48.7676 165.546 48.5574 165.967 48.5574Z" fill="white"/>
<path d="M196.429 53.6028C194.118 54.2334 192.227 54.4436 190.126 54.2334C188.025 54.0232 186.555 53.3926 184.874 52.3416C183.403 51.2905 181.933 50.0293 180.882 48.3476C179.832 46.6659 178.782 44.774 178.361 42.6719C177.731 40.5699 177.521 38.678 177.731 36.5759C177.941 34.4738 178.361 32.7921 179.202 31.1105C180.042 29.4288 181.092 27.9573 182.563 26.6961C184.034 25.4348 185.924 24.594 188.025 23.9634C190.336 23.3327 192.647 23.1225 194.538 23.3327C196.429 23.5429 198.319 24.3838 199.79 25.2246C201.261 26.2757 202.521 27.5369 203.782 29.2186C204.832 30.9003 205.672 32.7921 206.303 34.684C206.723 35.9453 206.933 37.2065 206.933 38.4678C207.143 39.729 206.933 40.9903 206.933 42.2515C206.723 43.5128 206.513 44.774 205.882 45.8251C205.462 47.0863 204.832 48.1374 203.992 48.9782C203.151 50.0293 202.101 50.8701 200.84 51.7109C199.37 52.5518 197.899 53.1824 196.429 53.6028ZM196.008 51.2905C197.269 50.8701 198.109 50.2395 198.95 49.3986C199.58 48.5578 200.21 47.5068 200.42 46.2455C200.63 44.9842 200.84 43.5128 200.63 42.0413C200.42 40.5699 200.21 38.8882 199.79 37.2065C199.16 35.3146 198.529 33.4228 197.899 31.9513C197.059 30.4798 196.219 29.2186 195.168 28.1675C194.118 27.1165 193.067 26.4859 192.017 26.0654C190.756 25.645 189.496 25.645 188.235 26.0654C186.975 26.4859 185.924 27.1165 185.294 27.9573C184.664 28.7982 184.034 30.0594 183.824 31.3207C183.613 32.5819 183.403 34.0534 183.613 35.5248C183.824 36.9963 184.034 38.678 184.454 40.1494C185.084 42.0413 185.714 43.723 186.345 45.4047C187.185 46.8761 188.025 48.1374 188.866 49.1884C189.916 50.2395 190.966 50.8701 192.017 51.2905C193.487 51.7109 194.748 51.7109 196.008 51.2905Z" fill="white"/>
<path d="M210.504 47.5057L213.025 46.4547C213.235 46.2444 213.445 46.2444 213.655 45.824C213.866 45.6138 213.866 45.4036 213.866 44.9832L210.924 22.2806C210.924 21.8602 210.714 21.65 210.504 21.4398C210.294 21.2296 210.084 21.0194 209.664 21.0194L206.933 20.599L206.723 19.3377L237.605 15.3438L237.815 16.605L235.294 17.656C235.084 17.8663 234.874 17.8663 234.664 18.2867C234.454 18.7071 234.454 18.9173 234.454 19.1275L237.395 41.8301C237.395 42.2505 237.605 42.4607 237.815 42.6709C238.025 42.8811 238.235 42.8811 238.655 43.0913L241.387 43.5117L241.597 44.773L228.151 46.4547L227.941 45.1934L230.462 44.1424C230.672 43.9321 230.882 43.9321 231.092 43.5117C231.303 43.3015 231.303 43.0913 231.303 42.6709L228.361 19.1275L216.807 20.599L219.958 44.3526C219.958 44.773 220.168 44.9832 220.378 45.1934C220.588 45.4036 220.798 45.4036 221.218 45.6138L223.95 46.0342L224.16 47.2955L210.714 48.9772L210.504 47.5057Z" fill="white"/>
<path d="M242.227 43.7219L244.958 42.8811C245.168 42.8811 245.588 42.6709 245.588 42.4607C245.798 42.2505 245.798 42.0403 245.798 41.6199L246.008 18.7071C246.008 18.2867 246.008 18.0765 245.798 17.8663C245.588 17.656 245.378 17.4458 245.168 17.4458L242.437 16.605V15.3438L266.176 15.554V23.3317H264.706L263.025 18.7071C263.025 18.4969 262.815 18.2867 262.815 18.0765C262.605 17.8663 262.605 17.8663 262.185 17.8663L252.311 17.656L252.101 28.3767H258.403C258.613 28.3767 258.823 28.3767 259.034 28.1665C259.244 27.9563 259.244 27.9563 259.244 27.7461L260.714 24.1725H261.975L261.765 34.8932H260.504L259.034 31.3196C259.034 31.1094 258.823 30.8992 258.823 30.689C258.613 30.4788 258.403 30.4788 258.193 30.4788H251.891L251.681 42.2505L263.235 42.4607C263.445 42.4607 263.655 42.4607 263.865 42.2505C264.076 42.0403 264.076 41.8301 264.076 41.6199L265.756 36.3646H267.227V44.773L241.807 44.5628L242.227 43.7219Z" fill="white"/>
<path d="M268.487 43.7228L271.219 43.3024C271.429 43.3024 271.849 43.0922 272.059 42.882C272.269 42.6718 272.479 42.4616 272.479 42.0412L276.05 19.5488C276.05 19.1284 276.05 18.9182 275.84 18.708C275.63 18.4978 275.42 18.2876 275.21 18.0773L272.689 16.8161L272.899 15.5548L286.345 17.6569L286.134 18.9182L283.403 19.3386C283.193 19.3386 282.773 19.5488 282.563 19.759C282.353 19.9692 282.143 20.1794 282.143 20.5999L279.622 37.2063L279.202 39.3084L278.992 40.1493L294.748 21.2305L294.958 19.3386L304.622 20.8101L304.412 22.0713L301.681 22.4917C301.471 22.4917 301.05 22.7019 300.84 22.9121C300.63 23.1224 300.42 23.3326 300.42 23.753L296.849 46.4555C296.849 46.876 296.849 47.0862 297.059 47.2964C297.269 47.5066 297.479 47.7168 297.689 47.927L300.21 49.1882L300 50.4495L286.555 48.3474L286.765 47.0862L289.496 46.6657C289.706 46.6657 290.126 46.4555 290.336 46.2453C290.546 46.0351 290.756 45.8249 290.756 45.4045L293.277 28.798L293.698 26.6959L293.908 25.8551L278.151 44.7739L277.941 46.6657L268.277 45.1943L268.487 43.7228ZM290.336 14.5038C289.076 14.2936 288.025 14.0834 287.185 13.663C286.345 13.2425 285.504 12.8221 285.084 12.1915C284.664 11.5609 284.244 11.1405 283.824 10.72C283.613 10.0894 283.613 9.66899 283.613 9.24857L284.034 7.14648L288.445 7.77711L288.235 8.82815L287.815 11.3507C287.815 11.5609 288.025 11.7711 288.235 11.7711C288.445 11.9813 288.656 11.9813 289.076 12.1915C289.496 12.4017 289.706 12.4017 289.916 12.6119C290.126 12.8221 290.546 12.8221 290.756 12.8221C290.966 12.8221 291.387 12.8221 291.597 12.8221C291.807 12.8221 292.227 12.8221 292.437 12.8221C292.647 12.8221 293.067 12.8221 293.277 12.6119C293.487 12.6119 293.698 12.4017 293.908 12.1915L294.328 9.66899L294.538 8.61795L298.95 9.24857L298.529 11.3507C298.529 11.7711 298.319 12.1915 297.899 12.6119C297.479 13.0323 297.059 13.4528 296.429 13.663C295.798 14.0834 294.958 14.2936 293.908 14.2936C292.647 14.714 291.597 14.5038 290.336 14.5038Z" fill="white"/>
<path d="M314.286 55.0748C312.185 54.4441 310.504 53.6033 309.034 52.342C307.563 51.0808 306.513 49.8195 305.672 48.1379C304.832 46.4562 304.412 44.7745 304.412 42.6724C304.412 40.5703 304.622 38.4683 305.252 36.156C305.672 34.6845 306.303 33.4232 306.933 32.162C307.563 30.9007 308.403 29.8497 309.454 29.0089C310.294 28.168 311.345 27.3272 312.395 26.6966C313.445 26.0659 314.706 25.6455 315.756 25.2251C317.017 25.0149 318.277 24.8047 319.538 24.8047C320.798 24.8047 322.059 25.0149 323.319 25.4353C323.95 25.6455 324.79 25.8557 325.63 26.2762C326.471 26.6966 327.311 26.9068 328.151 27.3272C328.992 27.7476 329.832 28.168 330.462 28.5884C331.093 29.0089 331.723 29.4293 332.143 29.8497L330.042 36.7866L328.572 36.3662L328.151 32.3722C328.151 32.162 327.941 31.9518 327.941 31.7416C327.941 31.5314 327.731 31.3212 327.521 31.3212C326.891 30.6905 326.051 29.8497 325.21 29.4293C324.37 29.0089 323.53 28.3782 322.479 28.168C321.429 27.7476 320.378 27.7476 319.328 27.9578C318.277 28.168 317.227 28.7987 316.387 29.4293C315.546 30.2701 314.496 31.3212 313.866 32.5824C313.025 33.8437 312.395 35.5253 311.765 37.4172C311.135 39.3091 310.924 41.201 310.714 42.8826C310.714 44.5643 310.924 46.0358 311.345 47.297C311.765 48.5583 312.605 49.6093 313.656 50.4502C314.706 51.291 315.967 51.9216 317.437 52.5523C318.488 52.7625 319.328 52.9727 320.168 52.9727C321.009 52.9727 321.849 52.9727 322.479 52.7625C323.109 52.5523 323.74 52.342 324.37 52.1318C325 51.9216 325.42 51.7114 326.051 51.291L326.891 51.5012L326.261 53.8135C325.63 54.0237 324.79 54.4441 323.74 54.6543C322.899 54.8646 321.849 55.0748 320.798 55.285C319.748 55.4952 318.698 55.4952 317.647 55.4952C316.387 55.4952 315.336 55.285 314.286 55.0748Z" fill="white"/>
<path d="M325.42 56.3354L328.151 56.7558C328.361 56.7558 328.782 56.7558 328.992 56.5456C329.202 56.3354 329.412 56.1252 329.622 55.915L338.866 34.8941C339.076 34.6839 339.076 34.2635 338.866 34.0533C338.866 33.8431 338.655 33.6329 338.445 33.4227L336.345 31.5308L336.975 30.2695L349.37 35.735L348.74 36.9962L346.008 36.5758C345.798 36.5758 345.378 36.5758 345.168 36.786C344.958 36.9962 344.748 37.2064 344.538 37.4166L340.756 46.0352L345.588 48.1373C346.429 48.5577 347.269 48.9781 348.109 49.3985C348.95 49.819 349.58 50.2394 350.21 50.87C350.84 51.5006 351.261 51.921 351.891 52.5517C352.311 53.1823 352.731 53.8129 352.941 54.6538C353.151 55.4946 353.151 56.1252 353.151 56.9661C353.151 57.8069 352.731 58.6477 352.311 59.6988C351.681 61.1702 350.84 62.2213 349.79 63.0621C348.74 63.9029 347.689 64.3234 346.429 64.5336C345.168 64.7438 343.908 64.7438 342.647 64.5336C341.387 64.3234 340.126 63.9029 338.866 63.2723L325.42 57.3865V56.3354ZM338.025 60.7498C338.866 61.1702 339.706 61.3804 340.336 61.3804C340.966 61.3804 341.807 61.3804 342.437 61.1702C343.067 60.96 343.697 60.5396 344.118 59.909C344.538 59.2783 345.168 58.6477 345.588 57.8069C346.008 56.7558 346.429 55.7048 346.429 54.864C346.429 54.0231 346.429 53.1823 346.219 52.5517C346.008 51.921 345.378 51.2904 344.748 50.6598C344.118 50.0292 343.277 49.6087 342.227 49.1883L339.916 48.1373L335.084 59.2784L338.025 60.7498Z" fill="white"/>
<path d="M369.118 80.7189C368.698 80.5087 368.277 80.2985 368.067 79.8781C367.857 79.6679 367.647 79.4577 367.437 79.0373C367.227 78.8271 367.227 78.4066 367.227 77.9862C367.227 77.5658 367.227 77.1454 367.227 76.5148L366.387 62.641L364.916 61.1695L359.454 69.9983C359.244 70.2085 359.244 70.6289 359.244 70.8391C359.244 71.0493 359.454 71.4698 359.664 71.68L361.555 73.7821L360.924 74.8331L349.37 67.686L350 66.635L352.731 67.4758C352.941 67.4758 353.361 67.4758 353.572 67.4758C353.782 67.4758 353.992 67.2656 354.202 66.8452L366.177 47.2957C366.387 47.0855 366.387 46.6651 366.387 46.4549C366.387 46.2447 366.177 45.8243 365.966 45.6141L364.076 43.512L364.706 42.4609L376.261 49.608L375.63 50.6591L372.899 49.8182C372.689 49.8182 372.269 49.8182 372.059 49.8182C371.849 49.8182 371.429 50.0285 371.429 50.4489L365.756 59.4879L366.597 59.9083C366.807 60.1185 367.017 60.1185 367.227 60.3287C367.437 60.5389 367.857 60.5389 368.067 60.5389C368.277 60.5389 368.698 60.7491 368.908 60.7491C369.118 60.7491 369.538 60.7491 369.748 60.7491C370.798 60.5389 371.639 60.1185 372.479 59.9083C373.319 59.4879 373.95 59.2776 374.58 58.8572C375.21 58.4368 375.84 58.0164 376.261 57.8062C376.891 57.3858 377.311 56.9654 377.731 56.7551C378.151 56.3347 378.782 56.1245 379.202 55.7041C379.622 55.2837 380.252 55.0735 380.882 54.8633C381.303 54.6531 381.723 54.6531 382.143 54.4428C382.563 54.2326 382.983 54.4428 383.403 54.4428C383.824 54.4428 384.244 54.6531 384.664 54.6531C385.084 54.8633 385.504 55.0735 385.924 55.2837C386.555 55.7041 386.975 55.9143 387.395 56.3347C387.815 56.7551 388.235 57.1756 388.656 57.3858L385.294 61.1695L384.874 60.7491C384.664 60.5389 384.454 60.3287 384.244 60.1185C384.034 59.9083 383.824 59.6981 383.614 59.4879C383.403 59.2776 383.193 59.0674 382.983 59.0674C382.773 58.8572 382.563 58.8572 382.563 58.647C382.143 58.4368 381.723 58.2266 381.303 58.4368C380.882 58.4368 380.462 58.647 379.832 58.8572C379.412 59.0674 378.782 59.2776 378.151 59.6981C377.521 60.1185 376.891 60.3287 376.261 60.7491C375.63 61.1695 375 61.3797 374.16 61.8002C373.53 62.0104 372.689 62.2206 371.849 62.4308L372.899 77.9862C372.899 78.4066 373.109 79.0373 373.109 79.4577C373.319 79.8781 373.53 80.2985 373.74 80.7189L375.21 82.4006L374.58 83.4517L369.118 80.7189Z" fill="white"/>
<path d="M375 82.4015L377.521 83.4526C377.731 83.6628 378.151 83.6628 378.361 83.6628C378.571 83.6628 378.992 83.4526 379.202 83.2423L393.908 65.795C394.118 65.5848 394.328 65.1644 394.118 64.9542C394.118 64.744 394.118 64.3236 393.908 64.1133L392.227 61.801L393.067 60.75L403.361 69.5788L402.521 70.6298L400 69.5788C399.79 69.3686 399.37 69.3686 399.16 69.3686C398.95 69.3686 398.529 69.5788 398.319 69.789L387.605 82.6117L386.134 84.2934L385.504 84.924L408.824 76.9361L410.084 75.4646L417.647 81.7709L416.807 82.8219L414.286 81.5607C414.076 81.3505 413.655 81.3505 413.445 81.5607C413.235 81.5607 412.815 81.7709 412.605 81.9811L397.899 99.4284C397.689 99.6386 397.479 99.8488 397.689 100.269C397.689 100.479 397.689 100.9 397.899 101.11L399.58 103.422L398.739 104.473L388.445 95.6447L389.286 94.5936L391.807 95.6447C392.017 95.8549 392.437 95.8549 392.647 95.8549C392.857 95.8549 393.277 95.6447 393.487 95.4345L404.412 82.6117L405.672 81.1403L406.302 80.5096L382.983 88.4976L381.723 89.969L374.16 83.6628L375 82.4015Z" fill="white"/>
<path d="M400 103.633L402.311 105.105C402.521 105.315 402.941 105.315 403.151 105.315C403.361 105.315 403.782 105.315 403.992 105.105L421.218 90.1798C421.429 89.9696 421.639 89.7594 421.639 89.3389C421.639 89.1287 421.639 88.7083 421.429 88.4981L420.168 85.9756L421.218 85.1348L430.042 95.435L428.992 96.2758L426.681 94.8044C426.471 94.5942 426.05 94.5942 425.84 94.5942C425.63 94.5942 425.21 94.5942 425 94.8044L412.395 105.735L410.714 106.996L410.084 107.627L434.454 103.423L435.924 102.162L442.227 109.519L441.176 110.36L439.076 108.678C438.866 108.468 438.445 108.468 438.235 108.468C438.025 108.468 437.605 108.678 437.395 108.888L420.168 123.813C419.958 124.023 419.748 124.234 419.748 124.654C419.748 124.864 419.748 125.285 419.958 125.495L421.218 128.017L420.168 128.858L411.345 118.558L412.395 117.717L414.706 119.189C414.916 119.399 415.336 119.399 415.546 119.399C415.756 119.399 416.176 119.399 416.387 119.189L428.992 108.258L430.672 106.996L431.303 106.576L406.933 110.78L405.462 111.831L399.16 104.474L400 103.633ZM435.504 95.2248C434.664 94.1737 434.034 93.3329 433.613 92.4921C433.193 91.6512 432.983 90.8104 432.983 89.9696C432.983 89.1287 432.983 88.4981 433.193 88.0777C433.403 87.4471 433.613 87.0266 433.824 86.8164L435.504 85.345L438.445 88.7083L437.605 89.3389L435.714 91.0206C435.714 91.2308 435.714 91.441 435.714 91.6512C435.714 91.8614 435.924 92.2819 435.924 92.4921C436.134 92.7023 436.134 93.1227 436.345 93.3329C436.555 93.5431 436.765 93.7533 436.765 93.9635C436.975 94.1737 437.185 94.384 437.395 94.5942C437.605 94.8044 437.815 95.0146 438.025 95.2248C438.235 95.435 438.445 95.435 438.866 95.6452C439.076 95.6452 439.286 95.8554 439.496 95.8554L441.387 94.1737L442.227 93.5431L445.168 96.9065L443.487 98.3779C443.277 98.5881 442.647 98.7983 442.227 99.0085C441.597 99.0085 440.966 99.0085 440.336 98.7983C439.706 98.5881 438.866 98.1677 438.025 97.7473C437.185 96.9065 436.345 96.0656 435.504 95.2248Z" fill="white"/>
<path d="M429.202 144.204C428.992 143.783 428.782 143.363 428.572 142.942C428.361 142.522 428.151 142.101 428.151 141.891C427.941 141.471 427.941 141.261 427.941 140.84C427.941 140.63 427.731 140.21 427.731 140.21L432.773 138.528L432.983 138.948C432.983 139.159 432.983 139.369 433.193 139.789C433.193 140.21 433.403 140.42 433.403 140.84C433.403 141.261 433.614 141.681 433.824 141.891C434.034 142.312 434.034 142.522 434.244 142.942C434.454 143.363 434.664 143.783 434.874 143.993C435.084 144.204 435.294 144.414 435.504 144.624C435.714 144.834 435.924 145.044 436.135 145.044C436.345 145.255 436.555 145.255 436.765 145.465C437.185 145.675 437.605 145.675 438.025 145.675C438.445 145.675 438.656 145.675 439.076 145.675L440.126 143.783L450.21 126.756C450.42 126.546 450.42 126.126 450.63 125.915C450.63 125.705 450.84 125.285 450.63 125.075L450.21 122.972L451.261 122.342L457.773 133.693L456.723 134.324L454.202 131.591L447.689 142.522L446.429 144.624L446.009 145.255L460.714 143.783L460.084 139.999L461.135 139.369L465.756 147.357L464.706 147.987L462.815 146.726C462.605 146.516 462.395 146.516 461.975 146.306C461.555 146.306 461.345 146.095 460.924 146.095L439.286 147.987C437.815 148.197 436.555 148.197 435.294 148.197C434.244 148.197 433.403 147.987 432.563 147.567C431.723 147.357 431.093 146.936 430.672 146.306C430.252 145.675 429.832 145.044 429.202 144.204Z" fill="white"/>
<path d="M440.966 160.388L442.647 162.7C442.857 162.911 443.067 163.121 443.277 163.121C443.487 163.121 443.907 163.121 444.118 163.121L465.336 154.712C465.546 154.502 465.966 154.502 465.966 154.082C466.176 153.872 466.176 153.451 466.176 153.241L465.966 150.508L467.227 150.088L472.269 162.7L471.008 163.121L469.328 160.809C469.118 160.598 468.907 160.388 468.697 160.388C468.487 160.388 468.067 160.388 467.857 160.388L458.823 163.962L463.445 175.313L472.479 171.739C472.689 171.529 473.109 171.319 473.109 171.109C473.319 170.899 473.319 170.478 473.319 170.268L473.109 167.535L474.37 167.115L479.412 179.727L478.151 180.148L476.47 177.835C476.26 177.625 476.05 177.415 475.84 177.415C475.63 177.415 475.21 177.415 475 177.415L453.781 186.034C453.571 186.244 453.151 186.244 453.151 186.664C452.941 186.874 452.941 187.295 452.941 187.505L453.151 190.238L451.891 190.658L446.849 178.046L448.109 177.625L449.79 179.938C450 180.148 450.21 180.358 450.42 180.358C450.63 180.358 451.05 180.358 451.26 180.358L461.344 176.364L456.723 165.013L446.639 169.007C446.429 169.217 446.218 169.427 446.008 169.637C445.798 169.848 445.798 170.268 445.798 170.478L446.008 173.211L444.748 173.631L439.706 161.019L440.966 160.388Z" fill="white"/>
<path d="M452.521 190.868L453.992 193.391C454.202 193.601 454.412 193.811 454.622 194.021C454.832 194.232 455.252 194.232 455.462 194.021L477.521 187.925C477.941 187.925 478.151 187.715 478.151 187.505C478.361 187.295 478.362 187.085 478.362 186.664V183.721L479.622 183.301L483.193 196.334L481.933 196.754L480.462 194.442C480.252 194.232 480.042 194.021 479.832 193.811C479.622 193.601 479.202 193.601 478.992 193.811L457.143 199.907C456.723 199.907 456.513 200.117 456.513 200.328C456.303 200.538 456.303 200.748 456.303 201.169V203.901L455.042 204.322L451.471 191.289L452.521 190.868Z" fill="white"/>
<path d="M456.723 204.953L457.983 207.475C458.193 207.685 458.403 207.896 458.614 208.106C458.824 208.316 459.244 208.316 459.454 208.316L481.933 204.532C482.353 204.532 482.563 204.322 482.773 204.112C482.983 203.902 482.983 203.691 483.193 203.271L483.403 200.538L484.664 200.328L486.765 212.73C487.185 215.043 487.185 216.935 487.185 218.406C486.975 219.878 486.765 221.139 486.345 221.98C485.924 222.82 485.294 223.661 484.664 224.082C484.034 224.502 483.193 224.923 482.353 224.923C481.513 225.133 480.462 225.133 479.832 224.923C478.992 224.712 478.151 224.502 477.521 223.872C476.891 223.451 476.261 222.82 475.63 221.98C475 221.139 474.58 220.298 474.16 219.457C474.37 220.718 474.37 221.98 474.16 223.031C473.95 224.082 473.74 225.133 473.109 225.974C472.689 226.814 472.059 227.445 471.219 228.076C470.378 228.706 469.538 228.917 468.488 229.127C467.437 229.337 466.387 229.337 465.546 229.127C464.706 228.917 463.866 228.496 463.025 228.076C462.395 227.655 461.765 227.025 461.135 226.184C460.504 225.553 460.084 224.712 459.664 223.872C459.244 223.031 458.824 221.98 458.614 221.139C458.403 220.088 458.193 219.247 457.983 218.196L455.672 205.163L456.723 204.953ZM459.874 217.986C460.084 219.878 460.924 221.139 461.765 221.98C462.815 222.82 464.286 223.031 466.177 222.61C467.227 222.4 468.277 222.19 468.908 221.769C469.538 221.349 470.168 220.929 470.588 220.298C471.009 219.667 471.219 219.037 471.219 218.196C471.219 217.355 471.219 216.304 471.009 215.253L470.588 212.52L459.034 214.412L459.874 217.986ZM473.319 213.571C473.529 214.622 473.74 215.673 474.16 216.304C474.58 216.935 475 217.565 475.42 217.986C475.84 218.406 476.471 218.616 477.101 218.616C477.731 218.616 478.572 218.616 479.202 218.616C481.303 218.196 482.563 217.565 483.403 216.514C484.244 215.463 484.454 213.992 484.034 212.31L483.614 210.418L472.899 212.31L473.319 213.571Z" fill="white"/>
<path d="M461.135 231.439L461.975 234.172C461.975 234.382 462.185 234.592 462.395 234.802C462.605 235.013 462.815 235.013 463.235 235.013L486.135 234.172C486.555 234.172 486.765 233.961 486.975 233.751C487.185 233.541 487.395 233.331 487.395 232.91L488.025 230.178H489.286L490.336 253.931L482.563 254.142V252.67L486.975 250.778C487.185 250.778 487.395 250.568 487.605 250.358C487.815 250.148 487.815 249.937 487.815 249.727L487.395 239.847L476.681 240.268L476.891 246.574C476.891 246.784 476.891 246.994 477.101 247.205C477.311 247.415 477.311 247.415 477.521 247.415L481.093 248.676V249.937L470.378 250.358V249.097L473.74 247.415C473.95 247.415 474.16 247.205 474.16 246.994C474.16 246.784 474.37 246.574 474.37 246.364L474.16 240.058L462.395 240.478L462.815 252.039C462.815 252.25 462.815 252.46 463.025 252.67C463.235 252.88 463.445 252.88 463.656 252.88L468.908 254.352V255.823L460.504 256.244L459.874 231.439H461.135Z" fill="white"/>
<path d="M462.185 257.926L462.815 260.659C462.815 261.079 463.025 261.289 463.235 261.499C463.445 261.71 463.655 261.71 464.076 261.92L486.765 263.812C487.185 263.812 487.395 263.812 487.605 263.601C487.815 263.391 488.025 263.181 488.025 262.971L489.076 260.238L490.336 260.448L489.286 273.061C489.076 274.532 488.866 276.004 488.445 277.475C488.025 278.736 487.395 279.998 486.765 281.049C486.134 282.1 485.084 282.73 484.034 283.361C482.983 283.781 481.723 283.992 480.252 283.992C478.782 283.781 477.521 283.571 476.261 282.941C475.21 282.31 474.16 281.469 473.319 280.628C472.479 279.577 472.059 278.526 471.639 277.265C471.218 276.004 471.218 274.742 471.218 273.271C471.218 273.061 471.218 272.64 471.429 272.22C471.639 271.8 471.639 271.379 471.849 271.169C472.059 270.959 472.269 270.328 472.479 270.118C472.689 269.908 472.899 269.487 473.109 269.067L463.235 268.226C462.815 268.226 462.605 268.226 462.395 268.436C462.185 268.646 461.975 268.857 461.975 269.067L460.924 272.01L459.664 271.8L460.714 257.926H462.185ZM474.16 271.8C474.16 272.43 474.16 273.061 474.37 273.481C474.58 273.902 474.79 274.532 475.21 274.742C475.63 275.163 475.84 275.373 476.471 275.794C476.891 276.004 477.311 276.214 477.731 276.424C478.151 276.634 478.571 276.634 478.992 276.845C479.412 276.845 479.832 277.055 480.042 277.055C480.882 277.055 481.723 277.055 482.563 277.055C483.403 277.055 484.034 276.634 484.874 276.424C485.504 276.004 486.134 275.583 486.555 274.742C486.975 274.112 487.185 273.061 487.395 272.01L487.605 269.908L475 268.857C475 269.067 474.79 269.277 474.79 269.487C474.79 269.697 474.58 269.908 474.58 270.328C474.58 270.538 474.58 270.959 474.37 271.169C474.16 271.379 474.16 271.589 474.16 271.8Z" fill="white"/>
<path d="M455.252 296.183C455.672 294.081 456.513 292.189 457.563 290.718C458.613 289.247 459.874 287.985 461.345 286.934C462.815 286.093 464.706 285.463 466.597 285.042C468.487 284.832 470.798 284.832 473.109 285.253C474.58 285.463 476.05 286.093 477.311 286.514C478.571 287.144 479.622 287.775 480.672 288.616C481.723 289.457 482.563 290.298 483.193 291.349C483.823 292.4 484.454 293.451 484.874 294.712C485.294 295.973 485.504 297.024 485.714 298.286C485.714 299.547 485.714 300.808 485.504 302.069C485.294 302.7 485.084 303.541 484.874 304.382C484.664 305.222 484.244 306.063 484.034 306.904C483.613 307.745 483.403 308.586 482.983 309.216C482.563 310.057 482.353 310.688 481.933 311.108L474.79 309.637L475 308.165L478.992 307.325C479.202 307.325 479.412 307.114 479.622 307.114C479.832 307.114 479.832 306.904 480.042 306.694C480.672 305.853 481.302 305.012 481.723 304.171C482.143 303.331 482.563 302.279 482.773 301.228C482.983 300.177 482.983 299.126 482.563 298.075C482.143 297.024 481.723 296.183 480.672 295.343C479.832 294.502 478.571 293.661 477.311 293.03C475.84 292.4 474.16 291.769 472.269 291.349C470.378 290.928 468.487 290.718 466.807 290.928C465.126 291.138 463.655 291.349 462.605 291.979C461.345 292.61 460.294 293.451 459.664 294.502C459.034 295.553 458.403 296.814 457.983 298.496C457.773 299.547 457.773 300.388 457.773 301.228C457.773 302.069 457.983 302.91 458.193 303.541C458.403 304.171 458.613 304.802 459.034 305.433C459.454 306.063 459.664 306.484 459.874 306.904L459.664 307.745L457.353 307.325C456.933 306.694 456.513 305.853 456.303 305.012C455.882 304.171 455.672 303.12 455.462 302.069C455.252 301.018 455.042 299.967 455.042 298.916C455.042 298.286 455.042 297.234 455.252 296.183Z" fill="white"/>
<path d="M455.252 307.534L455.042 310.267C455.042 310.477 455.042 310.898 455.252 311.108C455.462 311.318 455.672 311.528 455.882 311.739L477.521 319.306C477.731 319.516 478.151 319.516 478.361 319.306C478.571 319.096 478.781 319.096 478.991 318.886L480.672 316.573L481.933 316.994L477.311 329.817L476.05 329.396L476.26 326.663C476.26 326.453 476.26 326.033 476.05 325.823C475.84 325.612 475.63 325.402 475.42 325.192L459.664 319.516L457.773 318.675L456.933 318.465L472.689 337.594L474.58 338.225L471.428 347.474L470.168 347.054L470.378 344.321C470.378 344.111 470.378 343.69 470.168 343.48C469.958 343.27 469.748 343.06 469.538 342.85L447.899 335.282C447.689 335.072 447.269 335.072 447.059 335.282C446.849 335.492 446.639 335.492 446.428 335.913L444.748 338.225L443.487 337.804L448.109 324.982L449.37 325.402L449.16 328.345C449.16 328.555 449.16 328.976 449.37 329.186C449.58 329.396 449.79 329.606 450 329.817L465.756 335.492L467.647 336.123L468.487 336.333L452.731 317.204L450.84 316.573L453.992 307.324L455.252 307.534Z" fill="white"/>
<path d="M441.177 343.691L440.336 346.844C440.336 347.055 440.336 347.475 440.336 347.685C440.336 347.895 440.756 348.106 440.966 348.316L462.185 359.457L465.126 353.781C465.336 353.571 465.336 353.361 465.126 353.151C465.126 352.94 464.916 352.73 464.706 352.73L461.345 348.946L461.975 347.685L468.908 351.259L456.303 375.223L449.37 371.649L450 370.388L455.042 371.018C455.252 371.018 455.462 371.018 455.672 371.018C455.882 371.018 456.093 370.808 456.093 370.598L459.034 364.922L437.815 353.781C437.605 353.571 437.185 353.571 436.975 353.571C436.765 353.571 436.345 353.781 436.345 353.991L434.244 356.514L433.193 355.883L439.916 343.061L441.177 343.691Z" fill="white"/>
<path d="M431.303 362.4L430.462 365.133C430.462 365.343 430.252 365.763 430.462 365.974C430.462 366.184 430.672 366.394 430.883 366.604L449.58 379.847C449.79 380.058 450.21 380.058 450.42 380.058C450.63 380.058 451.051 379.847 451.261 379.637L453.361 377.745L454.412 378.586L440.756 398.136L434.454 393.721L435.294 392.46L440.126 393.721C440.336 393.721 440.546 393.721 440.756 393.721C440.967 393.721 441.177 393.511 441.177 393.301L446.849 385.313L438.235 379.217L434.664 384.262C434.454 384.472 434.454 384.682 434.454 384.893C434.454 385.103 434.664 385.313 434.664 385.523L436.765 388.676L435.925 389.727L427.101 383.421L427.941 382.37L431.723 383.211C431.933 383.211 432.143 383.211 432.353 383.211C432.563 383.211 432.773 383.001 432.983 382.79L436.555 377.745L426.891 371.019L420.168 380.478C419.958 380.688 419.958 380.899 419.958 381.109C419.958 381.319 420.168 381.529 420.168 381.739L423.53 386.154L422.689 387.415L415.967 382.58L430.672 361.77L431.303 362.4Z" fill="white"/>
<path d="M411.975 388.465L410.504 391.408C410.294 391.618 410.294 392.039 410.294 392.249C410.294 392.459 410.504 392.88 410.714 393.09L428.361 409.276L432.563 404.651C432.773 404.441 432.773 404.231 432.773 404.021C432.773 403.811 432.773 403.6 432.563 403.39L430.252 398.976L431.303 397.925L437.185 403.18L418.908 423.15L413.025 417.895L414.076 416.844L418.697 418.735C418.908 418.735 419.118 418.946 419.328 418.946C419.538 418.946 419.748 418.946 419.958 418.735L424.37 414.111L406.723 397.925C406.513 397.715 406.303 397.504 405.882 397.504C405.462 397.504 405.252 397.504 405.042 397.715L402.311 399.606L401.26 398.766L410.924 388.045L411.975 388.465Z" fill="white"/>
</svg>
