<svg width="453" height="453" viewBox="0 0 453 453" fill="none" xmlns="http://www.w3.org/2000/svg">
<path d="M453 373.904H45.5396V382.693H453V373.904Z" fill="#C8102E"/>
<path d="M79.0956 178.163V176.565C84.6882 174.168 87.884 169.375 87.884 162.983C87.884 150.999 79.8945 143.809 64.7146 143.809H45.54V213.317H68.7094C83.0903 213.317 91.8787 206.126 91.8787 193.343C91.8787 188.549 90.2808 180.56 79.0956 178.163ZM55.9263 152.597H65.5136C74.3019 152.597 79.0956 155.793 79.0956 162.983C79.0956 170.174 74.3019 173.369 65.5136 173.369H55.9263V152.597ZM68.7094 204.528H55.9263V182.158H69.5083C78.2967 182.158 83.0903 186.153 83.0903 193.343C83.0903 200.533 77.4977 204.528 68.7094 204.528Z" fill="white"/>
<path d="M83.8892 105.46H55.9263V45.5391H45.54V115.047H83.8892V105.46Z" fill="white"/>
<path d="M133.424 89.4823C133.424 74.3024 123.836 63.1172 110.254 63.1172C96.6723 63.1172 87.085 73.5034 87.085 89.4823C87.085 105.461 96.6723 115.847 110.254 115.847C123.836 115.847 133.424 105.461 133.424 89.4823ZM96.6723 89.4823C96.6723 79.096 102.265 71.9055 110.254 71.9055C118.244 71.9055 123.836 79.096 123.836 89.4823C123.836 99.8685 118.244 107.059 110.254 107.059C102.265 107.059 96.6723 100.667 96.6723 89.4823Z" fill="white"/>
<path d="M171.773 260.454C166.18 260.454 161.386 262.851 156.593 266.846V238.883L147.005 243.676V311.587H156.593V277.232C158.99 273.237 164.582 269.243 170.175 269.243C177.365 269.243 178.164 273.237 178.164 280.428V311.587H187.751V278.83C188.55 266.846 182.958 260.454 171.773 260.454Z" fill="white"/>
<path d="M153.397 80.6938C155.794 76.6991 161.386 72.7044 166.979 72.7044C174.169 72.7044 174.968 76.6991 174.968 83.8896V115.048H184.556V82.2917C184.556 70.3076 178.963 63.916 167.778 63.916C162.185 63.916 156.593 66.3128 151.799 71.1065V64.715H143.81V115.048H153.397V80.6938Z" fill="white"/>
<path d="M132.625 197.339C130.228 201.334 124.635 205.328 119.043 205.328C111.852 205.328 111.053 201.334 111.053 194.143V162.984H101.466V195.741C101.466 207.725 107.058 214.117 118.244 214.117C123.836 214.117 129.429 211.72 134.222 206.926V213.318H142.212V162.984H132.625V197.339Z" fill="white"/>
<path d="M337.953 83.0907V114.249H347.54V81.4928C347.54 69.5087 341.947 63.1172 330.762 63.1172C325.17 63.1172 319.577 65.514 314.783 70.3077V64.7151H306.794V115.048H316.381V80.6939C318.778 76.6992 324.371 72.7045 329.963 72.7045C336.355 72.7045 337.953 76.6992 337.953 83.0907Z" fill="white"/>
<path d="M253.265 182.159V213.318H263.651V180.561C263.651 168.577 258.058 162.186 246.873 162.186C241.28 162.186 235.688 164.582 230.894 169.376V162.984H222.905V213.318H231.693V178.963C234.09 174.969 239.683 170.974 245.275 170.974C252.466 170.974 253.265 174.969 253.265 182.159Z" fill="white"/>
<path d="M216.514 115.846C222.905 115.846 228.498 112.651 230.894 108.656V114.249H238.884V42.3438L229.297 47.1374V69.5078C226.9 66.312 222.106 63.9152 215.715 63.9152C204.529 63.9152 193.344 71.9046 193.344 90.2803C194.143 103.063 201.334 115.846 216.514 115.846ZM218.111 71.9046C222.905 71.9046 227.699 75.1004 230.096 79.894V99.8676C227.699 104.661 222.905 107.857 218.111 107.857C209.323 107.857 203.73 100.666 203.73 90.2803C203.73 79.894 209.323 71.9046 218.111 71.9046Z" fill="white"/>
<path d="M272.439 115.847C286.021 115.847 295.609 105.461 295.609 89.4823C295.609 73.5034 286.021 63.1172 272.439 63.1172C258.857 63.1172 249.27 73.5034 249.27 89.4823C249.27 105.461 258.857 115.847 272.439 115.847ZM272.439 71.9055C280.429 71.9055 286.021 79.096 286.021 89.4823C286.021 99.8685 280.429 107.059 272.439 107.059C264.45 107.059 258.857 99.8685 258.857 89.4823C258.857 79.096 264.45 71.9055 272.439 71.9055Z" fill="white"/>
<path d="M221.307 260.455C207.725 260.455 198.138 270.841 198.138 286.82C198.138 302.799 207.725 313.185 221.307 313.185C234.889 313.185 244.476 302.799 244.476 286.82C244.476 270.841 234.889 260.455 221.307 260.455ZM221.307 304.397C213.318 304.397 207.725 297.206 207.725 286.82C207.725 276.434 213.318 269.243 221.307 269.243C229.296 269.243 234.889 276.434 234.889 286.82C234.889 297.206 229.296 304.397 221.307 304.397Z" fill="white"/>
<path d="M274.037 260.455C260.455 260.455 250.868 270.841 250.868 286.82C250.868 302.799 260.455 313.185 274.037 313.185C287.619 313.185 297.207 302.799 297.207 286.82C297.207 270.841 287.619 260.455 274.037 260.455ZM274.037 304.397C266.048 304.397 260.455 297.206 260.455 286.82C260.455 276.434 266.048 269.243 274.037 269.243C282.027 269.243 287.619 276.434 287.619 286.82C287.619 297.206 282.027 304.397 274.037 304.397Z" fill="white"/>
<path d="M307.593 311.587H317.18V238.883L307.593 243.676V311.587Z" fill="white"/>
<path d="M209.323 162.984H199.736V213.318H209.323V162.984Z" fill="white"/>
<path d="M209.323 143.809H199.736V154.994H209.323V143.809Z" fill="white"/>
<path d="M76.6986 274.835L66.3124 270.84C61.5187 268.443 55.9261 266.046 55.9261 259.655C55.9261 254.062 59.9208 250.068 67.9103 250.068C73.5029 250.068 78.2965 252.464 83.0902 257.258L88.6828 250.068C83.0902 244.475 75.8997 241.279 67.9103 241.279C55.1272 241.279 46.3388 249.269 46.3388 260.454C46.3388 271.639 55.1272 277.232 59.9208 278.83L70.3071 282.824C76.6986 285.221 80.6933 287.618 80.6933 294.009C80.6933 300.401 75.8997 304.396 67.1113 304.396C60.7198 304.396 53.5293 300.401 48.7357 295.607L43.1431 302.798C48.7357 308.39 59.1219 313.184 67.1113 313.184C80.6933 313.184 90.2806 305.195 90.2806 294.009C90.2806 282.824 83.0902 278.031 76.6986 274.835Z" fill="white"/>
<path d="M122.238 303.598C113.45 303.598 107.857 297.207 107.857 286.021C107.857 275.635 113.45 268.445 123.037 268.445C127.032 268.445 130.228 270.043 132.625 272.439L137.418 265.249C132.625 261.254 127.831 258.857 122.238 258.857C115.847 258.857 109.455 261.254 105.46 266.048C100.667 270.842 98.27 278.032 98.27 286.021C98.27 302 107.857 312.386 122.238 312.386C127.831 312.386 134.222 309.99 139.016 305.995L135.021 298.805C131.027 302 127.032 303.598 122.238 303.598Z" fill="white"/>
<path d="M345.143 184.556L342.746 183.757C337.154 182.159 333.159 179.762 333.159 175.768C333.159 171.773 336.355 169.376 341.947 169.376C345.942 169.376 349.937 171.773 353.132 174.17L357.926 166.979C355.529 164.583 349.138 160.588 341.947 160.588C331.561 160.588 324.371 166.18 324.371 174.969C324.371 184.556 333.159 187.752 339.55 190.149L340.349 190.948C345.143 192.546 349.937 194.143 349.937 198.937C349.937 202.932 346.741 206.128 341.148 206.128C335.556 206.128 329.963 202.932 326.767 199.736L321.175 207.725C326.767 211.72 333.958 214.916 340.349 214.916C353.132 214.916 358.725 206.927 358.725 199.736C358.725 189.35 351.535 186.953 345.143 184.556Z" fill="white"/>
<path d="M174.968 184.556L173.37 183.757C167.778 182.159 163.783 179.762 163.783 175.768C163.783 171.773 166.979 169.376 172.571 169.376C176.566 169.376 180.561 171.773 183.757 174.17L188.55 166.979C186.153 164.583 179.762 160.588 172.571 160.588C162.185 160.588 154.995 166.18 154.995 174.969C154.995 184.556 163.783 187.752 170.175 190.149L170.974 190.948C175.767 192.546 180.561 194.143 180.561 198.937C180.561 202.932 177.365 206.128 171.772 206.128C166.18 206.128 160.587 202.932 157.392 199.736L151 207.725C156.593 211.72 163.783 214.916 170.175 214.916C182.958 214.916 188.55 206.927 188.55 199.736C189.349 190.149 181.36 186.953 174.968 184.556Z" fill="white"/>
<path d="M388.286 184.556L385.889 183.757C380.296 182.159 376.302 179.762 376.302 175.768C376.302 171.773 379.498 169.376 385.09 169.376C389.085 169.376 393.08 171.773 396.275 174.17L401.069 166.979C398.672 164.583 392.281 160.588 385.09 160.588C374.704 160.588 367.513 166.18 367.513 174.969C367.513 184.556 376.302 187.752 382.693 190.149L383.492 190.948C388.286 192.546 393.08 194.143 393.08 198.937C393.08 202.932 389.884 206.128 384.291 206.128C378.699 206.128 373.106 202.932 369.91 199.736L364.318 207.725C369.91 211.72 377.101 214.916 383.492 214.916C396.275 214.916 401.868 206.927 401.868 199.736C401.868 189.35 394.677 186.953 388.286 184.556Z" fill="white"/>
<path d="M309.191 166.979C305.995 162.985 301.201 161.387 294.81 161.387C283.625 161.387 271.641 170.974 271.641 187.752C271.641 203.731 281.228 214.117 295.609 214.117C301.201 214.117 306.794 212.519 312.387 208.524H313.186L309.99 201.334H309.191C305.196 203.731 301.201 205.329 297.207 205.329C288.418 205.329 282.027 199.736 281.228 190.149H314.783C316.381 180.561 313.985 172.572 309.191 166.979ZM282.027 182.958C282.826 174.969 288.418 169.376 295.609 169.376C302.799 169.376 306.794 175.768 306.794 182.958H282.027Z" fill="white"/>
</svg>
