<svg width="1441" height="389" viewBox="0 0 1441 389" fill="none" xmlns="http://www.w3.org/2000/svg">
<g clip-path="url(#clip0_1198_33)">
<mask id="mask0_1198_33" style="mask-type:luminance" maskUnits="userSpaceOnUse" x="0" y="0" width="1441" height="389">
<path d="M1441 0.554688V388.445H0V0.554688H1441Z" fill="white"/>
</mask>
<g mask="url(#mask0_1198_33)">
<path fill-rule="evenodd" clip-rule="evenodd" d="M235.719 21.6904C330.587 21.6904 407.486 99.0437 407.486 194.478C407.486 205.932 406.384 217.141 404.265 227.94C411.081 229.56 417.904 231.232 424.72 233.04C427.206 220.577 428.539 207.683 428.539 194.428C428.546 87.3665 342.209 0.554688 235.726 0.554688C129.243 0.554688 42.9418 87.3593 42.9418 194.522C42.9418 207.733 44.2747 220.621 46.7604 233.133C53.5331 231.325 60.3563 229.604 67.2226 228.033C65.0706 217.01 63.9896 205.804 63.9948 194.572C63.9516 99.0942 140.851 21.6904 235.719 21.6904ZM161.868 275.405C157.256 268.172 156.975 263.72 156.975 255.335L135.735 258.073C135.187 267.798 137.673 276.882 142.652 285.324C147.811 294.127 154.9 301.216 161.86 308.542C168.82 301.216 175.91 294.127 181.076 285.324C187.618 274.195 188.814 265.111 187.431 252.547C180.521 253.016 173.612 253.621 166.753 254.269C166.796 263.166 166.76 267.754 161.868 275.405ZM0 258.346C44.0425 243.189 89.456 232.354 135.598 225.995L135.785 178.666C135.922 158.229 145.829 130.142 160.34 115.591L161.911 114.013L163.474 115.598C177.985 130.099 187.899 158.229 188.036 178.673L188.216 220.671C202.266 219.735 216.366 219.23 230.51 219.137V255.429C226.504 264.88 221.993 276.147 222.908 286.571C223.744 296.303 229.27 305.25 235.078 312.943C235.258 313.224 235.488 313.498 235.676 313.779L235.769 313.923L235.856 313.779C236.086 313.498 236.274 313.224 236.461 312.943C242.261 305.207 247.744 296.303 248.623 286.578C249.545 276.147 244.984 264.837 241.022 255.429V219.137C255.131 219.227 269.235 219.736 283.315 220.664L283.502 178.666C283.639 158.229 293.546 130.142 308.057 115.591L309.628 114.013L311.191 115.598C325.702 130.099 335.616 158.229 335.746 178.673L335.933 225.995C382.075 232.352 427.489 243.185 471.531 258.339C469.72 265.151 467.614 271.881 465.22 278.51C416.521 261.73 366.116 250.382 314.923 244.674V189.378C314.923 178.998 312.805 168.149 309.671 158.143C306.537 168.156 304.418 178.954 304.418 189.378V243.557C290.352 242.198 276.248 241.256 262.125 240.733V254.637C278.985 291.995 263.638 317.395 237.563 344.647C237.008 345.201 236.454 345.9 235.856 346.412L235.812 346.455L235.769 346.404C235.214 345.9 234.616 345.201 234.062 344.647C207.98 317.395 192.597 291.952 209.507 254.637V240.733C195.356 241.238 181.263 242.217 167.206 243.557V189.385C167.206 178.998 165.088 168.149 161.954 158.143C158.82 168.156 156.702 178.954 156.702 189.378V244.674C105.508 250.377 55.103 261.725 6.40524 278.51C3.93811 271.896 1.8004 265.172 0 258.346ZM309.577 275.405C314.188 268.172 314.462 263.72 314.462 255.335L335.703 258.073C336.257 267.798 333.764 276.882 328.786 285.324C323.634 294.127 316.537 301.216 309.577 308.542C302.624 301.216 295.527 294.127 290.369 285.324C283.819 274.195 282.623 265.111 284.007 252.547C290.923 253.016 297.833 253.621 304.692 254.269C304.692 263.166 304.692 267.754 309.577 275.405ZM235.726 86.6245C238.853 96.6377 240.971 107.436 240.971 117.867V208.612C247.974 208.662 254.978 208.799 261.981 209.08V130.841L261.801 107.112C261.657 86.6678 251.757 58.5805 237.239 44.029L235.676 42.4514L234.105 44.0362C219.594 58.5373 209.687 86.6678 209.55 107.112L209.363 130.841V209.03C216.364 208.807 223.368 208.653 230.373 208.569V117.867C230.466 107.479 232.592 96.6377 235.726 86.6245ZM391.087 268.36C363.535 326.854 304.325 367.31 235.719 367.31C167.113 367.31 107.902 326.846 80.4006 268.36C73.4406 269.93 66.4877 271.644 59.5781 273.453C89.6158 341.218 157.206 388.445 235.719 388.445C314.282 388.445 381.822 341.218 411.867 273.453C404.969 271.64 398.041 269.942 391.087 268.36Z" fill="white"/>
<path fill-rule="evenodd" clip-rule="evenodd" d="M548.344 150.169L551.888 152.949C558.337 157.956 565.484 162.17 573.086 165.051C574.008 165.412 574.923 165.743 575.751 166.017C586.674 169.59 619.298 173.112 621.604 153.878C621.656 153.292 621.684 152.703 621.691 152.114C621.691 150.399 621.374 148.872 620.682 147.482C618.881 143.728 614.687 141.358 610.912 140.112C610.22 139.882 609.572 139.694 608.93 139.507C608.239 139.32 607.504 139.183 606.812 139.046C589.117 135.617 564.836 139.413 550.368 125.791C549.873 125.345 549.41 124.864 548.985 124.35C546.823 122.031 545.022 119.164 543.869 116.196C542.308 111.994 541.799 107.475 542.385 103.031C542.972 98.5876 544.636 94.3549 547.234 90.702C547.883 89.7799 548.617 88.8506 549.396 87.9646C550.213 87.101 551.061 86.2673 551.939 85.4649C552.863 84.6275 553.829 83.8388 554.835 83.1021C555.808 82.3601 556.867 81.7118 557.97 81.013C559.079 80.3647 560.181 79.7668 561.334 79.2121C562.487 78.6502 563.683 78.1387 564.879 77.7281C579.347 72.347 597.316 73.8814 611.834 78.7439C612.893 79.1184 613.952 79.4858 615.055 79.9036C616.208 80.3215 617.223 80.7825 618.189 81.2003C619.162 81.6181 620.17 82.0792 621.28 82.6411C622.339 83.1453 623.398 83.6568 624.457 84.2115C625.423 84.7229 626.439 85.2776 627.498 85.8827C628.506 86.4878 629.53 87.0857 630.538 87.7341C631.511 88.3392 632.52 88.9875 633.442 89.6791C634.407 90.3274 635.38 91.0766 636.346 91.7681L639.66 94.2246C635.56 100.11 631.504 105.995 627.411 111.881L623.859 109.014C623.168 108.452 622.433 107.854 621.647 107.299C620.183 106.202 618.676 105.164 617.13 104.187C616.344 103.726 615.617 103.215 614.824 102.797C614.066 102.347 613.297 101.915 612.519 101.5C601.329 95.5717 573.223 89.5926 564.879 102.386L564.793 102.523C564.649 102.754 564.512 103.028 564.375 103.265C564.225 103.561 564.102 103.87 564.007 104.187C563.914 104.519 563.82 104.792 563.777 105.167C563.62 106.019 563.65 106.896 563.865 107.735C564.08 108.575 564.475 109.358 565.023 110.03L565.571 110.678L566.075 111.139C573.727 117.586 601.38 117.118 610.408 118.703C611.697 118.926 612.936 119.207 614.226 119.488C618.937 120.609 623.446 122.453 627.591 124.956C629.549 126.148 631.385 127.528 633.074 129.076C633.903 129.869 634.688 130.661 635.466 131.489C642.563 139.32 644.963 149.888 642.52 160.182C641.943 162.664 641.047 165.061 639.854 167.313C639.253 168.447 638.59 169.546 637.866 170.605C633.118 177.42 625.704 182.47 618.052 185.395C616.669 185.899 615.242 186.367 613.815 186.785C602.071 190.12 587.784 189.839 575.802 187.433C574.606 187.203 573.41 186.929 572.207 186.641C571.054 186.367 569.901 186.043 568.705 185.719C558.063 182.614 548.113 177.283 539.359 170.425L536.225 167.969L548.344 150.169ZM1340.65 186.137L1340.32 186.785H1317.47L1318.31 185.114C1335.95 149.009 1353.5 112.861 1371.1 76.7484H1386.77C1404.88 113.415 1422.94 150.118 1441 186.828H1417.92C1405.02 160.506 1391.98 134.27 1378.94 107.991C1366.22 133.903 1353.73 160.362 1340.65 186.137ZM1246.24 121.944H1258.4C1278.68 121.944 1276.74 100.254 1264.21 97.4735L1262.65 97.1853C1262.08 97.0999 1261.51 97.0398 1260.94 97.0052C1260.38 96.962 1259.74 96.962 1259.05 96.962H1218.09V186.828H1197.08V76.7556H1259.23C1260.52 76.7556 1261.81 76.7989 1263.11 76.8925C1264.35 76.9861 1265.59 77.123 1266.84 77.2599C1268.04 77.4472 1269.23 77.6777 1270.39 77.9082C1276.93 79.3922 1283.06 82.5474 1287.57 87.6404C1288.31 88.4761 1288.95 89.3117 1289.6 90.1473C1290.2 91.0262 1290.8 91.9482 1291.3 92.8847C1298.77 106.507 1295.31 125.049 1283.47 134.918C1282.72 135.533 1281.95 136.122 1281.16 136.683C1280.38 137.238 1279.56 137.748 1278.72 138.21C1278.03 138.578 1277.3 139.003 1276.56 139.32C1275.81 139.692 1275.04 140.017 1274.25 140.292L1273.38 140.624C1281.76 155.449 1290.11 170.281 1298.49 185.071L1299.46 186.828H1275.87L1257.76 154.988L1239.05 121.995H1246.24V121.944ZM1119.26 168.387C1133.59 165.743 1143.95 154.109 1146.35 139.831C1146.53 138.578 1146.72 137.332 1146.81 136.035C1146.91 134.692 1146.95 133.347 1146.95 132.001C1146.95 110.908 1133.17 94.8729 1111.84 94.8729C1110.58 94.8715 1109.32 94.9196 1108.06 95.017C1106.87 95.1072 1105.68 95.2756 1104.51 95.5213C1103.36 95.7518 1102.26 96.0327 1101.15 96.3569C1100.05 96.6711 1098.98 97.0561 1097.93 97.5095C1088.21 101.544 1080.88 110.447 1078.21 120.554C1077.56 122.984 1077.15 125.468 1076.96 127.974C1076.77 130.657 1076.77 133.351 1076.96 136.035C1078.85 159.346 1098.25 172.327 1119.26 168.387ZM1111.89 189.422C1082.58 189.422 1058.3 169.496 1055.68 137.98C1055.5 135.992 1055.43 133.996 1055.45 132.001C1055.45 129.962 1055.54 127.967 1055.68 125.971C1055.86 124.026 1056.09 122.081 1056.41 120.18C1056.73 118.305 1057.14 116.448 1057.66 114.618C1058.16 112.817 1058.76 111.052 1059.41 109.288C1062.78 100.642 1068.3 92.9999 1075.45 87.087C1082.6 81.1742 1091.15 77.1865 1100.28 75.5022C1102.16 75.178 1104.05 74.8971 1105.95 74.7098C1107.88 74.5297 1109.81 74.4793 1111.8 74.4793C1113.78 74.4793 1115.76 74.5729 1117.69 74.7098C1121.48 75.0596 1125.22 75.7443 1128.89 76.7556C1146.91 81.8991 1161.23 96.5442 1166.25 114.669C1166.76 116.47 1167.17 118.328 1167.5 120.23C1167.82 122.125 1168.1 124.026 1168.23 126.022C1168.42 127.967 1168.46 129.962 1168.46 132.001C1168.46 134.039 1168.38 136.035 1168.23 137.98C1168.05 139.925 1167.82 141.87 1167.5 143.772C1167.18 145.646 1166.77 147.503 1166.25 149.333C1159.9 172.226 1140.5 187.203 1117.74 189.191C1115.85 189.335 1113.87 189.422 1111.89 189.422ZM994.074 121.944C994.809 121.944 995.5 121.944 996.149 121.894C996.79 121.851 997.388 121.8 998.037 121.707C1013.74 119.812 1013.2 98.0282 996.61 97.0052C996.005 96.962 995.407 96.962 994.715 96.962H953.755V186.828H932.745V76.7556H994.902C996.192 76.7556 997.482 76.7989 998.771 76.8925C1000.02 76.9861 1001.26 77.123 1002.5 77.2599C1003.7 77.4472 1004.9 77.6777 1006.05 77.9082C1007.2 78.1892 1008.31 78.4701 1009.41 78.8375C1010.52 79.2049 1011.58 79.5795 1012.6 80.0405C1013.66 80.5088 1014.62 80.9698 1015.59 81.5245C1016.56 82.0792 1017.53 82.6843 1018.4 83.2894C1020.2 84.5336 1021.84 85.9976 1023.28 87.6476C1024.7 89.2564 1025.93 91.0122 1026.97 92.8847C1030.11 98.6261 1031.17 105.722 1030.65 112.205C1030.58 113.2 1030.46 114.19 1030.29 115.173C1030.14 116.143 1029.94 117.105 1029.69 118.054C1029.46 118.977 1029.18 119.906 1028.86 120.828C1028.53 121.734 1028.18 122.63 1027.8 123.515C1027.42 124.388 1026.99 125.239 1026.51 126.065C1026.05 126.901 1025.49 127.736 1024.99 128.521C1024.44 129.314 1023.84 130.099 1023.24 130.841L1023.15 130.935C1022.53 131.654 1021.88 132.351 1021.21 133.024C1020.57 133.672 1019.87 134.32 1019.14 134.918C1018.42 135.528 1017.66 136.1 1016.88 136.633C1016.09 137.188 1015.28 137.701 1014.44 138.167C1013.74 138.535 1013.01 138.952 1012.27 139.277C1011.53 139.647 1010.76 139.972 1009.97 140.249L1009.1 140.573L1016.14 153.086C1022.13 163.748 1028.17 174.366 1034.21 185.02L1035.17 186.785H1011.58L1011.26 186.18C1005.59 175.987 999.831 165.923 994.117 155.917L986.379 142.338H986.328C982.459 135.567 978.59 128.759 974.764 121.944H994.074ZM839.627 182.52V133.298L825.484 117.536L790.561 78.6502L788.811 76.7052H815.945L816.269 77.0798C823.315 84.9102 831.565 93.9941 839.764 103.172L850.183 114.712L859.996 103.726C867.921 94.8729 875.847 85.9764 883.909 77.0726L884.226 76.7124H911.555L909.804 78.6574C898.146 91.5809 886.532 104.562 874.874 117.493L860.543 133.434V186.785H839.534V182.52H839.627ZM670.576 182.52V76.5683H691.637V122.125C697.069 117.356 702.091 112.861 707.163 108.409C719.232 97.704 731.351 86.9056 743.469 76.8421L743.794 76.5683H772.959L770.654 78.607C758.672 89.2685 748.218 98.5324 737.713 107.804L726.603 117.629L740.703 137.332C752.087 153.18 763.463 169.078 774.804 184.977L776.137 186.828H750.566L750.199 186.367C741.064 173.969 732.048 161.485 723.151 148.915L711.033 131.95L691.543 148.411V186.828H670.49V182.52H670.576Z" fill="white"/>
<path fill-rule="evenodd" clip-rule="evenodd" d="M558.013 255.286L577.639 297.838L597.914 255.286H609.709L581.609 311.979H572.797L545.656 255.286H558.013ZM749.824 254.083C755.264 254.083 759.594 255.149 762.865 257.324C766.136 259.507 768.485 262.331 769.962 265.897C771.473 269.685 772.225 273.734 772.174 277.812V311.928H761.115V279.022C761.115 274.707 759.868 271.141 757.476 268.31C755.034 265.486 751.438 264.19 746.647 264.326C743.664 264.276 740.716 264.971 738.069 266.347C735.422 267.723 733.16 269.737 731.488 272.207C729.967 274.52 729.232 276.89 729.232 279.339V311.928H718.173V255.279H729.232V264.787C731.394 261.956 734.204 259.5 737.799 257.317C741.436 255.159 745.595 254.045 749.824 254.083ZM827.415 311.972H816.355V266.084H802.075V255.286H816.355V239.531H827.415V255.286H843.958V266.091H827.415V311.972ZM915.006 286.391V255.279H926.066V311.972H915.006V302.463C913.118 305.2 910.352 307.649 906.663 309.789C902.981 311.964 898.557 313.031 893.305 313.031C886.806 313.031 881.51 310.761 877.454 306.259C873.397 301.771 871.416 295.554 871.416 287.63V255.235H882.476V284.158C882.476 289.719 883.672 294.171 886.071 297.6C888.463 301.029 892.382 302.744 897.815 302.744C900.949 302.744 903.853 302.095 906.432 300.748C909.062 299.401 911.137 297.55 912.657 295.093C914.221 292.687 915.006 289.763 915.006 286.377V286.391ZM997.158 267.943C995.913 267.307 994.598 266.824 993.238 266.502C991.751 266.104 990.217 265.903 988.677 265.904C985.593 265.904 982.784 266.646 980.204 268.13C977.691 269.547 975.555 271.548 973.979 273.965C972.417 276.364 971.6 279.171 971.63 282.033V312.065H960.484V255.279H971.63V266.639C973.65 263.028 976.512 259.959 979.974 257.692C983.518 255.329 987.157 254.119 990.983 254.119C992.777 254.119 994.528 254.306 996.192 254.681C997.849 255.048 999.182 255.509 1000.1 256.071L997.158 267.943ZM1047.33 264.233C1042.64 264.233 1038.49 265.256 1034.94 267.294C1031.39 269.333 1029.13 272.856 1028.07 277.812H1063.83V276.609C1063.58 274.211 1062.59 271.948 1061.02 270.125C1059.37 268.219 1057.3 266.724 1054.98 265.76C1052.55 264.77 1049.96 264.252 1047.33 264.233ZM1071.98 304.509H1071.89C1067.67 308 1062.73 310.516 1057.42 311.878C1054.43 312.676 1051.35 313.083 1048.26 313.088C1042.22 313.088 1036.83 311.835 1032.17 309.378C1027.67 307.039 1023.9 303.492 1021.3 299.135C1018.67 294.639 1017.31 289.511 1017.38 284.302C1017.38 277.949 1018.77 272.531 1021.48 268.036C1024.1 263.633 1027.88 260.038 1032.4 257.649C1037.01 255.228 1042.13 253.986 1047.33 254.032C1052.36 254.032 1056.87 255.192 1060.92 257.562C1064.95 259.89 1068.3 263.226 1070.65 267.244C1073.09 271.321 1074.29 276.148 1074.29 281.615L1074.19 286.802H1027.75C1028.58 291.765 1030.93 295.706 1034.85 298.58C1038.76 301.447 1043.69 302.888 1049.59 302.888C1053.92 302.888 1057.47 302.146 1060.23 300.662C1063 299.178 1065.25 297.788 1067.05 296.397L1071.98 304.509ZM660.994 264.233C656.246 264.233 652.146 265.256 648.601 267.294C645.049 269.333 642.794 272.856 641.735 277.812H677.443V276.609C677.192 274.211 676.211 271.948 674.633 270.125C672.98 268.229 670.915 266.735 668.595 265.76C666.185 264.761 663.603 264.242 660.994 264.233ZM685.642 304.509H685.549C681.326 307.998 676.386 310.514 671.081 311.878C668.092 312.678 665.011 313.085 661.916 313.088C655.878 313.088 650.489 311.835 645.835 309.378C641.327 307.04 637.56 303.493 634.955 299.135C632.325 294.639 630.972 289.51 631.043 284.302C631.043 277.949 632.426 272.531 635.15 268.036C637.759 263.633 641.537 260.037 646.065 257.649C650.666 255.228 655.795 253.986 660.994 254.032C665.704 253.963 670.347 255.151 674.446 257.473C678.544 259.795 681.949 263.168 684.309 267.244C686.745 271.321 687.948 276.148 687.948 281.615L687.854 286.802H641.454C641.78 289.142 642.578 291.393 643.797 293.417C645.017 295.441 646.634 297.197 648.551 298.58C652.47 301.447 657.399 302.888 663.343 302.888C667.673 302.888 671.218 302.146 673.984 300.662C676.751 299.178 679.006 297.788 680.808 296.397L685.642 304.509ZM1141.51 270.399C1138.92 268.3 1136.03 266.596 1132.94 265.342C1130.04 264.049 1126.91 263.356 1123.73 263.303C1121.83 263.303 1119.95 263.491 1117.96 263.865C1116.18 264.147 1114.48 264.827 1112.99 265.854C1111.61 266.826 1110.96 268.267 1110.96 270.118C1110.96 271.833 1111.65 273.223 1112.99 274.296C1114.33 275.355 1116.17 276.191 1118.38 276.839C1120.64 277.488 1123.12 278.093 1125.85 278.691C1128.56 279.252 1131.24 279.944 1133.81 280.686C1136.44 281.428 1138.79 282.451 1140.91 283.697C1143.03 284.951 1144.74 286.528 1145.98 288.43C1147.27 290.325 1147.92 292.738 1147.92 295.612C1147.92 299.365 1146.81 302.513 1144.64 305.114C1142.35 307.804 1139.4 309.848 1136.07 311.042C1132.37 312.426 1128.45 313.12 1124.51 313.088C1119.44 313.088 1114.6 312.296 1110.04 310.769C1105.52 309.252 1101.52 306.508 1098.47 302.845L1105.99 296.167C1108.29 298.53 1110.96 300.431 1114 301.822C1117.04 303.212 1120.59 303.911 1124.69 303.911C1126.49 303.911 1128.33 303.673 1130.27 303.262C1132.06 302.909 1133.75 302.145 1135.2 301.029C1135.86 300.515 1136.38 299.853 1136.73 299.097C1137.09 298.341 1137.25 297.512 1137.22 296.678C1137.24 295.899 1137.06 295.129 1136.71 294.435C1136.35 293.741 1135.83 293.143 1135.2 292.695C1133.81 291.672 1132.02 290.886 1129.72 290.281C1127.41 289.676 1124.97 289.129 1122.29 288.61C1118.59 287.775 1114.93 286.755 1111.33 285.556C1107.92 284.345 1105.15 282.588 1103.04 280.268C1100.92 277.949 1099.86 274.664 1099.86 270.493C1099.86 267.201 1100.92 264.276 1103.04 261.87C1105.15 259.413 1107.97 257.512 1111.56 256.215C1115.34 254.845 1119.33 254.169 1123.35 254.22C1126.08 254.22 1128.93 254.544 1131.97 255.149C1134.96 255.75 1137.85 256.73 1140.59 258.066C1143.35 259.413 1145.7 261.128 1147.59 263.303L1141.51 270.399Z" fill="white"/>
</g>
</g>
<defs>
<clipPath id="clip0_1198_33">
<rect width="1441" height="389" fill="white"/>
</clipPath>
</defs>
</svg>
